<svg width="1100" height="381" viewBox="0 0 1100 381" fill="none" xmlns="http://www.w3.org/2000/svg">
<g id="Frame 9163">
<g id="design">
<g id="business-model">
<g id="Rectangle 772" filter="url(#filter0_dd)">
<rect x="596" y="2" width="501" height="375" fill="#FDFAFF"/>
</g>
<rect id="Rectangle 773" x="596" y="2" width="501" height="34" fill="#7500C0"/>
<g id="Group 9145">
<g id="Frame 51">
<circle id="Ellipse 118" r="3" transform="matrix(-1 0 0 1 612 353)" fill="black"/>
</g>
<g id="Frame 9095">
<g id="Frame 50">
<circle id="Ellipse 118_2" r="3" transform="matrix(-1 0 0 1 612 287)" fill="black"/>
</g>
<text id="New connected ecosystems" fill="black"   font-family="Graphik" font-size="16" letter-spacing="0px"><tspan x="628" y="292.088">New connected ecosystems</tspan></text>
</g>
<g id="Frame 9096">
<g id="Frame 50_2">
<circle id="Ellipse 118_3" r="3" transform="matrix(-1 0 0 1 612 309)" fill="black"/>
</g>
<text id="Platforms-enabled marketplace" fill="black"   font-family="Graphik" font-size="16" letter-spacing="0px"><tspan x="628" y="314.088">Platforms-enabled marketplace</tspan></text>
</g>
<g id="Frame 9097">
<g id="Frame 50_3">
<circle id="Ellipse 118_4" r="3" transform="matrix(-1 0 0 1 612 331)" fill="black"/>
</g>
<text id="Continuous demand-sensing" fill="black"   font-family="Graphik" font-size="16" letter-spacing="0px"><tspan x="628" y="336.088">Continuous demand-sensing</tspan></text>
</g>
<text id="End to end automation" fill="black"   font-family="Graphik" font-size="16" letter-spacing="0px"><tspan x="628.514" y="358.088">End to end automation</tspan></text>
</g>
<g id="Group 9105">
<g id="Frame 9095_2">
<g id="Frame 50_4">
<circle id="Ellipse 118_5" r="3" transform="matrix(-1 0 0 1 879 285)" fill="black"/>
</g>
<text id="Pay per use" fill="black"   font-family="Graphik" font-size="16" letter-spacing="0px"><tspan x="895" y="290.088">Pay per use</tspan></text>
</g>
<g id="Frame 9096_2">
<g id="Frame 50_5">
<circle id="Ellipse 118_6" r="3" transform="matrix(-1 0 0 1 879 307)" fill="black"/>
</g>
<text id="Software based services" fill="black"   font-family="Graphik" font-size="16" letter-spacing="0px"><tspan x="895" y="312.088">Software based services</tspan></text>
</g>
<g id="Frame 9097_2">
<g id="Frame 50_6">
<circle id="Ellipse 118_7" r="3" transform="matrix(-1 0 0 1 879 329)" fill="black"/>
</g>
<text id="Product / Service hybrids" fill="black"   font-family="Graphik" font-size="16" letter-spacing="0px"><tspan x="895" y="334.088">Product / Service hybrids</tspan></text>
</g>
<g id="Frame 51_2">
<circle id="Ellipse 118_8" r="3" transform="matrix(-1 0 0 1 879 351)" fill="black"/>
</g>
<text id="Data monetization" fill="black"   font-family="Graphik" font-size="16" letter-spacing="0px"><tspan x="895" y="356.088">Data monetization</tspan></text>
</g>
<g id="round">
<path id="Ellipse 138" d="M965.103 156.643C965.103 214.536 918.172 261.468 860.278 261.468C802.385 261.468 755.454 214.536 755.454 156.643C755.454 98.75 802.385 51.8184 860.278 51.8184C918.172 51.8184 965.103 98.75 965.103 156.643ZM758.626 156.643C758.626 212.784 804.138 258.295 860.278 258.295C916.419 258.295 961.93 212.784 961.93 156.643C961.93 100.502 916.419 54.9912 860.278 54.9912C804.138 54.9912 758.626 100.502 758.626 156.643Z" fill="#7500C0"/>
<rect id="Rectangle 770" x="847.495" y="48.4092" width="23.8626" height="219.024" fill="#FDFAFF"/>
<g id="Group 9140">
<circle id="Ellipse 139" cx="757.361" cy="159.43" r="21.8607" fill="white" stroke="#7500C0"/>
<path id="Vector" d="M754.514 152.518C754.514 151.437 754.782 150.418 755.249 149.521M755.249 149.521C756.334 147.438 758.508 146.014 761.019 146.014C764.611 146.014 767.523 148.926 767.523 152.518C767.523 153.098 767.438 153.656 767.295 154.191M755.249 149.521C754.762 149.358 754.242 149.266 753.701 149.266C751.007 149.266 748.823 151.45 748.823 154.145M767.295 154.191C767.207 154.516 767.103 154.835 766.97 155.139C766.627 155.915 766.138 156.61 765.537 157.192M767.295 154.191C769.263 154.475 770.777 156.163 770.777 158.209C770.777 160.455 768.956 162.276 766.71 162.276H759.7C759.729 162.226 759.751 162.177 759.787 162.129M748.823 154.145C749.406 154.145 749.959 154.269 750.46 154.491M748.823 154.145C746.577 154.144 744.757 155.965 744.757 158.211C744.757 160.289 746.318 162.001 748.333 162.243C748.309 162.206 748.293 162.167 748.265 162.13L747.803 161.513C747.518 161.132 747.671 160.868 748.143 160.925L748.909 161.017C749.797 161.124 750.435 160.484 750.329 159.597L750.236 158.831C750.179 158.359 750.445 158.206 750.826 158.491L751.442 158.953C752.157 159.489 753.031 159.255 753.383 158.433L753.687 157.725C753.874 157.288 754.18 157.288 754.367 157.725L754.671 158.433C755.023 159.255 755.897 159.489 756.612 158.953L757.229 158.491C757.61 158.206 757.876 158.359 757.819 158.831L757.726 159.597C757.618 160.485 758.257 161.123 759.145 161.016L759.911 160.924C760.382 160.867 760.536 161.132 760.25 161.512L759.787 162.129M759.787 162.129C759.251 162.845 759.486 163.719 760.307 164.071L761.016 164.375C761.453 164.562 761.453 164.869 761.016 165.056L760.306 165.36C759.485 165.711 759.251 166.585 759.787 167.3L760.249 167.917C760.534 168.298 760.381 168.563 759.908 168.506L759.142 168.413C758.255 168.307 757.616 168.946 757.724 169.833L757.815 170.599C757.872 171.071 757.608 171.225 757.227 170.94L756.61 170.477C755.894 169.941 755.021 170.176 754.669 170.997L754.365 171.706C754.178 172.143 753.872 172.143 753.685 171.706L753.381 170.997C753.029 170.175 752.155 169.941 751.44 170.477L750.823 170.94C750.443 171.225 750.177 171.071 750.234 170.599L750.327 169.833C750.435 168.946 749.795 168.306 748.908 168.413L748.141 168.506C747.67 168.563 747.516 168.298 747.802 167.917L748.263 167.3C748.799 166.584 748.566 165.711 747.743 165.358L747.035 165.056C746.598 164.869 746.598 164.562 747.035 164.375L747.743 164.072C748.566 163.72 748.799 162.846 748.263 162.13L747.802 161.513C747.516 161.132 747.67 160.867 748.141 160.925L748.908 161.017C749.795 161.124 750.434 160.485 750.327 159.597L750.234 158.831C750.178 158.359 750.443 158.206 750.824 158.491L751.44 158.953C752.156 159.489 753.03 159.255 753.382 158.433L753.685 157.725C753.872 157.288 754.178 157.288 754.366 157.725L754.669 158.433C755.021 159.255 755.895 159.489 756.61 158.953L757.227 158.491C757.609 158.206 757.874 158.359 757.817 158.831L757.724 159.597C757.616 160.484 758.255 161.123 759.144 161.016L759.909 160.924C760.381 160.867 760.534 161.132 760.249 161.512L759.787 162.129ZM763.441 154.644C763.45 154.533 763.458 154.421 763.458 154.308C763.458 154.194 763.45 154.083 763.441 153.972L762.145 153.62C762.076 153.344 761.968 153.086 761.824 152.849L762.493 151.681C762.349 151.511 762.19 151.352 762.02 151.207L760.852 151.875C760.614 151.733 760.357 151.624 760.081 151.555L759.729 150.259C759.618 150.25 759.507 150.241 759.393 150.241C759.28 150.241 759.169 150.249 759.057 150.259L758.705 151.555C758.429 151.624 758.173 151.733 757.935 151.875L756.768 151.206C756.597 151.351 756.437 151.51 756.293 151.681L756.962 152.849C756.819 153.086 756.71 153.344 756.642 153.619L755.345 153.972C755.336 154.083 755.328 154.194 755.328 154.308C755.328 154.421 755.336 154.532 755.345 154.644L756.642 154.996C756.71 155.271 756.819 155.529 756.962 155.766L756.293 156.934C756.437 157.105 756.597 157.264 756.768 157.409L757.935 156.739C758.173 156.882 758.43 156.991 758.705 157.06L759.057 158.356C759.169 158.365 759.28 158.373 759.393 158.373C759.506 158.373 759.618 158.365 759.729 158.356L760.081 157.06C760.356 156.991 760.613 156.882 760.851 156.74L762.018 157.408C762.19 157.264 762.349 157.105 762.493 156.933L761.824 155.766C761.968 155.529 762.076 155.271 762.145 154.996L763.441 154.644ZM759.393 155.73C758.607 155.73 757.97 155.093 757.97 154.308C757.97 153.521 758.607 152.885 759.393 152.885C760.178 152.885 760.816 153.522 760.816 154.308C760.816 155.093 760.178 155.73 759.393 155.73ZM754.026 167.154C752.679 167.154 751.587 166.062 751.587 164.715C751.587 163.368 752.679 162.276 754.026 162.276C755.374 162.276 756.465 163.368 756.465 164.715C756.465 166.062 755.374 167.154 754.026 167.154ZM754.027 160.65C751.781 160.65 749.961 162.47 749.961 164.715C749.961 166.961 751.781 168.78 754.027 168.78C756.272 168.78 758.092 166.961 758.092 164.715C758.092 162.47 756.272 160.65 754.027 160.65ZM769.065 166.803C768.898 166.743 768.705 166.561 768.637 166.396L768.573 166.241C768.506 166.078 768.512 165.812 768.589 165.652L768.999 164.791L768.667 164.46L767.807 164.869C767.645 164.945 767.381 164.952 767.216 164.885L767.062 164.82C766.897 164.752 766.714 164.56 766.655 164.392L766.336 163.496H765.868L765.548 164.394C765.488 164.562 765.306 164.754 765.142 164.821L764.986 164.886C764.823 164.954 764.557 164.947 764.397 164.871L763.536 164.462L763.535 164.46L763.204 164.791L763.614 165.653C763.69 165.813 763.698 166.078 763.628 166.242L763.564 166.397C763.497 166.562 763.304 166.744 763.136 166.805L762.24 167.123V167.124L762.239 167.592L763.136 167.913C763.305 167.972 763.497 168.155 763.564 168.318L763.628 168.474C763.698 168.638 763.69 168.904 763.614 169.064L763.204 169.925L763.535 170.255H763.536L764.398 169.846C764.558 169.77 764.824 169.763 764.987 169.83L765.143 169.894C765.307 169.963 765.489 170.155 765.549 170.323L765.868 171.22H766.336L766.657 170.323C766.715 170.155 766.899 169.962 767.062 169.894L767.218 169.83C767.38 169.762 767.646 169.769 767.807 169.845L768.667 170.255L768.999 169.925L768.589 169.064C768.512 168.903 768.506 168.637 768.574 168.473L768.638 168.318C768.706 168.155 768.899 167.971 769.066 167.912L769.963 167.593V167.123L769.065 166.803ZM766.101 168.375C765.54 168.375 765.085 167.92 765.085 167.358C765.085 166.796 765.54 166.341 766.101 166.341C766.664 166.341 767.117 166.796 767.117 167.358C767.117 167.92 766.664 168.375 766.101 168.375ZM767.931 167.358C767.931 168.368 767.113 169.189 766.101 169.189C765.09 169.189 764.272 168.369 764.272 167.358C764.272 166.347 765.09 165.528 766.101 165.528C767.113 165.528 767.931 166.347 767.931 167.358Z" stroke="#7500C0" stroke-miterlimit="10" stroke-linecap="round" stroke-linejoin="round"/>
</g>
<path id="Vector 35" d="M853.461 45L862.835 54.8007L853.461 64.6014" stroke="#7500C0" stroke-width="5"/>
<path id="Vector 36" d="M866.244 247.832L856.869 257.633L866.244 267.433" stroke="#7500C0" stroke-width="5"/>
<circle id="Ellipse 141" cx="845.79" cy="55.2273" r="3.40894" fill="#A100FF"/>
<circle id="Ellipse 142" cx="870.505" cy="53.5222" r="3.40894" fill="#A100FF"/>
<circle id="Ellipse 143" cx="873.914" cy="259.763" r="3.40894" fill="#A100FF"/>
<circle id="Ellipse 144" cx="845.79" cy="259.763" r="3.40894" fill="#A100FF"/>
<g id="Group 9139">
<circle id="Ellipse 140" cx="960.639" cy="159.43" r="21.8607" fill="white" stroke="#7500C0"/>
<g id="Group 9138">
<path id="Vector_2" d="M961.859 149.625C963.303 149.625 964.478 148.45 964.478 147.006C964.478 145.562 963.303 144.388 961.859 144.388C960.415 144.388 959.24 145.562 959.24 147.006C959.24 148.451 960.415 149.625 961.859 149.625ZM961.859 144.728C963.115 144.728 964.137 145.75 964.137 147.006C964.137 148.263 963.115 149.284 961.859 149.284C960.603 149.284 959.581 148.262 959.581 147.006C959.581 145.75 960.603 144.728 961.859 144.728Z" fill="#7500C0" stroke="#7500C0" stroke-width="0.5"/>
<path id="Vector_3" d="M958.183 153.358H958.517V157.723H965.201V153.358H965.534V157.723H967.817L967.803 152.914C967.664 151.297 966.283 150.03 964.659 150.03H959.058C957.435 150.03 956.054 151.297 955.914 152.929L955.901 157.723H958.184V153.358H958.183ZM957.843 157.383H956.242L956.254 152.944C956.378 151.501 957.61 150.371 959.058 150.371H964.66C966.108 150.371 967.34 151.501 967.463 152.93L967.476 157.383H965.875V153.018H964.86V157.382H958.858V153.018H957.843V157.383H957.843Z" fill="#7500C0" stroke="#7500C0" stroke-width="0.5"/>
<path id="Vector_4" d="M969.723 164.612C971.167 164.612 972.342 163.438 972.342 161.994C972.342 160.549 971.168 159.375 969.723 159.375C968.279 159.375 967.105 160.549 967.105 161.994C967.105 163.438 968.279 164.612 969.723 164.612ZM969.723 159.716C970.98 159.716 972.001 160.738 972.001 161.994C972.001 163.25 970.98 164.272 969.723 164.272C968.467 164.272 967.445 163.25 967.445 161.994C967.445 160.738 968.468 159.716 969.723 159.716Z" fill="#7500C0" stroke="#7500C0" stroke-width="0.5"/>
<path id="Vector_5" d="M975.682 172.71L975.668 167.902C975.529 166.284 974.148 165.018 972.524 165.018H966.923C965.299 165.018 963.919 166.284 963.779 167.916L963.766 172.71H966.048V168.345H966.382V172.71H973.066V168.345H973.399V172.71H975.682V172.71ZM972.725 168.005V172.369H966.723V168.005H965.708V172.369H964.107L964.119 167.931C964.243 166.488 965.475 165.358 966.923 165.358H972.524C973.973 165.358 975.204 166.488 975.328 167.916L975.34 172.369H973.74V168.005H972.725Z" fill="#7500C0" stroke="#7500C0" stroke-width="0.5"/>
<path id="Vector_6" d="M953.995 164.612C955.439 164.612 956.613 163.438 956.613 161.994C956.613 160.549 955.439 159.375 953.995 159.375C952.55 159.375 951.376 160.549 951.376 161.994C951.376 163.438 952.55 164.612 953.995 164.612ZM953.995 159.716C955.251 159.716 956.273 160.738 956.273 161.994C956.273 163.25 955.251 164.272 953.995 164.272C952.739 164.272 951.717 163.25 951.717 161.994C951.717 160.738 952.739 159.716 953.995 159.716Z" fill="#7500C0" stroke="#7500C0" stroke-width="0.5"/>
<path id="Vector_7" d="M956.795 165.018H951.193C949.569 165.018 948.189 166.284 948.05 167.916L948.036 172.71H950.319V168.345H950.652V172.71H957.336V168.345H957.67V172.71H959.952L959.938 167.901C959.8 166.284 958.419 165.018 956.795 165.018ZM958.011 172.37V168.005H956.996V172.369H950.993V168.005H949.978V172.369H948.377L948.389 167.931C948.513 166.488 949.745 165.358 951.193 165.358H956.795C958.243 165.358 959.475 166.488 959.598 167.916L959.611 172.369H958.011V172.37Z" fill="#7500C0" stroke="#7500C0" stroke-width="0.5"/>
<path id="Vector_8" d="M961.689 158.573V161.98L958.969 164.03L959.174 164.302L961.859 162.278L964.544 164.302L964.749 164.03L962.029 161.98V158.573H961.689Z" fill="#7500C0" stroke="#7500C0" stroke-width="0.5"/>
</g>
</g>
</g>
<text id="Platform-Driven Business Models" fill="white"   font-family="Graphik" font-size="14" font-weight="600" letter-spacing="0px"><tspan x="720.631" y="25.008">PLATFORM-DRIVEN BUSINESS MODELS</tspan></text>
<text id="Platform ecosystem" fill="#7500C0"   font-family="Graphik" font-size="18" font-weight="600" letter-spacing="0px"><tspan x="809.588" y="150.796">PLATFORM&#10;</tspan><tspan x="803.286" y="170.796">ECOSYSTEM</tspan></text>
</g>
<g id="traditional-box">
<g id="Rectangle 771" filter="url(#filter1_dd)">
<rect x="3" y="85" width="561" height="211" fill="#F8F8F8"/>
</g>
<rect id="Rectangle 774" x="3" y="85" width="561" height="36" fill="#D7D7D7"/>
<text id="Traditional Value-Chain Business Modles" fill="black"   font-family="Graphik" font-size="14" font-weight="600" letter-spacing="0px"><tspan x="106.281" y="109.008">TRADITIONAL VALUE-CHAIN BUSINESS MODELS</tspan></text>
<g id="production">
<text id="Production" fill="black"   font-family="Graphik" font-size="16" font-weight="600" letter-spacing="0px"><tspan x="28" y="239.152">PRODUCTION</tspan></text>
<g id="Group">
<g id="Vector_9">
<path d="M52.5537 212.023H61.8454C63.2533 212.023 64.3985 210.851 64.3985 209.41V209.395L73.291 212.409C74.618 212.859 75.9868 213.083 77.3507 213.083C79.2512 213.083 81.144 212.649 82.9072 211.789L96.8132 204.828C97.6752 204.396 98.3214 203.647 98.6328 202.718C98.9437 201.789 98.8829 200.792 98.4608 199.909C97.5911 198.092 95.4379 197.336 93.6606 198.222L85.7164 202.189C85.3247 200.528 83.8642 199.29 82.1233 199.29H76.5651L74.6012 198.217C72.7382 197.2 70.637 196.663 68.5255 196.663H64.3985V196.599C64.3985 195.158 63.2533 193.985 61.8454 193.985H52.5537C51.1453 193.986 50 195.159 50 196.599V209.41C50 210.851 51.1453 212.023 52.5537 212.023ZM68.5255 198.884C70.2822 198.884 72.0302 199.331 73.5796 200.177L75.785 201.381C75.798 201.388 75.8116 201.391 75.8251 201.397C75.8729 201.421 75.9228 201.439 75.9743 201.456C76.0031 201.465 76.0313 201.476 76.0606 201.483C76.1116 201.494 76.1642 201.498 76.2179 201.502C76.2434 201.504 76.2695 201.512 76.295 201.512C76.2988 201.512 76.3026 201.51 76.3069 201.51H82.1227C82.9664 201.51 83.6527 202.212 83.6527 203.08C83.6527 203.944 82.9658 204.646 82.1227 204.646H73.9844C73.3854 204.646 72.8993 205.143 72.8993 205.756C72.8993 206.369 73.3854 206.867 73.9844 206.867H82.1227C83.5523 206.867 84.792 206.032 85.4083 204.813L94.6122 200.218C95.3153 199.866 96.1676 200.167 96.5121 200.885C96.6792 201.235 96.703 201.629 96.5799 201.997C96.4567 202.365 96.2012 202.662 95.86 202.832L81.9638 209.789C79.4514 211.015 76.614 211.196 73.973 210.302L64.3985 207.056V198.884H68.5255ZM52.1701 196.599C52.1701 196.383 52.3421 196.207 52.5537 196.207H61.8454C62.057 196.207 62.2285 196.383 62.2285 196.599V209.41C62.2285 209.627 62.057 209.803 61.8454 209.803H52.5537C52.3421 209.802 52.1701 209.626 52.1701 209.41V196.599Z" fill="#5A5A5A"/>
<path d="M84.3514 196.984C92.4285 196.984 99 190.259 99 181.992C99 173.726 92.4285 167 84.3514 167C76.2743 167 69.7029 173.726 69.7029 181.992C69.7029 190.259 76.2743 196.984 84.3514 196.984ZM72.9075 186.799H77.3213C78.073 189.582 79.471 192.145 81.4307 194.295C77.562 193.333 74.3995 190.506 72.9075 186.799ZM96.724 181.992C96.724 183.047 96.5954 184.071 96.3564 185.052H91.7628C91.9301 184.052 92.0183 183.029 92.0183 181.992C92.0183 180.955 91.9301 179.933 91.7628 178.932H96.3564C96.5954 179.912 96.724 180.937 96.724 181.992ZM90.3118 181.992C90.3118 183.032 90.2117 184.054 90.0262 185.052H85.2055V178.932H90.0262C90.2117 179.93 90.3118 180.953 90.3118 181.992ZM83.4979 193.939C81.4159 191.952 79.9132 189.499 79.0966 186.799H83.4979V193.939ZM85.2049 193.935V186.799H89.6022C88.7863 189.498 87.2847 191.949 85.2049 193.935ZM85.2049 177.185V170.049C87.2847 172.036 88.7863 174.487 89.6022 177.185H85.2049ZM83.4979 170.044V177.185H79.0966C79.9132 174.485 81.4159 172.032 83.4979 170.044ZM83.4979 178.932V185.052H78.6733C78.4872 184.054 78.3876 183.031 78.3876 181.992C78.3876 180.953 78.4878 179.93 78.6733 178.932H83.4979ZM76.9361 185.052H72.3465C72.1081 184.071 71.9789 183.047 71.9789 181.992C71.9789 180.937 72.1075 179.912 72.3465 178.932H76.9361C76.7688 179.933 76.6806 180.955 76.6806 181.992C76.6806 183.029 76.7688 184.052 76.9361 185.052ZM87.2665 194.296C89.2273 192.146 90.6253 189.583 91.3775 186.799H95.7953C94.3028 190.508 91.138 193.335 87.2665 194.296ZM95.7953 177.185H91.3775C90.6253 174.402 89.2273 171.838 87.2665 169.688C91.138 170.648 94.3028 173.476 95.7953 177.185ZM81.4307 169.689C79.471 171.839 78.073 174.402 77.3213 177.185H72.9075C74.3995 173.478 77.562 170.651 81.4307 169.689Z" fill="#5A5A5A"/>
</g>
</g>
<path id="Union" fill-rule="evenodd" clip-rule="evenodd" d="M22 142H21V144H22H142V266.68H22H21V268.68H22H143H144V267.68V235L160 205L144 175V143V142H143H22Z" fill="#969696"/>
</g>
<g id="distribution">
<path id="Union_2" fill-rule="evenodd" clip-rule="evenodd" d="M156 142H155V144H156H276V266.68H156H155V268.68H156H277H278V267.68V235L294 205L278 175V143V142H277H156Z" fill="#969696"/>
<g id="Vector_10">
<path d="M209.027 194.837H206.667C206.667 189.908 202.805 185.921 198.014 185.921C193.222 185.921 189.36 189.835 189.36 194.692H187C187 188.53 191.935 183.529 198.014 183.529C204.092 183.529 209.027 188.53 209.027 194.692V194.837Z" fill="#5A5A5A"/>
<path d="M198.014 183.674C195.01 183.674 192.65 181.209 192.65 178.237C192.65 175.265 195.081 172.801 198.014 172.801C200.946 172.801 203.377 175.265 203.377 178.237C203.377 181.209 201.017 183.674 198.014 183.674ZM198.014 175.12C196.369 175.12 195.01 176.498 195.01 178.165C195.01 179.832 196.369 181.209 198.014 181.209C199.659 181.209 201.017 179.832 201.017 178.165C201.089 176.498 199.73 175.12 198.014 175.12Z" fill="#5A5A5A"/>
<path d="M245 194.837H242.64C242.64 189.908 238.778 185.921 233.986 185.921C229.195 185.921 225.333 189.835 225.333 194.692H222.973C222.973 188.53 227.908 183.529 233.986 183.529C240.065 183.529 245 188.53 245 194.692V194.837Z" fill="#5A5A5A"/>
<path d="M233.987 183.674C230.983 183.674 228.623 181.209 228.623 178.237C228.623 175.265 231.054 172.801 233.987 172.801C236.99 172.801 239.35 175.265 239.35 178.237C239.35 181.209 236.99 183.674 233.987 183.674ZM233.987 175.12C232.342 175.12 230.983 176.498 230.983 178.165C230.983 179.832 232.342 181.209 233.987 181.209C235.631 181.209 236.99 179.832 236.99 178.165C237.062 176.498 235.703 175.12 233.987 175.12Z" fill="#5A5A5A"/>
<path d="M200.517 171.496L198.729 169.974C202.877 164.9 208.956 162 215.392 162C221.042 162 226.334 164.175 230.411 168.089L228.766 169.829C225.118 166.349 220.398 164.392 215.392 164.392C209.671 164.392 204.236 167.002 200.517 171.496Z" fill="#5A5A5A"/>
<path d="M223.402 168.306L229.052 168.524L229.266 162.797L231.555 165.262L231.412 171.061L225.762 170.843L223.402 168.306Z" fill="#5A5A5A"/>
<path d="M215.678 206C210.028 206 204.736 203.825 200.66 199.911L202.305 198.171C205.952 201.651 210.672 203.608 215.678 203.608C221.399 203.608 226.835 201.071 230.482 196.577L232.27 198.099C228.194 203.1 222.115 206 215.678 206Z" fill="#5A5A5A"/>
<path d="M207.597 199.694L201.947 199.476L201.804 205.203L199.444 202.738L199.659 197.012L205.308 197.157L207.597 199.694Z" fill="#5A5A5A"/>
</g>
<text id="Distribution" fill="black"   font-family="Graphik" font-size="16" font-weight="600" letter-spacing="0px"><tspan x="156" y="243.152">DISTRIBUTION</tspan></text>
</g>
<g id="marketing">
<text id="marketing_2" fill="black"   font-family="Graphik" font-size="16" font-weight="600" letter-spacing="0px"><tspan x="298" y="241.652">MARKETING</tspan></text>
<path id="Union_3" fill-rule="evenodd" clip-rule="evenodd" d="M290 142H289V144H290H410V266.68H290H289V268.68H290H411H412V267.68V235L428 205L412 175V143V142H411H290Z" fill="#969696"/>
<g id="Vector_11">
<path d="M375.71 178.517H369.25C368.537 178.517 367.96 179.109 367.96 179.84C367.96 180.57 368.537 181.162 369.25 181.162H375.71C376.423 181.162 377 180.57 377 179.84C377 179.109 376.423 178.517 375.71 178.517Z" fill="#5A5A5A"/>
<path d="M369.25 175.872C369.42 175.872 369.581 175.838 369.73 175.777L369.751 175.769C369.751 175.768 369.753 175.768 369.755 175.767L376.188 173.132V173.131C376.665 172.937 377 172.461 377 171.904C377 171.173 376.423 170.582 375.709 170.582C375.539 170.582 375.378 170.615 375.229 170.677V170.676L375.208 170.685C375.206 170.685 375.206 170.685 375.206 170.685L368.771 173.321V173.322C368.296 173.517 367.959 173.992 367.959 174.549C367.959 175.28 368.536 175.872 369.25 175.872Z" fill="#5A5A5A"/>
<path d="M362.792 172.844V161.322C362.792 160.592 362.213 160 361.5 160C360.788 160 360.21 160.592 360.21 161.322V162.117L336.96 169.258H322.75C322.038 169.258 321.46 169.851 321.46 170.582V173.226H317.585C316.871 173.226 316.292 173.819 316.292 174.55V177.194C315.579 177.194 315 177.787 315 178.517V181.162C315 181.893 315.579 182.485 316.292 182.485V185.131C316.292 185.862 316.871 186.452 317.585 186.452H321.46V189.099C321.46 189.83 322.038 190.42 322.75 190.42H324.578L327.917 205H339.542L336.32 195.528C336.702 195.299 336.959 194.877 336.959 194.388C336.959 193.927 336.729 193.52 336.377 193.284L337.633 190.628L360.209 197.564V198.356C360.209 199.089 360.788 199.68 361.5 199.68C362.213 199.68 362.792 199.089 362.792 198.356V186.588C365.108 185.216 366.667 182.653 366.667 179.716C366.667 176.779 365.108 174.215 362.792 172.844ZM318.875 183.808V175.872H321.46V183.808H318.875ZM324.042 171.904H336.959V187.776H324.042V171.904ZM329.966 202.355L327.232 190.42H334.859L333.576 193.141L333.109 194.129L335.907 202.355H329.966ZM339.542 188.452V186.586L339.567 186.538H339.542V171.227L360.209 164.879V194.803L339.542 188.452ZM362.792 183.209V176.222C363.596 177.154 364.085 178.377 364.085 179.716C364.085 181.054 363.596 182.277 362.792 183.209Z" fill="#5A5A5A"/>
<path d="M376.188 186.549L369.755 183.912C369.753 183.911 369.751 183.911 369.751 183.91L369.731 183.903V183.904C369.581 183.843 369.42 183.808 369.25 183.808C368.537 183.808 367.96 184.4 367.96 185.131C367.96 185.687 368.296 186.162 368.771 186.359L375.204 188.994C375.206 188.994 375.208 188.994 375.21 188.996L375.229 189.004V189.002C375.378 189.064 375.539 189.099 375.71 189.099C376.423 189.099 377 188.506 377 187.776C377 187.22 376.665 186.743 376.188 186.549Z" fill="#5A5A5A"/>
</g>
</g>
<g id="consumer">
<text id="Consumer" fill="black"   font-family="Graphik" font-size="16" font-weight="600" letter-spacing="0px"><tspan x="431" y="241.152">CONSUMER</tspan></text>
<path id="Union_4" fill-rule="evenodd" clip-rule="evenodd" d="M420 142H421H542H543V143V267.68V268.68H542H421H420V266.68H421H541V144H421H420V142Z" fill="#969696"/>
<g id="Vector_12">
<mask id="path-53-outside-1" maskUnits="userSpaceOnUse" x="464" y="161" width="44" height="49" fill="black">
<rect fill="white" x="464" y="161" width="44" height="49"/>
<path d="M501.153 207.288H496.769V188.435C496.769 187.904 497.035 187.397 497.508 187.034C505.266 181 505.49 167.278 505.49 165.733C505.49 163.675 503.602 162 501.282 162C498.968 162 497.086 163.675 497.086 165.733C497.086 169.747 495.758 178.918 491.653 181.646C489.666 182.968 487.01 184.073 484.235 185.182L483.705 185.397C481.854 186.141 479.756 186.983 477.84 187.959C474.646 189.584 470.399 192.314 470.399 197.238V207.288H465.646C465.289 207.288 465 207.548 465 207.869C465 208.189 465.289 208.449 465.646 208.449H501.153C501.509 208.449 501.798 208.189 501.798 207.869C501.798 207.548 501.509 207.288 501.153 207.288ZM495.478 188.435V207.288H478.801V199.557C478.801 199.237 478.512 198.977 478.155 198.977C477.799 198.977 477.51 199.237 477.51 199.557V207.288H471.69V197.238C471.69 193.907 473.783 191.357 478.476 188.97C480.339 188.021 482.407 187.19 484.23 186.458L484.76 186.243C487.603 185.107 490.329 183.972 492.421 182.58C497.307 179.333 498.377 169.318 498.377 165.733C498.377 164.315 499.68 163.161 501.282 163.161C502.891 163.161 504.199 164.315 504.199 165.733C504.199 167.224 503.988 180.459 496.661 186.158C495.909 186.733 495.478 187.562 495.478 188.435Z"/>
<path d="M506.354 207.556H504.414C504.057 207.556 503.767 207.879 503.767 208.278C503.767 208.677 504.057 209 504.414 209H506.354C506.711 209 507 208.677 507 208.278C507 207.879 506.711 207.556 506.354 207.556Z"/>
<path d="M484.491 182.668C488.694 182.668 492.244 177.378 492.244 171.116C492.244 166.339 488.766 162.452 484.491 162.452C480.216 162.452 476.737 166.339 476.737 171.116C476.737 177.378 480.288 182.668 484.491 182.668ZM484.491 163.896C488.054 163.896 490.952 167.135 490.952 171.116C490.952 176.595 487.993 181.224 484.491 181.224C480.989 181.224 478.03 176.595 478.03 171.116C478.03 167.135 480.928 163.896 484.491 163.896Z"/>
</mask>
<path d="M501.153 207.288H496.769V188.435C496.769 187.904 497.035 187.397 497.508 187.034C505.266 181 505.49 167.278 505.49 165.733C505.49 163.675 503.602 162 501.282 162C498.968 162 497.086 163.675 497.086 165.733C497.086 169.747 495.758 178.918 491.653 181.646C489.666 182.968 487.01 184.073 484.235 185.182L483.705 185.397C481.854 186.141 479.756 186.983 477.84 187.959C474.646 189.584 470.399 192.314 470.399 197.238V207.288H465.646C465.289 207.288 465 207.548 465 207.869C465 208.189 465.289 208.449 465.646 208.449H501.153C501.509 208.449 501.798 208.189 501.798 207.869C501.798 207.548 501.509 207.288 501.153 207.288ZM495.478 188.435V207.288H478.801V199.557C478.801 199.237 478.512 198.977 478.155 198.977C477.799 198.977 477.51 199.237 477.51 199.557V207.288H471.69V197.238C471.69 193.907 473.783 191.357 478.476 188.97C480.339 188.021 482.407 187.19 484.23 186.458L484.76 186.243C487.603 185.107 490.329 183.972 492.421 182.58C497.307 179.333 498.377 169.318 498.377 165.733C498.377 164.315 499.68 163.161 501.282 163.161C502.891 163.161 504.199 164.315 504.199 165.733C504.199 167.224 503.988 180.459 496.661 186.158C495.909 186.733 495.478 187.562 495.478 188.435Z" fill="#5A5A5A"/>
<path d="M506.354 207.556H504.414C504.057 207.556 503.767 207.879 503.767 208.278C503.767 208.677 504.057 209 504.414 209H506.354C506.711 209 507 208.677 507 208.278C507 207.879 506.711 207.556 506.354 207.556Z" fill="#5A5A5A"/>
<path d="M484.491 182.668C488.694 182.668 492.244 177.378 492.244 171.116C492.244 166.339 488.766 162.452 484.491 162.452C480.216 162.452 476.737 166.339 476.737 171.116C476.737 177.378 480.288 182.668 484.491 182.668ZM484.491 163.896C488.054 163.896 490.952 167.135 490.952 171.116C490.952 176.595 487.993 181.224 484.491 181.224C480.989 181.224 478.03 176.595 478.03 171.116C478.03 167.135 480.928 163.896 484.491 163.896Z" fill="#5A5A5A"/>
<path d="M501.153 207.288H496.769V188.435C496.769 187.904 497.035 187.397 497.508 187.034C505.266 181 505.49 167.278 505.49 165.733C505.49 163.675 503.602 162 501.282 162C498.968 162 497.086 163.675 497.086 165.733C497.086 169.747 495.758 178.918 491.653 181.646C489.666 182.968 487.01 184.073 484.235 185.182L483.705 185.397C481.854 186.141 479.756 186.983 477.84 187.959C474.646 189.584 470.399 192.314 470.399 197.238V207.288H465.646C465.289 207.288 465 207.548 465 207.869C465 208.189 465.289 208.449 465.646 208.449H501.153C501.509 208.449 501.798 208.189 501.798 207.869C501.798 207.548 501.509 207.288 501.153 207.288ZM495.478 188.435V207.288H478.801V199.557C478.801 199.237 478.512 198.977 478.155 198.977C477.799 198.977 477.51 199.237 477.51 199.557V207.288H471.69V197.238C471.69 193.907 473.783 191.357 478.476 188.97C480.339 188.021 482.407 187.19 484.23 186.458L484.76 186.243C487.603 185.107 490.329 183.972 492.421 182.58C497.307 179.333 498.377 169.318 498.377 165.733C498.377 164.315 499.68 163.161 501.282 163.161C502.891 163.161 504.199 164.315 504.199 165.733C504.199 167.224 503.988 180.459 496.661 186.158C495.909 186.733 495.478 187.562 495.478 188.435Z" stroke="#5A5A5A" stroke-width="2" mask="url(#path-53-outside-1)"/>
<path d="M506.354 207.556H504.414C504.057 207.556 503.767 207.879 503.767 208.278C503.767 208.677 504.057 209 504.414 209H506.354C506.711 209 507 208.677 507 208.278C507 207.879 506.711 207.556 506.354 207.556Z" stroke="#5A5A5A" stroke-width="2" mask="url(#path-53-outside-1)"/>
<path d="M484.491 182.668C488.694 182.668 492.244 177.378 492.244 171.116C492.244 166.339 488.766 162.452 484.491 162.452C480.216 162.452 476.737 166.339 476.737 171.116C476.737 177.378 480.288 182.668 484.491 182.668ZM484.491 163.896C488.054 163.896 490.952 167.135 490.952 171.116C490.952 176.595 487.993 181.224 484.491 181.224C480.989 181.224 478.03 176.595 478.03 171.116C478.03 167.135 480.928 163.896 484.491 163.896Z" stroke="#5A5A5A" stroke-width="2" mask="url(#path-53-outside-1)"/>
</g>
</g>
</g>
<path id="Polygon 15" d="M564.821 146.01L586.821 191.99L564.821 237.971L564.821 146.01Z" fill="#7500C0"/>
</g>
</g>
<defs>
<filter id="filter0_dd" x="593" y="0" width="507" height="381" filterUnits="userSpaceOnUse" color-interpolation-filters="sRGB">
<feFlood flood-opacity="0" result="BackgroundImageFix"/>
<feColorMatrix in="SourceAlpha" type="matrix" values="0 0 0 0 0 0 0 0 0 0 0 0 0 0 0 0 0 0 127 0"/>
<feOffset dy="1"/>
<feGaussianBlur stdDeviation="1"/>
<feColorMatrix type="matrix" values="0 0 0 0 0 0 0 0 0 0 0 0 0 0 0 0 0 0 0.24 0"/>
<feBlend mode="normal" in2="BackgroundImageFix" result="effect1_dropShadow"/>
<feColorMatrix in="SourceAlpha" type="matrix" values="0 0 0 0 0 0 0 0 0 0 0 0 0 0 0 0 0 0 127 0"/>
<feOffset dy="1"/>
<feGaussianBlur stdDeviation="1.5"/>
<feColorMatrix type="matrix" values="0 0 0 0 0 0 0 0 0 0 0 0 0 0 0 0 0 0 0.12 0"/>
<feBlend mode="normal" in2="effect1_dropShadow" result="effect2_dropShadow"/>
<feBlend mode="normal" in="SourceGraphic" in2="effect2_dropShadow" result="shape"/>
</filter>
<filter id="filter1_dd" x="0" y="83" width="567" height="217" filterUnits="userSpaceOnUse" color-interpolation-filters="sRGB">
<feFlood flood-opacity="0" result="BackgroundImageFix"/>
<feColorMatrix in="SourceAlpha" type="matrix" values="0 0 0 0 0 0 0 0 0 0 0 0 0 0 0 0 0 0 127 0"/>
<feOffset dy="1"/>
<feGaussianBlur stdDeviation="1"/>
<feColorMatrix type="matrix" values="0 0 0 0 0 0 0 0 0 0 0 0 0 0 0 0 0 0 0.24 0"/>
<feBlend mode="normal" in2="BackgroundImageFix" result="effect1_dropShadow"/>
<feColorMatrix in="SourceAlpha" type="matrix" values="0 0 0 0 0 0 0 0 0 0 0 0 0 0 0 0 0 0 127 0"/>
<feOffset dy="1"/>
<feGaussianBlur stdDeviation="1.5"/>
<feColorMatrix type="matrix" values="0 0 0 0 0 0 0 0 0 0 0 0 0 0 0 0 0 0 0.12 0"/>
<feBlend mode="normal" in2="effect1_dropShadow" result="effect2_dropShadow"/>
<feBlend mode="normal" in="SourceGraphic" in2="effect2_dropShadow" result="shape"/>
</filter>
</defs>
</svg>
