<svg width="175" height="150" viewBox="0 0 175 150" fill="none" xmlns="http://www.w3.org/2000/svg">
<g id="2nd">
<g id="Group 2560">
<rect id="Rectangle 158" y="122" width="175" height="14" rx="7" fill="#018FFF"/>
<path id="Polygon 10" d="M87 150L97.3923 135.75H76.6077L87 150Z" fill="#018FFF"/>
</g>
<g id="Rectangle 160" filter="url(#filter0_ddd)">
<rect x="16" width="143" height="121" fill="#018FFF"/>
</g>
<g id="03_Tech">
<path id="Vector" d="M86.2808 31.9439C85.7757 31.9439 85.3624 31.5306 85.3624 31.0255V24.9184C85.3624 24.4133 85.7757 24 86.2808 24C86.7859 24 87.1992 24.4133 87.1992 24.9184V31.0255C87.1992 31.5306 86.7859 31.9439 86.2808 31.9439Z" fill="white"/>
<path id="Vector_2" d="M57.9182 53.082H64.0254C64.5305 53.082 64.9438 53.4953 64.9438 54.0004C64.9438 54.5055 64.5305 54.9188 64.0254 54.9188H57.9182C57.4131 54.9188 56.9999 54.5055 56.9999 54.0004C56.9999 53.4953 57.4131 53.082 57.9182 53.082Z" fill="white"/>
<path id="Vector_3" d="M109.974 53.082H116.082C116.587 53.082 117 53.4953 117 54.0004C117 54.5055 116.587 54.9188 116.082 54.9188H109.974C109.469 54.9188 109.056 54.5055 109.056 54.0004C109.056 53.4953 109.469 53.082 109.974 53.082Z" fill="white"/>
<path id="Vector_4" d="M69.6581 37.9591L64.8979 33.1988C64.5459 32.8468 64.5459 32.2652 64.8979 31.8978C65.2499 31.5458 65.8316 31.5458 66.1989 31.8978L70.9591 36.658C71.3112 37.0101 71.3112 37.5917 70.9591 37.9591C70.5918 38.3111 70.0102 38.3111 69.6581 37.9591Z" fill="white"/>
<path id="Vector_5" d="M104.342 37.9584C104.174 38.1268 103.929 38.2339 103.699 38.2339C103.194 38.2339 102.781 37.8206 102.781 37.3155C102.781 37.0706 102.873 36.841 103.057 36.6727L107.817 31.9125C108.169 31.5604 108.75 31.5604 109.118 31.9125C109.485 32.2645 109.47 32.8461 109.118 33.2135L104.342 37.9584Z" fill="white"/>
<path id="Vector_6" d="M101.143 41.0819C109.531 48.8881 109.99 62.0207 102.184 70.4085C101.816 70.8065 101.434 71.1891 101.036 71.5565C98.3572 74.0514 96.8419 77.5412 96.8419 81.1994V91.1024C96.8419 93.2912 95.0664 95.0667 92.8776 95.0667H87.9185V98.1126C87.9185 98.6178 87.5052 99.031 87.0001 99.031C86.495 99.031 86.0817 98.6178 86.0817 98.1126V95.0667H81.1225C78.9337 95.0667 77.1582 93.2912 77.1582 91.1024V81.184C77.1276 77.48 75.5817 73.9595 72.8572 71.4493C64.4694 63.6432 64.0102 50.5105 71.8164 42.1227C79.6225 33.735 92.7552 33.2758 101.143 41.0819ZM78.995 84.5055H89.2654C89.7705 84.5055 90.1838 84.9187 90.1838 85.4239C90.1838 85.929 89.7705 86.3422 89.2654 86.3422H78.995V88.8677H81.3215C81.8266 88.8677 82.2399 89.281 82.2399 89.7861C82.2399 90.2912 81.8266 90.7045 81.3215 90.7045H78.995V91.1024C78.995 92.281 79.944 93.23 81.1225 93.23H92.8776C94.0562 93.23 95.0052 92.281 95.0052 91.1024V90.7045H84.4746C83.9695 90.7045 83.5562 90.2912 83.5562 89.7861C83.5562 89.281 83.9695 88.8677 84.4746 88.8677H95.0052V86.3422H92.4185C91.9134 86.3422 91.5001 85.929 91.5001 85.4239C91.5001 84.9187 91.9134 84.5055 92.4185 84.5055H95.0052V82.1177H78.995V84.5055ZM74.1123 70.1024C76.9746 72.7504 78.7042 76.3932 78.9644 80.2657H82.2858V70.6075C82.2858 69.4901 81.3674 68.5718 80.2501 68.5718C78.1072 68.5718 76.3776 66.8422 76.3776 64.6993V64.133C74.3266 63.6279 73.0868 61.5616 73.5919 59.5105C74.097 57.4595 76.1633 56.2197 78.2144 56.7248C80.2654 57.2299 81.5052 59.2962 81.0001 61.3473C80.6633 62.7248 79.5919 63.7963 78.2144 64.133V64.6993C78.2144 65.8167 79.1327 66.735 80.2501 66.735C82.3929 66.735 84.1225 68.4646 84.1225 70.6075V80.2657H86.0052V54.8881C83.9542 54.383 82.7144 52.3013 83.2195 50.2656C83.7246 48.2299 85.8062 46.9748 87.8419 47.4799C89.8929 47.985 91.1327 50.0666 90.6276 52.1024C90.2909 53.4799 89.2195 54.5513 87.8419 54.8881V80.281H89.7246V70.6228C89.7246 68.4799 91.4542 66.7503 93.597 66.7503C94.7144 66.7503 95.6328 65.832 95.6328 64.7146V64.1483C94.9593 63.9799 94.347 63.6279 93.8572 63.1381C92.3572 61.6534 92.3572 59.235 93.8572 57.735C95.3419 56.235 97.7603 56.235 99.2603 57.735C100.76 59.2197 100.76 61.6381 99.2603 63.1381C98.7705 63.6279 98.1583 63.9799 97.4695 64.1483V64.7146C97.4695 66.8575 95.7399 68.5871 93.597 68.5871C92.4797 68.5871 91.5613 69.5055 91.5613 70.6228V80.281H95.0205C95.2501 76.4391 96.9491 72.8269 99.7807 70.2095C107.48 63.1381 107.985 51.184 100.929 43.485C97.347 39.5819 92.296 37.3625 87.0001 37.3625C86.9389 37.3625 86.8776 37.3625 86.8164 37.3625C76.3623 37.4544 67.9745 46.0105 68.0817 56.4493C68.1276 61.6228 70.3164 66.5667 74.1123 70.1024ZM78.6888 61.8677L78.7041 61.8524C79.4848 61.0718 79.4848 59.8167 78.7041 59.0513C77.9235 58.2707 76.6684 58.2707 75.9031 59.0513C75.1225 59.832 75.1225 61.0871 75.9031 61.8524C76.6684 62.6177 77.9082 62.633 78.6888 61.8677ZM88.3164 52.5922L88.3317 52.5768C89.1123 51.7962 89.1123 50.5411 88.3317 49.7758C87.5511 48.9952 86.296 48.9952 85.5307 49.7758C84.7654 50.5564 84.7501 51.8115 85.5307 52.5768C86.296 53.3575 87.5358 53.3575 88.3164 52.5922ZM97.9593 59.0513C97.1787 58.2707 95.9236 58.2707 95.1583 59.0513C94.3777 59.832 94.3777 61.0871 95.1583 61.8524C95.9389 62.6177 97.1787 62.6177 97.9593 61.8524C98.7399 61.0718 98.7399 59.8167 97.9593 59.0513Z" fill="white"/>
</g>
<line id="Line 6" x1="16" y1="121.5" x2="159" y2="121.5" stroke="#018FFF"/>
</g>
<defs>
<filter id="filter0_ddd" x="12" y="0" width="151" height="129" filterUnits="userSpaceOnUse" color-interpolation-filters="sRGB">
<feFlood flood-opacity="0" result="BackgroundImageFix"/>
<feColorMatrix in="SourceAlpha" type="matrix" values="0 0 0 0 0 0 0 0 0 0 0 0 0 0 0 0 0 0 127 0"/>
<feOffset dy="4"/>
<feGaussianBlur stdDeviation="2"/>
<feColorMatrix type="matrix" values="0 0 0 0 0 0 0 0 0 0 0 0 0 0 0 0 0 0 0.25 0"/>
<feBlend mode="normal" in2="BackgroundImageFix" result="effect1_dropShadow"/>
<feColorMatrix in="SourceAlpha" type="matrix" values="0 0 0 0 0 0 0 0 0 0 0 0 0 0 0 0 0 0 127 0"/>
<feOffset dy="4"/>
<feGaussianBlur stdDeviation="2"/>
<feColorMatrix type="matrix" values="0 0 0 0 0 0 0 0 0 0 0 0 0 0 0 0 0 0 0.25 0"/>
<feBlend mode="normal" in2="effect1_dropShadow" result="effect2_dropShadow"/>
<feColorMatrix in="SourceAlpha" type="matrix" values="0 0 0 0 0 0 0 0 0 0 0 0 0 0 0 0 0 0 127 0"/>
<feOffset dy="4"/>
<feGaussianBlur stdDeviation="2"/>
<feColorMatrix type="matrix" values="0 0 0 0 0 0 0 0 0 0 0 0 0 0 0 0 0 0 0.25 0"/>
<feBlend mode="normal" in2="effect2_dropShadow" result="effect3_dropShadow"/>
<feBlend mode="normal" in="SourceGraphic" in2="effect3_dropShadow" result="shape"/>
</filter>
</defs>
</svg>
