<svg width="1155" height="653" viewBox="0 0 1155 653" fill="none" xmlns="http://www.w3.org/2000/svg">
<g id="Group 748888">
<g id="Page 1">
<g id="Group 131">
<g id="Group 22">
<text id="Supply Chain &#38; Operations" transform="translate(13.0527 420.201) rotate(-89.1394)" fill="#626365" xml:space="preserve"   font-family="Graphik" font-size="14" font-weight="600" letter-spacing="0em"><tspan x="16.0697" y="12.008">Supply  Chain &#38; Operations&#13;&#10;</tspan></text>
<text id="Sourcing &#38; Procurement" transform="translate(16 523.512) rotate(-89.1394)" fill="#626365" xml:space="preserve"   font-family="Graphik" font-size="14" font-weight="600" letter-spacing="0em"><tspan x="5.07382" y="12.008">Sourcing &#38;&#13;&#10;</tspan><tspan x="1.75156" y="27.008">Procurement</tspan><tspan x="42.4117" y="42.008">&#13;</tspan></text>
<text id="Finance Transformation" transform="translate(14 639.883) rotate(-89.1394)" fill="#626365" xml:space="preserve"   font-family="Graphik" font-size="14" font-weight="600" letter-spacing="0em"><tspan x="25.7727" y="12.008">Finance&#13;&#10;</tspan><tspan x="0.589104" y="27.008">Transformation&#13;</tspan></text>
<path id="Fill-1" fill-rule="evenodd" clip-rule="evenodd" d="M60 445H172.02V517.61H60V445Z" fill="#A100FF"/>
<path id="Fill-2" fill-rule="evenodd" clip-rule="evenodd" d="M172 445H289.862V517.61H172V445Z" fill="#A100FF"/>
<path id="Fill-3" fill-rule="evenodd" clip-rule="evenodd" d="M290 445H398.218V517.61H290V445Z" fill="#A100FF"/>
<path id="Fill-4" fill-rule="evenodd" clip-rule="evenodd" d="M398 445H509.028V517.61H398V445Z" fill="#460073"/>
<path id="Fill-5" fill-rule="evenodd" clip-rule="evenodd" d="M509 445H625.65V517.61H509V445Z" fill="#460073"/>
<path id="Fill-6" fill-rule="evenodd" clip-rule="evenodd" d="M626 445H741.245V517.61H626V445Z" fill="#460073"/>
<path id="Fill-7" fill-rule="evenodd" clip-rule="evenodd" d="M741 445H830.947V517.61H741V445Z" fill="#460073"/>
<path id="Fill-8" fill-rule="evenodd" clip-rule="evenodd" d="M831 445H1034.79V517.61H831V445Z" fill="#460073"/>
<path id="Fill-9" fill-rule="evenodd" clip-rule="evenodd" d="M1035 445H1127.76V517.61H1035V445Z" fill="#460073"/>
<path id="Stroke-10" d="M171.715 441.231V521.103" stroke="white" stroke-width="2" stroke-linejoin="round"/>
<path id="Stroke-11" d="M289.578 441.231V521.103" stroke="white" stroke-width="2" stroke-linejoin="round"/>
<path id="Stroke-12" d="M397.795 441.231V521.103" stroke="white" stroke-width="2" stroke-linejoin="round"/>
<path id="Stroke-13" d="M508.824 441.231V521.103" stroke="white" stroke-width="2" stroke-linejoin="round"/>
<path id="Stroke-14" d="M625.473 441.231V521.103" stroke="white" stroke-width="2" stroke-linejoin="round"/>
<path id="Stroke-15" d="M740.719 441.231V521.103" stroke="white" stroke-width="2" stroke-linejoin="round"/>
<path id="Stroke-16" d="M830.665 441.231V521.103" stroke="white" stroke-width="2" stroke-linejoin="round"/>
<path id="Stroke-17" d="M1034.45 441.231V521.103" stroke="white" stroke-width="2" stroke-linejoin="round"/>
<path id="Stroke-18" d="M58.6953 369.231V449.103" stroke="white" stroke-width="2" stroke-linejoin="round"/>
<path id="Stroke-19" d="M1126.21 369.231V449.103" stroke="white" stroke-width="2" stroke-linejoin="round"/>
<path id="Stroke-20" d="M55.0645 372.862H1129.84" stroke="white" stroke-width="2" stroke-linejoin="round"/>
<path id="Stroke-21" d="M55.0645 445.473H1129.84" stroke="white" stroke-width="2" stroke-linejoin="round"/>
<text id="Purchase Requisition/ Purchase Orders" fill="white" xml:space="preserve"   font-family="Graphik" font-size="12" font-weight="600" letter-spacing="0em"><tspan x="89.0938" y="465.363">Purchase </tspan><tspan x="83.3457" y="478.363">Requisition</tspan><tspan x="85.2266" y="491.363">/ Purchase </tspan><tspan x="95.8965" y="504.363">Orders </tspan></text>
<text id="Subcontracting" fill="white" xml:space="preserve"   font-family="Graphik" font-size="12" font-weight="600" letter-spacing="0em"><tspan x="182" y="484.364">Subcontracting</tspan></text>
</g>
<text id="Contract Flow Down" fill="white" xml:space="preserve"   font-family="Graphik" font-size="12" font-weight="600" letter-spacing="0em"><tspan x="303.365" y="478.364">Contract Flow </tspan><tspan x="327.389" y="491.364">Down </tspan></text>
<g id="Group-72">
<text id="Vendor Invoicing" fill="white" xml:space="preserve"   font-family="Graphik" font-size="12" font-weight="600" letter-spacing="0em"><tspan x="432.5" y="479.364">Vendor </tspan><tspan x="426.588" y="492.364">Invoicing</tspan></text>
<text id="Procurement Analytics" fill="white" xml:space="preserve"   font-family="Graphik" font-size="12" font-weight="600" letter-spacing="0em"><tspan x="529.578" y="478.364">Procurement </tspan><tspan x="540.5" y="491.364">Analytics </tspan></text>
<text id="Outline Agreements" fill="white" xml:space="preserve"   font-family="Graphik" font-size="12" font-weight="600" letter-spacing="0em"><tspan x="661.584" y="479.364">Outline  </tspan><tspan x="647.404" y="492.364">Agreements</tspan></text>
<text id="Vendor Progress Payments" fill="white" xml:space="preserve"   font-family="Graphik" font-size="12" font-weight="600" letter-spacing="0em"><tspan x="764.5" y="474.364">Vendor </tspan><tspan x="759.865" y="487.364">Progress&#10;</tspan><tspan x="757.076" y="500.364">Payments </tspan></text>
<text id="Direct/Indirect Procurement (enabled through Ariba)" fill="white" xml:space="preserve"   font-family="Graphik" font-size="12" font-weight="600" letter-spacing="0em"><tspan x="850.223" y="480.364">Direct/Indirect Procurement </tspan><tspan x="863.447" y="493.364">(enabled through Ariba)</tspan></text>
<text id="Supplier Mgmt" fill="white" xml:space="preserve"   font-family="Graphik" font-size="12" font-weight="600" letter-spacing="0em"><tspan x="1056.03" y="478.364">Supplier </tspan><tspan x="1063.42" y="491.364">Mgmt </tspan></text>
<path id="Stroke-31" d="M177.402 92V182.972" stroke="white" stroke-width="2" stroke-linejoin="round"/>
<path id="Stroke-33" d="M414.818 92V182.972" stroke="white" stroke-width="2" stroke-linejoin="round"/>
<path id="Stroke-34" d="M531.156 92V182.972" stroke="white" stroke-width="2" stroke-linejoin="round"/>
<path id="Stroke-35" d="M652.235 92V182.972" stroke="white" stroke-width="2" stroke-linejoin="round"/>
<path id="Stroke-36" d="M770.943 92V182.972" stroke="white" stroke-width="2" stroke-linejoin="round"/>
<path id="Stroke-37" d="M58.6953 92V182.972" stroke="white" stroke-width="2" stroke-linejoin="round"/>
<path id="Stroke-38" d="M889.651 92V182.972" stroke="white" stroke-width="2" stroke-linejoin="round"/>
<path id="Stroke-39" d="M55.0645 95.6309H893.282" stroke="white" stroke-width="2" stroke-linejoin="round"/>
<path id="Stroke-40" d="M55.0645 179.342H893.282" stroke="white" stroke-width="2" stroke-linejoin="round"/>
<path id="Fill-41" fill-rule="evenodd" clip-rule="evenodd" d="M59 528H162.881V588.212H59V528Z" fill="#460073"/>
<path id="Fill-42" fill-rule="evenodd" clip-rule="evenodd" d="M163 528H250.319V588.212H163V528Z" fill="#460073"/>
<path id="Fill-43" fill-rule="evenodd" clip-rule="evenodd" d="M250 528H349.578V588.212H250V528Z" fill="#460073"/>
<path id="Fill-44" fill-rule="evenodd" clip-rule="evenodd" d="M349 529H428.32V589.212H349V529Z" fill="#460073"/>
<path id="Fill-45" fill-rule="evenodd" clip-rule="evenodd" d="M428 528H516.441V588.212H428V528Z" fill="#A100FF"/>
<path id="Fill-46" fill-rule="evenodd" clip-rule="evenodd" d="M516 528H614.756V588.212H516V528Z" fill="#460073"/>
<path id="Fill-47" fill-rule="evenodd" clip-rule="evenodd" d="M615 528H693.125V588.212H615V528Z" fill="#460073"/>
<path id="Fill-48" fill-rule="evenodd" clip-rule="evenodd" d="M693 528H827.259V588.212H693V528Z" fill="#A100FF"/>
<path id="Fill-49" fill-rule="evenodd" clip-rule="evenodd" d="M827 528H925.772V588.212H827V528Z" fill="#460073"/>
<path id="Fill-50" fill-rule="evenodd" clip-rule="evenodd" d="M59 588H162.881V648.212H59V588Z" fill="#460073"/>
<path id="Fill-51" fill-rule="evenodd" clip-rule="evenodd" d="M163 588H250.319V648.212H163V588Z" fill="#460073"/>
<path id="Fill-52" fill-rule="evenodd" clip-rule="evenodd" d="M250 588H349.578V648.212H250V588Z" fill="#A100FF"/>
<path id="Fill-53" fill-rule="evenodd" clip-rule="evenodd" d="M350 588H429.32V648.212H350V588Z" fill="#460073"/>
<path id="Fill-54" fill-rule="evenodd" clip-rule="evenodd" d="M429 588H517.441V648.212H429V588Z" fill="#460073"/>
<path id="Fill-55" fill-rule="evenodd" clip-rule="evenodd" d="M517 588H615.756V648.212H517V588Z" fill="#460073"/>
<path id="Fill-56" fill-rule="evenodd" clip-rule="evenodd" d="M616 588H694.125V648.212H616V588Z" fill="#460073"/>
<path id="Fill-57" fill-rule="evenodd" clip-rule="evenodd" d="M694 588H828.259V648.212H694V588Z" fill="#460073"/>
<path id="Stroke-59" d="M162.576 525.056V652.742" stroke="white" stroke-width="2" stroke-linejoin="round"/>
<path id="Stroke-60" d="M249.895 524.056V651.742" stroke="white" stroke-width="2" stroke-linejoin="round"/>
<path id="Stroke-61" d="M349.473 524.056V651.742" stroke="white" stroke-width="2" stroke-linejoin="round"/>
<path id="Stroke-62" d="M428.793 524.056V651.742" stroke="white" stroke-width="2" stroke-linejoin="round"/>
<path id="Stroke-63" d="M517.234 524.056V651.742" stroke="white" stroke-width="2" stroke-linejoin="round"/>
<path id="Stroke-64" d="M615.99 524.056V651.742" stroke="white" stroke-width="2" stroke-linejoin="round"/>
<path id="Stroke-65" d="M694.115 524.056V651.742" stroke="white" stroke-width="2" stroke-linejoin="round"/>
<path id="Stroke-66" d="M828.375 524.056V651.742" stroke="white" stroke-width="2" stroke-linejoin="round"/>
<path id="Stroke-67" d="M55.0645 527.899H930.777" stroke="white" stroke-width="2" stroke-linejoin="round"/>
<path id="Stroke-68" d="M58.6953 464.056V591.742" stroke="white" stroke-width="2" stroke-linejoin="round"/>
<path id="Stroke-70" d="M55.0645 527.687H930.777" stroke="white" stroke-width="2" stroke-linejoin="round"/>
<path id="Stroke-71" d="M55.0645 588.111H930.777" stroke="white" stroke-width="2" stroke-linejoin="round"/>
<text id="General Ledger" fill="white" xml:space="preserve"   font-family="Graphik" font-size="12" font-weight="600" letter-spacing="0em"><tspan x="88.1191" y="555.364">General </tspan><tspan x="90.5684" y="568.364">Ledger </tspan></text>
<text id="Accounts Payable" fill="white" xml:space="preserve"   font-family="Graphik" font-size="12" font-weight="600" letter-spacing="0em"><tspan x="178.967" y="556.364">Accounts&#10;</tspan><tspan x="183.807" y="569.364">Payable</tspan></text>
<text id="Accounts Receivable" fill="white" xml:space="preserve"   font-family="Graphik" font-size="12" font-weight="600" letter-spacing="0em"><tspan x="272.467" y="555.364">Accounts </tspan><tspan x="268.131" y="568.364">Receivable</tspan></text>
<text id="Tax Mgmt" fill="white" xml:space="preserve"   font-family="Graphik" font-size="12" font-weight="600" letter-spacing="0em"><tspan x="360.431" y="562.364">Tax Mgmt</tspan></text>
<text id="Resource Related Billing" fill="white" xml:space="preserve"   font-family="Graphik" font-size="12" font-weight="600" letter-spacing="0em"><tspan x="445.266" y="549.364">Resource </tspan><tspan x="450.393" y="562.364">Related </tspan><tspan x="451.23" y="575.364">Billing&#13;</tspan></text>
</g>
<text id="Fixed Assets Accounting" fill="white" xml:space="preserve"   font-family="Graphik" font-size="12" font-weight="600" letter-spacing="0em"><tspan x="530.424" y="555.364">Fixed Assets </tspan><tspan x="532.814" y="568.364">Accounting </tspan></text>
<g id="Group-74">
<text id="Time Keeping" fill="white" xml:space="preserve"   font-family="Graphik" font-size="12" font-weight="600" letter-spacing="0em"><tspan x="640.732" y="556.364">Time </tspan><tspan x="631.07" y="569.364">Keeping </tspan></text>
</g>
<text id="Grouping Pegging &#38; Distribution" fill="white" xml:space="preserve"   font-family="Graphik" font-size="12" font-weight="600" letter-spacing="0em"><tspan x="708.695" y="556.364">Grouping Pegging </tspan><tspan x="721.475" y="569.364">&#38; Distribution </tspan></text>
<g id="Group-76">
<text id="Analytics &#38; Reporting" fill="white" xml:space="preserve"   font-family="Graphik" font-size="12" font-weight="600" letter-spacing="0em"><tspan x="845.264" y="555.364">Analytics &#38; </tspan><tspan x="849.107" y="568.364">Reporting </tspan></text>
<text id="Revenue Recognition" fill="white" xml:space="preserve"   font-family="Graphik" font-size="12" font-weight="600" letter-spacing="0em"><tspan x="85.4629" y="615.364">Revenue </tspan><tspan x="75.3672" y="628.364">Recognition </tspan></text>
<text id="MFG Finance" fill="white" xml:space="preserve"   font-family="Graphik" font-size="12" font-weight="600" letter-spacing="0em"><tspan x="192.506" y="616.364">MFG  </tspan><tspan x="183.207" y="629.364">Finance</tspan></text>
<text id="Costing (pools)" fill="white" xml:space="preserve"   font-family="Graphik" font-size="12" font-weight="600" letter-spacing="0em"><tspan x="277.348" y="615.364">Costing </tspan><tspan x="280.008" y="628.364">(pools) </tspan></text>
<text id="Project Systems" fill="white" xml:space="preserve"   font-family="Graphik" font-size="12" font-weight="600" letter-spacing="0em"><tspan x="368.211" y="615.364">Project </tspan><tspan x="364.473" y="628.364">Systems</tspan></text>
<text id="IOT Accounting" fill="white" xml:space="preserve"   font-family="Graphik" font-size="12" font-weight="600" letter-spacing="0em"><tspan x="462.752" y="615.364">IOT  </tspan><tspan x="439.314" y="628.364">Accounting</tspan></text>
<text id="Payroll" fill="white" xml:space="preserve"   font-family="Graphik" font-size="12" font-weight="600" letter-spacing="0em"><tspan x="545" y="621.364">Payroll</tspan></text>
</g>
<text id="Financial Planning" fill="white" xml:space="preserve"   font-family="Graphik" font-size="12" font-weight="600" letter-spacing="0em"><tspan x="628.973" y="617.364">Financial </tspan><tspan x="629.6" y="630.364">Planning </tspan></text>
<g id="Group-115">
<text id="Consolidation" fill="white" xml:space="preserve"   font-family="Graphik" font-size="12" font-weight="600" letter-spacing="0em"><tspan x="718" y="621.364">Consolidation</tspan></text>
<path id="Fill-78" fill-rule="evenodd" clip-rule="evenodd" d="M59 189H174.378V274.906H59V189Z" fill="#460073"/>
<path id="Fill-79" fill-rule="evenodd" clip-rule="evenodd" d="M174 189H276.922V274.906H174V189Z" fill="#460073"/>
<path id="Fill-78_2" fill-rule="evenodd" clip-rule="evenodd" d="M59 349H174V432H59V349Z" fill="#460073"/>
<path id="Fill-79_2" fill-rule="evenodd" clip-rule="evenodd" d="M174 349H277V432H174V349Z" fill="#460073"/>
<path id="Fill-80" fill-rule="evenodd" clip-rule="evenodd" d="M277 189H373.858V274.906H277V189Z" fill="#460073"/>
<path id="Fill-81" fill-rule="evenodd" clip-rule="evenodd" d="M374 189H489.651V274.906H374V189Z" fill="#A100FF"/>
<path id="Fill-82" fill-rule="evenodd" clip-rule="evenodd" d="M490 189H583.967V274.906H490V189Z" fill="#460073"/>
<path id="Fill-83" fill-rule="evenodd" clip-rule="evenodd" d="M583 189H680.966V274.906H583V189Z" fill="#460073"/>
<path id="Fill-84" fill-rule="evenodd" clip-rule="evenodd" d="M681.437 188.578H769.385V274.485H681.437V188.578Z" fill="#460073"/>
<path id="Fill-85" fill-rule="evenodd" clip-rule="evenodd" d="M769 189H856V272H769V189Z" fill="#A100FF"/>
<path id="Fill-86" fill-rule="evenodd" clip-rule="evenodd" d="M856 189H968.172V274.906H856V189Z" fill="#460073"/>
<path id="Fill-87" fill-rule="evenodd" clip-rule="evenodd" d="M968 189H1062.16V274.906H968V189Z" fill="#A100FF"/>
<path id="Fill-88" fill-rule="evenodd" clip-rule="evenodd" d="M1062 189H1150.54V274.906H1062V189Z" fill="#A100FF"/>
<path id="Fill-89" fill-rule="evenodd" clip-rule="evenodd" d="M59 274H174.378V347.964H59V274Z" fill="#A100FF"/>
<path id="Fill-90" fill-rule="evenodd" clip-rule="evenodd" d="M174 274H276.922V347.964H174V274Z" fill="#A100FF"/>
<path id="Fill-89_2" fill-rule="evenodd" clip-rule="evenodd" d="M276 350H374V432H276V350Z" fill="#A100FF"/>
<path id="Fill-90_2" fill-rule="evenodd" clip-rule="evenodd" d="M375 350H489V432H375V350Z" fill="#A100FF"/>
<path id="Fill-91" fill-rule="evenodd" clip-rule="evenodd" d="M277 274H373.858V347.964H277V274Z" fill="#A100FF"/>
<path id="Fill-92" fill-rule="evenodd" clip-rule="evenodd" d="M374 274H489.651V347.964H374V274Z" fill="#460073"/>
<path id="Fill-93" fill-rule="evenodd" clip-rule="evenodd" d="M490 274H583.967V347.964H490V274Z" fill="#460073"/>
<path id="Fill-94" fill-rule="evenodd" clip-rule="evenodd" d="M583 274H680.966V347.964H583V274Z" fill="#460073"/>
<path id="Fill-95" fill-rule="evenodd" clip-rule="evenodd" d="M681 274H768.949V347.964H681V274Z" fill="#460073"/>
<path id="Fill-96" fill-rule="evenodd" clip-rule="evenodd" d="M769 274H855.456V347.964H769V274Z" fill="#460073"/>
<path id="Fill-97" fill-rule="evenodd" clip-rule="evenodd" d="M856 274H968.172V347.964H856V274Z" fill="#460073"/>
<path id="Fill-98" fill-rule="evenodd" clip-rule="evenodd" d="M968 274H1062.16V347.964H968V274Z" fill="#460073"/>
<path id="Fill-98_2" fill-rule="evenodd" clip-rule="evenodd" d="M1057 274H1151.16V347.964H1057V274Z" fill="#460073"/>
<text id="Engineering Change Mgmt enabled by PEO" fill="white" xml:space="preserve"   font-family="Graphik" font-size="12" font-weight="600" letter-spacing="0em"><tspan x="1069.36" y="291.364">Engineering </tspan><tspan x="1081.91" y="304.364">Change </tspan><tspan x="1087.42" y="317.364">Mgmt </tspan><tspan x="1072.59" y="330.364">enabled by </tspan><tspan x="1092.34" y="343.364">PEO </tspan></text>
<path id="Stroke-100" d="M174.074 190.947L173.978 441" stroke="white" stroke-width="2" stroke-linejoin="round"/>
<path id="Stroke-101" d="M276.996 190.947L277.001 441" stroke="white" stroke-width="2" stroke-linejoin="round"/>
<path id="Stroke-102" d="M373.854 190.947L375 441" stroke="white" stroke-width="2" stroke-linejoin="round"/>
<path id="Stroke-103" d="M489.504 190.947V358.079" stroke="white" stroke-width="2" stroke-linejoin="round"/>
<path id="Stroke-104" d="M583.471 190.947V358.079" stroke="white" stroke-width="2" stroke-linejoin="round"/>
<path id="Stroke-105" d="M681.437 190.947V358.079" stroke="white" stroke-width="2" stroke-linejoin="round"/>
<path id="Stroke-106" d="M769.385 190.947V358.079" stroke="white" stroke-width="2" stroke-linejoin="round"/>
<path id="Stroke-107" d="M855.841 190.947V358.079" stroke="white" stroke-width="2" stroke-linejoin="round"/>
<path id="Stroke-108" d="M968.013 190.947V358.079" stroke="white" stroke-width="2" stroke-linejoin="round"/>
<path id="Stroke-109" d="M1062.18 190.947V358.079" stroke="white" stroke-width="2" stroke-linejoin="round"/>
<path id="Stroke-110" d="M55.0645 274.484H1154.35" stroke="white" stroke-width="2" stroke-linejoin="round"/>
<path id="Stroke-112" d="M1150.72 190.947V358.079" stroke="white" stroke-width="2" stroke-linejoin="round"/>
<path id="Stroke-113" d="M55.0645 189.578H1154.35" stroke="white" stroke-width="2" stroke-linejoin="round"/>
<path id="Stroke-114" d="M54.0645 348.448H1153.35" stroke="white" stroke-width="2" stroke-linejoin="round"/>
<text id="PP-Material Data/ BOMs" fill="white" xml:space="preserve"   font-family="Graphik" font-size="12" font-weight="600" letter-spacing="0em"><tspan x="82.3613" y="229.364">PP-Material </tspan><tspan x="81.3828" y="242.364">Data/ BOMs </tspan></text>
<text id="Engineering Change Number" fill="white" xml:space="preserve"   font-family="Graphik" font-size="12" font-weight="600" letter-spacing="0em"><tspan x="190.355" y="225.364">Engineering </tspan><tspan x="202.906" y="238.364">Change  </tspan><tspan x="201.975" y="251.364">Number </tspan></text>
<text id="Material Requirement Planning" fill="white" xml:space="preserve"   font-family="Graphik" font-size="12" font-weight="600" letter-spacing="0em"><tspan x="303.182" y="224.364">Material </tspan><tspan x="289.453" y="237.364">Requirement </tspan><tspan x="301.6" y="250.364">Planning</tspan></text>
</g>
<g id="Group-117">
<text id="Manufacturing Planning and Scheduling" fill="white" xml:space="preserve"   font-family="Graphik" font-size="12" font-weight="600" letter-spacing="0em"><tspan x="389.203" y="224.364">Manufacturing </tspan><tspan x="394.371" y="237.364">Planning and </tspan><tspan x="399.111" y="250.364">Scheduling</tspan></text>
<text id="Network/ Project Scheduling" fill="white" xml:space="preserve"   font-family="Graphik" font-size="12" font-weight="600" letter-spacing="0em"><tspan x="511.812" y="224.364">Network/ </tspan><tspan x="518.211" y="237.364">Project  </tspan><tspan x="506.111" y="250.364">Scheduling </tspan></text>
<text id="Make To Stock (MTS)" fill="white" xml:space="preserve"   font-family="Graphik" font-size="12" font-weight="600" letter-spacing="0em"><tspan x="608.322" y="224.364">Make To </tspan><tspan x="615.406" y="237.364">Stock </tspan><tspan x="615.061" y="250.364">(MTS)</tspan></text>
<text id="Make To Order (MTO)" fill="white" xml:space="preserve"   font-family="Graphik" font-size="12" font-weight="600" letter-spacing="0em"><tspan x="700.822" y="222.364">Make To </tspan><tspan x="707.408" y="235.364">Order </tspan><tspan x="706.623" y="248.364">(MTO) </tspan></text>
<text id="Engineer To Order (ETO)" fill="white" xml:space="preserve"   font-family="Graphik" font-size="12" font-weight="600" letter-spacing="0em"><tspan x="786.049" y="223.364">Engineer </tspan><tspan x="786.752" y="236.364">To Order </tspan><tspan x="796.021" y="249.364">(ETO) </tspan></text>
<text id="Batch Mgmt" fill="white" xml:space="preserve"   font-family="Graphik" font-size="12" font-weight="600" letter-spacing="0em"><tspan x="875" y="236.364">Batch Mgmt  </tspan></text>
<text id="Grouping Pegging &#38; Distribution_2" fill="white" xml:space="preserve"   font-family="Graphik" font-size="12" font-weight="600" letter-spacing="0em"><tspan x="988.037" y="223.364">Grouping </tspan><tspan x="985.752" y="237.364">Pegging &#38;&#10;</tspan><tspan x="981.211" y="252.364">Distribution  </tspan></text>
<text id="Serial Number/ Hierarchy/ IUID" fill="white" xml:space="preserve"   font-family="Graphik" font-size="12" font-weight="600" letter-spacing="0em"><tspan x="1092.43" y="223.364">Serial </tspan><tspan x="1083.24" y="236.364">Number/ </tspan><tspan x="1078.31" y="249.364">Hierarchy/ </tspan><tspan x="1096.31" y="262.364">IUID</tspan></text>
<text id="Variant Configuration" fill="white" xml:space="preserve"   font-family="Graphik" font-size="12" font-weight="600" letter-spacing="0em"><tspan x="95.2227" y="308.364">Variant </tspan><tspan x="75.6641" y="321.364">Configuration </tspan></text>
<text id="Model Unit Effectivity" fill="white" xml:space="preserve"   font-family="Graphik" font-size="12" font-weight="600" letter-spacing="0em"><tspan x="194.465" y="309.364">Model Unit </tspan><tspan x="196.738" y="322.364">Effectivity </tspan></text>
<text id="Split Valuation" fill="white" xml:space="preserve"   font-family="Graphik" font-size="12" font-weight="600" letter-spacing="0em"><tspan x="312.211" y="309.364">Split </tspan><tspan x="298.125" y="322.364">Valuation </tspan></text>
<text id="Plant Maintenance" fill="white" xml:space="preserve"   font-family="Graphik" font-size="12" font-weight="600" letter-spacing="0em"><tspan x="417.223" y="308.364">Plant  </tspan><tspan x="394.254" y="321.364">Maintenance</tspan></text>
<text id="Bill of Material Mgmt enabled by PEO" fill="white" xml:space="preserve"   font-family="Graphik" font-size="12" font-weight="600" letter-spacing="0em"><tspan x="74.5918" y="380.364">Bill of Material </tspan><tspan x="74.1465" y="393.364">Mgmt enabled </tspan><tspan x="92.2988" y="406.364">by PEO&#13;&#10;</tspan></text>
<text id="Shop Floor Routing Mgmt enabled by PEO" fill="white" xml:space="preserve"   font-family="Graphik" font-size="12" font-weight="600" letter-spacing="0em"><tspan x="193.688" y="375.364">Shop Floor </tspan><tspan x="183.85" y="390.364">Routing Mgmt </tspan><tspan x="193.09" y="404.364">enabled by </tspan><tspan x="212.836" y="418.364">PEO</tspan></text>
<text id="Order Execution enabled by PEO" fill="white" xml:space="preserve"   font-family="Graphik" font-size="12" font-weight="600" letter-spacing="0em"><tspan x="307.408" y="375.364">Order </tspan><tspan x="295.695" y="388.364">Execution </tspan><tspan x="292.59" y="401.364">enabled by </tspan><tspan x="309.266" y="414.364">PEO&#13;&#10;</tspan></text>
<text id="Sales and Operations Planning enabled by IBP" fill="white" xml:space="preserve"   font-family="Graphik" font-size="12" font-weight="600" letter-spacing="0em"><tspan x="404.303" y="375.364">Sales and </tspan><tspan x="399.627" y="388.364">Operations </tspan><tspan x="381.826" y="401.364">Planning enabled </tspan><tspan x="410.801" y="414.364">by IBP&#13;&#10;</tspan></text>
<text id="Quality Mgmt" fill="white" xml:space="preserve"   font-family="Graphik" font-size="12" font-weight="600" letter-spacing="0em"><tspan x="515.506" y="308.364">Quality </tspan><tspan x="519.42" y="321.364">Mgmt</tspan></text>
<text id="Warehouse Mgmt (EWM)" fill="white" xml:space="preserve"   font-family="Graphik" font-size="12" font-weight="600" letter-spacing="0em"><tspan x="599.516" y="306.364">Warehouse </tspan><tspan x="594.617" y="319.364">Mgmt (EWM)</tspan></text>
<text id="Receiving" fill="white" xml:space="preserve"   font-family="Graphik" font-size="12" font-weight="600" letter-spacing="0em"><tspan x="697.121" y="314.364">Receiving</tspan></text>
<text id="Inventory Mgmt" fill="white" xml:space="preserve"   font-family="Graphik" font-size="12" font-weight="600" letter-spacing="0em"><tspan x="784.574" y="311.364">Inventory </tspan><tspan x="795.42" y="324.364">Mgmt </tspan></text>
</g>
<text id="Transportation Mgmt" fill="white" xml:space="preserve"   font-family="Graphik" font-size="12" font-weight="600" letter-spacing="0em"><tspan x="869.127" y="306.364">Transportation </tspan><tspan x="894.92" y="319.364">Mgmt</tspan></text>
<text id="Distribution Mgmt" fill="white" xml:space="preserve"   font-family="Graphik" font-size="12" font-weight="600" letter-spacing="0em"><tspan x="981.211" y="307.364">Distribution  </tspan><tspan x="998.42" y="320.364">Mgmt </tspan></text>
<g id="Group-130">
<path id="Stroke-121" fill-rule="evenodd" clip-rule="evenodd" d="M375 189H490V275H375V189Z" stroke="black" stroke-width="2" stroke-linejoin="round" stroke-dasharray="5 5"/>
<text id="Cross Industry Best Practice" fill="black" xml:space="preserve"   font-family="Graphik" font-size="12" letter-spacing="0em"><tspan x="966" y="575.714">Cross Industry Best Practice</tspan></text>
<path id="Fill-123" fill-rule="evenodd" clip-rule="evenodd" d="M941.369 564.239H955.892V578.762H941.369V564.239Z" fill="#460073"/>
<text id="A&#38;D Unique Functionality" fill="black" xml:space="preserve"   font-family="Graphik" font-size="12" letter-spacing="0em"><tspan x="966" y="607.316">A&#38;D Unique Functionality</tspan></text>
<path id="Fill-124" fill-rule="evenodd" clip-rule="evenodd" d="M941.369 597H955.892V611.523H941.369V597Z" fill="#A100FF"/>
<text id="A&#38;D Roadmap" fill="black" xml:space="preserve"   font-family="Graphik" font-size="12" letter-spacing="0em"><tspan x="966" y="638.594">A&#38;D Roadmap</tspan></text>
<path id="Fill-125" fill-rule="evenodd" clip-rule="evenodd" d="M942 627H956.523V641.523H942V627Z" fill="#A100FF"/>
<path id="Stroke-126" fill-rule="evenodd" clip-rule="evenodd" d="M941 627H957V642H941V627Z" stroke="black" stroke-width="2" stroke-linejoin="round" stroke-dasharray="3 3"/>
<path id="Stroke-128" fill-rule="evenodd" clip-rule="evenodd" d="M248.832 587.628H349.281V648.139H248.832V587.628Z" stroke="black" stroke-width="2" stroke-linejoin="round" stroke-dasharray="5 5"/>
</g>
</g>
</g>
<g id="Group 747">
<text id="Sales &#38; Customer Service" transform="translate(0 83.5098) rotate(-89.1394)" fill="#626365" xml:space="preserve"   font-family="Graphik" font-size="14" font-weight="600" letter-spacing="0em"><tspan x="17.0202" y="12.008">Sales &#38; </tspan><tspan x="3.20472" y="27.008">Customer &#13;&#10;</tspan><tspan x="12.5631" y="42.008">Service&#13;&#10;</tspan></text>
<text id="Maintenance &#38; Repairs" transform="translate(11.7207 193.119) rotate(-89.2138)" fill="#626365" xml:space="preserve"   font-family="Graphik" font-size="14" font-weight="600" letter-spacing="0em"><tspan x="5.06087" y="12.008">Maintenance  </tspan><tspan x="16.9759" y="27.008">&#38; Repairs</tspan></text>
<path id="Fill-24" fill-rule="evenodd" clip-rule="evenodd" d="M59 4H174V88H59V4Z" fill="#460073"/>
<path id="Fill-25" fill-rule="evenodd" clip-rule="evenodd" d="M176 4H290V88H176V4Z" fill="#A100FF"/>
<path id="Fill-25_2" fill-rule="evenodd" clip-rule="evenodd" d="M59 97H174V181H59V97Z" fill="#A100FF"/>
<path id="Fill-26" fill-rule="evenodd" clip-rule="evenodd" d="M292 4H406V88H292V4Z" fill="#A100FF"/>
<path id="Fill-26_2" fill-rule="evenodd" clip-rule="evenodd" d="M177 97H279V181H177V97Z" fill="#A100FF"/>
<path id="Fill-27" fill-rule="evenodd" clip-rule="evenodd" d="M408 4H520V88H408V4Z" fill="#460073"/>
<path id="Fill-28" fill-rule="evenodd" clip-rule="evenodd" d="M522 4H637V88H522V4Z" fill="#460073"/>
<path id="Fill-29" fill-rule="evenodd" clip-rule="evenodd" d="M639 4H753V88H639V4Z" fill="#A100FF"/>
<text id="Sales Contract" fill="white" xml:space="preserve"   font-family="Graphik" font-size="12" font-weight="600" letter-spacing="0em"><tspan x="76" y="48.364">Sales Contract</tspan></text>
<text id="Government Contracts" fill="white" xml:space="preserve"   font-family="Graphik" font-size="12" font-weight="600" letter-spacing="0em"><tspan x="196.277" y="44.364">Government&#10;</tspan><tspan x="203.807" y="57.364">Contracts </tspan></text>
<text id="Component Repair w/ GPD" fill="white" xml:space="preserve"   font-family="Graphik" font-size="12" font-weight="600" letter-spacing="0em"><tspan x="82.0938" y="137.364">Component </tspan><tspan x="75.0391" y="150.364">Repair w/ GPD</tspan></text>
<text id="Component Repair w/o GPD" fill="white" xml:space="preserve"   font-family="Graphik" font-size="12" font-weight="600" letter-spacing="0em"><tspan x="193.594" y="135.364">Component </tspan><tspan x="183.293" y="148.364">Repair w/o GPD</tspan></text>
<text id="Contract Flow Down_2" fill="white" xml:space="preserve"   font-family="Graphik" font-size="12" font-weight="600" letter-spacing="0em"><tspan x="308.365" y="44.364">Contract Flow&#10;</tspan><tspan x="332.389" y="57.364">Down </tspan></text>
<text id="Sales Order" fill="white" xml:space="preserve"   font-family="Graphik" font-size="12" font-weight="600" letter-spacing="0em"><tspan x="430" y="48.364">Sales Order</tspan></text>
<text id="Delivery Processing" fill="white" xml:space="preserve"   font-family="Graphik" font-size="12" font-weight="600" letter-spacing="0em"><tspan x="555.564" y="43.364">Delivery&#10;</tspan><tspan x="547.414" y="56.364">Processing </tspan></text>
<text id="Milestone Billing" fill="white" xml:space="preserve"   font-family="Graphik" font-size="12" font-weight="600" letter-spacing="0em"><tspan x="667.43" y="43.364">Milestone </tspan><tspan x="677.801" y="56.364">Billing</tspan></text>
</g>
</g>
</svg>
