<?xml version="1.0" encoding="UTF-8"?>
<svg width="1105px" height="607px" viewBox="0 0 1105 607" version="1.1" xmlns="http://www.w3.org/2000/svg" xmlns:xlink="http://www.w3.org/1999/xlink">
    <!-- Generator: Sketch 58 (84663) - https://sketch.com -->
    <title>Image</title>
    <desc>Created with Sketch.</desc>
    <defs>
        <rect id="path-1" x="0" y="0" width="836" height="399" rx="8"></rect>
        <filter x="-1.3%" y="-2.6%" width="102.5%" height="105.3%" filterUnits="objectBoundingBox" id="filter-2">
            <feMorphology radius="0.5" operator="dilate" in="SourceAlpha" result="shadowSpreadOuter1"></feMorphology>
            <feOffset dx="0" dy="0" in="shadowSpreadOuter1" result="shadowOffsetOuter1"></feOffset>
            <feGaussianBlur stdDeviation="3" in="shadowOffsetOuter1" result="shadowBlurOuter1"></feGaussianBlur>
            <feColorMatrix values="0 0 0 0 0   0 0 0 0 0   0 0 0 0 0  0 0 0 0.177502185 0" type="matrix" in="shadowBlurOuter1"></feColorMatrix>
        </filter>
    </defs>
    <g id="Page-1" stroke="none" stroke-width="1" fill="none" fill-rule="evenodd">
        <g id="Change-management-Reworked---1" transform="translate(-162.000000, -167.000000)">
            <g id="Image" transform="translate(162.000000, 165.000000)">
                <g id="Central-Image" transform="translate(140.000000, 116.000000)">
                    <g id="Rectangle">
                        <use fill="black" fill-opacity="1" filter="url(#filter-2)" xlink:href="#path-1"></use>
                        <use fill="#FFFFFF" fill-rule="evenodd" xlink:href="#path-1"></use>
                    </g>
                    <g id="Group-2" transform="translate(25.000000, 23.000000)">
                        <path d="M685.656099,0 L702.362757,33.5040431 L696.348086,33.504 L696.348285,259.584191 C696.343266,261.407242 696.066318,275.505705 689.56172,289.991615 C682.917859,304.391126 669.130138,321.638814 640.197321,321.638814 C612.050373,321.638814 596.833849,306.369054 589.118483,293.63108 C580.974313,280.260153 579.40273,267.12652 579.188445,265.623326 L579.117016,264.911223 L579.117016,158.260211 C579.117016,128.195326 568.115395,114.745288 543.397559,114.745288 C516.750765,114.745288 504.820418,136.186284 504.820418,157.469027 C504.820418,198.214771 479.459648,217.994274 427.309149,217.994274 C415.093088,217.994274 405.448841,221.791938 398.662124,229.38719 C386.58892,242.837304 386.231699,264.278284 386.231699,265.702368 C386.303128,268.946234 386.160271,288.409294 373.158419,303.679023 C362.942589,315.625864 348.011856,321.638814 328.723363,321.638814 C311.220739,321.638814 297.004446,315.704984 286.64576,304.074622 C270.214795,285.640146 269.786147,259.372956 269.786147,256.445616 C269.786147,254.467635 269.428926,228.121327 269.428926,164.194046 C269.428926,146.867143 265.285529,133.89186 257.070008,125.584475 C244.425299,112.767293 225.565455,114.270609 225.351091,114.270609 L224.851014,114.349735 L60.8270859,114.349735 L60.8270859,91.4054989 L224.065223,91.4054989 C228.20862,91.0889953 252.855105,90.2187621 271.072015,108.653201 C283.788231,121.470307 290.217729,140.1422 290.217729,164.194046 C290.217729,228.858761 290.560728,254.923116 290.574448,256.163221 L290.575043,256.556798 C290.582072,257.446011 290.864903,276.073181 301.576492,288.013695 C307.934561,295.055165 317.078808,298.694592 328.794714,298.694592 C342.153864,298.694592 352.012474,295.055165 358.156257,287.855428 C365.858413,278.85578 365.592711,266.837194 365.586025,266.42388 L365.586029,265.747622 C365.59405,262.845632 365.995913,233.433297 383.874248,213.326301 C394.732934,201.142125 409.306524,194.970912 427.380577,194.970912 C484.17455,194.970912 484.17455,170.523512 484.17455,157.389901 C484.17455,139.667444 489.746828,123.369177 499.748295,111.50143 C510.67841,98.6052733 525.752077,91.7220025 543.46891,91.7220025 C561.828754,91.7220025 576.045124,97.7349642 585.832305,109.602636 C595.19076,120.995628 599.905741,137.293971 599.905741,158.181085 L599.905741,263.328864 C600.262883,265.385955 601.834543,273.535096 606.763964,281.367764 C613.979253,292.760764 625.266588,298.615504 640.26875,298.615504 C654.985197,298.615504 664.915235,292.602497 670.701798,280.260153 C675.303165,270.377051 675.618124,260.041885 675.630631,259.475965 L675.630086,33.504 L668.949441,33.5040431 L685.656099,0 Z" id="Combined-Shape" fill="#BEBEBE"></path>
                        <path d="M641.746084,312.150943 C637.643802,312.150943 633.614877,311.757273 629.878825,311.048579 L630.098579,309.473746 C633.761353,310.182409 637.643802,310.497371 641.672885,310.497371 C641.672885,310.497371 641.672885,310.497371 641.672885,310.497371 C642.625178,310.497371 643.650669,310.497371 644.529764,310.418595 L644.603041,311.993428 C643.723947,312.150943 642.771654,312.150943 641.746084,312.150943 C641.746084,312.150943 641.746084,312.150943 641.746084,312.150943 Z M325.355254,312.150943 C320.054625,311.810282 315.121978,310.788076 310.631037,309.084417 L311.072823,307.465848 C315.416475,309.084417 320.201834,310.106533 325.355254,310.447284 L325.355254,312.150943 Z M338.962867,311.481644 L338.740905,309.951838 C343.920282,309.263437 348.655655,307.963041 352.87317,306.127249 L353.465122,307.504051 C349.173592,309.416389 344.290191,310.716726 338.962867,311.481644 Z M282.420249,275.339476 C280.450215,268.341667 279.995624,262.298106 279.844039,259.355792 L281.359398,259.276291 C281.510984,262.139042 281.965575,268.023592 283.859734,274.862398 L282.420249,275.339476 Z M376.890084,269.985081 L375.551447,269.905972 C375.551447,269.352037 375.551447,268.87725 375.551447,268.481618 C375.551447,268.006877 375.551447,267.769472 375.551447,267.690354 L375.551447,267.532074 C375.551447,266.503414 375.618397,261.122674 376.890084,253.921896 L378.228577,254.238418 C377.023912,261.36001 376.956962,266.582531 376.956962,267.532074 L376.956962,267.611184 C376.956962,267.611184 376.956962,267.927706 376.956962,268.402508 C376.890084,268.87725 376.890084,269.352037 376.890084,269.985081 Z M688.106409,258.606991 L686.767844,258.606991 L686.767844,242.543806 L688.106409,242.543806 L688.106409,258.606991 Z M591.060435,253.921896 L589.72187,253.921896 L589.72187,237.85871 L591.060435,237.85871 L591.060435,253.921896 Z M382.168725,239.866608 L380.905707,239.212138 C382.940574,233.894935 385.536723,229.232202 388.553929,225.142021 L389.606381,226.205446 C386.659364,230.132029 384.203592,234.713003 382.168725,239.866608 Z M688.106409,227.14992 L686.767844,227.14992 L686.767844,211.086734 L688.106409,211.086734 L688.106409,227.14992 Z M401.039374,216.441129 L400.314902,215.034877 C404.444401,212.305051 409.081118,210.319651 414.080031,209.078836 L414.369836,210.733283 C409.515786,211.89134 405.024011,213.793982 401.039374,216.441129 Z M457.499818,207.070938 L457.203921,205.485779 C462.45726,204.376145 467.192658,202.870202 471.336182,201.047243 L471.928137,202.473893 C467.710679,204.376145 462.827171,205.961304 457.499818,207.070938 Z M483.552497,194.354249 L482.636658,193.128519 C486.159144,189.532926 488.906812,185.201958 490.738489,180.298962 L492.006615,180.952663 C490.104465,186.100837 487.286477,190.595309 483.552497,194.354249 Z M591.060435,189.669153 L589.72187,189.669153 L589.72187,173.605968 L591.060435,173.605968 L591.060435,189.669153 Z M279.174756,180.298962 C279.174756,175.743766 279.174756,171.02867 279.174756,165.994001 C279.174756,165.434576 279.174756,164.795201 279.174756,164.235776 L280.513321,164.235776 C280.513321,164.795201 280.513321,165.434576 280.513321,165.994001 C280.513321,170.948719 280.513321,175.743766 280.513321,180.298962 L279.174756,180.298962 Z M495.589199,165.574375 L494.014462,165.416125 C494.17191,163.67523 494.250677,161.855248 494.250677,159.95618 C494.250677,156.395455 494.565573,152.913741 495.11677,149.511189 L496.691593,149.748601 C496.140482,153.07199 495.8255,156.474542 495.8255,159.95618 C495.8255,161.855248 495.746733,163.754393 495.589199,165.574375 Z M688.106409,164.235776 L686.767844,164.235776 L686.767844,148.17259 L688.106409,148.17259 L688.106409,164.235776 Z M688.106409,132.109405 L686.767844,132.109405 L686.767844,116.046219 L688.106409,116.046219 L688.106409,132.109405 Z M583.763862,127.424309 C581.292627,122.637796 578.147463,118.500343 574.328371,115.336362 L575.227024,114.038321 C579.195933,117.364547 582.490831,121.664246 585.036892,126.613004 L583.763862,127.424309 Z M264.765947,122.069914 C261.404131,118.366141 257.530736,115.225923 253.072736,112.810365 L253.730525,111.361123 C258.261551,113.937631 262.354183,117.158323 265.789104,120.942648 L264.765947,122.069914 Z M520.092553,112.699722 L519.4472,111.265575 C523.67798,108.795463 528.339151,107.042539 533.215362,106.006728 L533.502134,107.600302 C528.697655,108.636113 524.179947,110.3094 520.092553,112.699722 Z M240.735583,108.014626 C235.368094,106.727468 230.726008,106.384258 227.75208,106.384258 C227.244424,106.384258 226.736611,106.384258 226.373989,106.384258 L226.301433,104.668129 C226.736611,104.668129 227.171868,104.668129 227.75208,104.668129 C230.798486,104.668129 235.513128,104.925577 241.025649,106.298497 L240.735583,108.014626 Z M211.577216,106.006728 L196.852999,106.006728 L196.852999,104.668129 L211.577216,104.668129 L211.577216,106.006728 Z M125.239764,106.006728 L110.515547,106.006728 L110.515547,104.668129 L125.239764,104.668129 L125.239764,106.006728 Z M96.4606132,106.006728 L81.7363966,106.006728 L81.7363966,104.668129 L96.4606132,104.668129 L96.4606132,106.006728 Z M688.106409,100.652333 L686.767844,100.652333 L686.767844,84.5891473 L688.106409,84.5891473 L688.106409,100.652333 Z M184.482067,104.668129 L184.482067,106.006728 L169.75785,106.006728 L169.75785,104.668129 L184.482067,104.668129 Z M688.106409,53.1320755 L688.106409,69.1952611 L686.767844,69.1952611 L686.767844,53.1320755 L688.106409,53.1320755 Z" id="Fill-3" fill="#FFFFFF"></path>
                        <path d="M286.077388,293.175202 C286.077388,289.507198 289.056037,286.533693 292.730351,286.533693 C296.404664,286.533693 299.383313,289.507198 299.383313,293.175202 C299.383313,296.843206 296.404664,299.816712 292.730351,299.816712 C289.056037,299.816712 286.077388,296.843206 286.077388,293.175202 Z" id="Fill-6" fill="#005555"></path>
                        <path d="M269.920193,137.574124 C269.920193,133.906136 272.898842,130.932615 276.573156,130.932615 C280.24747,130.932615 283.226119,133.906136 283.226119,137.574124 C283.226119,141.242112 280.24747,144.215633 276.573156,144.215633 C272.898842,144.215633 269.920193,141.242112 269.920193,137.574124 Z" id="Fill-7" fill="#005555"></path>
                        <path d="M359.259976,292.226415 C359.259976,288.558411 362.238625,285.584906 365.912938,285.584906 C369.587252,285.584906 372.565901,288.558411 372.565901,292.226415 C372.565901,295.894419 369.587252,298.867925 365.912938,298.867925 C362.238625,298.867925 359.259976,295.894419 359.259976,292.226415 Z" id="Fill-8" fill="#005555"></path>
                        <path d="M496.120919,126.188679 C496.120919,122.520691 499.099533,119.54717 502.773881,119.54717 C506.44823,119.54717 509.426844,122.520691 509.426844,126.188679 C509.426844,129.856668 506.44823,132.830189 502.773881,132.830189 C499.099533,132.830189 496.120919,129.856668 496.120919,126.188679 Z" id="Fill-9" fill="#139A78"></path>
                        <path d="M549.344619,104.366577 C549.344619,100.698588 552.323268,97.7250674 555.997582,97.7250674 C559.671895,97.7250674 562.650544,100.698588 562.650544,104.366577 C562.650544,108.034565 559.671895,111.008086 555.997582,111.008086 C552.323268,111.008086 549.344619,108.034565 549.344619,104.366577 Z" id="Fill-10" fill="#139A78"></path>
                        <path d="M582.609432,147.061995 C582.609432,143.394006 585.58808,140.420485 589.262394,140.420485 C592.936708,140.420485 595.915357,143.394006 595.915357,147.061995 C595.915357,150.729983 592.936708,153.703504 589.262394,153.703504 C585.58808,153.703504 582.609432,150.729983 582.609432,147.061995 Z" id="Fill-11" fill="#139A78"></path>
                        <path d="M582.609432,210.630728 C582.609432,206.962739 585.58808,203.989218 589.262394,203.989218 C592.936708,203.989218 595.915357,206.962739 595.915357,210.630728 C595.915357,214.298716 592.936708,217.272237 589.262394,217.272237 C585.58808,217.272237 582.609432,214.298716 582.609432,210.630728 Z" id="Fill-12" fill="#139A78"></path>
                        <path d="M586.411125,273.250674 C586.411125,269.58267 589.389773,266.609164 593.064087,266.609164 C596.738401,266.609164 599.71705,269.58267 599.71705,273.250674 C599.71705,276.918678 596.738401,279.892183 593.064087,279.892183 C589.389773,279.892183 586.411125,276.918678 586.411125,273.250674 Z" id="Fill-13" fill="#139A78"></path>
                        <path d="M676.70133,280.84097 C676.70133,277.172966 679.679979,274.199461 683.354293,274.199461 C687.028606,274.199461 690.007255,277.172966 690.007255,280.84097 C690.007255,284.508974 687.028606,287.48248 683.354293,287.48248 C679.679979,287.48248 676.70133,284.508974 676.70133,280.84097 Z" id="Fill-14" fill="#139A78"></path>
                        <path d="M680.503023,187.859838 C680.503023,184.19185 683.481672,181.218329 687.155985,181.218329 C690.830299,181.218329 693.808948,184.19185 693.808948,187.859838 C693.808948,191.527827 690.830299,194.501348 687.155985,194.501348 C683.481672,194.501348 680.503023,191.527827 680.503023,187.859838 Z" id="Fill-15" fill="#139A78"></path>
                        <path d="M274.67231,215.374663 C274.67231,211.706675 277.650958,208.733154 281.325272,208.733154 C284.999586,208.733154 287.978235,211.706675 287.978235,215.374663 C287.978235,219.042652 284.999586,222.016173 281.325272,222.016173 C277.650958,222.016173 274.67231,219.042652 274.67231,215.374663 Z" id="Fill-16" fill="#005555"></path>
                        <path d="M430.541717,205.886792 C430.541717,202.218804 433.520366,199.245283 437.19468,199.245283 C440.868993,199.245283 443.847642,202.218804 443.847642,205.886792 C443.847642,209.554781 440.868993,212.528302 437.19468,212.528302 C433.520366,212.528302 430.541717,209.554781 430.541717,205.886792 Z" id="Fill-17" fill="#139A78"></path>
                        <polygon id="Fill-4" fill="#FFFFFF" points="665.296252 2.84636119 667.197098 2.84636119 667.197098 8.53908356 665.296252 8.53908356"></polygon>
                        <polygon id="Fill-2" fill="#FFFFFF" points="67.4800484 74.0053908 73.1825877 74.0053908 73.1825877 74.9541779 67.4800484 74.9541779"></polygon>
                        <ellipse id="Oval" fill="#004CFF" cx="39.9177751" cy="100.571429" rx="39.9177751" ry="39.8490566"></ellipse>
                        <text id="Project-Kick-Off" font-family="Graphik-Bold, Graphik" font-size="14" font-weight="bold" fill="#FFFFFF">
                            <tspan x="15.8991983" y="97.5714286">Project</tspan>
                            <tspan x="12.1821983" y="111.571429">Kick-Off</tspan>
                        </text>
                        <text id="Mobilization-Copy" font-family="Graphik-Bold, Graphik" font-size="10" font-weight="bold" line-spacing="12" fill="#000000">
                            <tspan x="192.349456" y="141.420485">Mobilization</tspan>
                        </text>
                        <text id="Solution-Confirmatio" font-family="Graphik-Bold, Graphik" font-size="10" font-weight="bold" line-spacing="12" fill="#000000">
                            <tspan x="147.078452" y="217">Solution Confirmation</tspan>
                        </text>
                        <text id="Solution-Confirmatio" font-family="Graphik-Bold, Graphik" font-size="10" font-weight="bold" line-spacing="12" fill="#000000">
                            <tspan x="158.384377" y="285">Solution Confirmation</tspan>
                        </text>
                        <text id="Solution-Confirmatio-Copy-2" font-family="Graphik-Bold, Graphik" font-size="10" font-weight="bold" line-spacing="12" fill="#000000">
                            <tspan x="393.599758" y="288.508086">Solution Confirmation</tspan>
                        </text>
                        <text id="Delivery-Sprints" font-family="Graphik-Bold, Graphik" font-size="10" font-weight="bold" line-spacing="12" fill="#000000">
                            <tspan x="395.58341" y="118.072776">Delivery Sprints</tspan>
                        </text>
                        <text id="Delivery-Sprints-Copy" font-family="Graphik-Bold, Graphik" font-size="10" font-weight="bold" line-spacing="12" fill="#000000">
                            <tspan x="517.898428" y="44.6698113">Delivery Sprints</tspan>
                        </text>
                        <text id="Deploy" font-family="Graphik-Bold, Graphik" font-size="10" font-weight="bold" line-spacing="12" fill="#000000">
                            <tspan x="537.776868" y="270.327493">Deploy</tspan>
                        </text>
                        <text id="Delivery-Sprints" font-family="Graphik-Bold, Graphik" font-size="10" font-weight="bold" line-spacing="12" fill="#000000">
                            <tspan x="413.351874" y="231.555256">Delivery Sprints</tspan>
                        </text>
                        <text id="Deploy" font-family="Graphik-Bold, Graphik" font-size="10" font-weight="bold" line-spacing="12" fill="#000000">
                            <tspan x="533.504196" y="145.24124">Deploy</tspan>
                        </text>
                        <text id="Deploy-Copy" font-family="Graphik-Bold, Graphik" font-size="10" font-weight="bold" line-spacing="12" fill="#000000">
                            <tspan x="605.85792" y="202.014825">Deploy</tspan>
                        </text>
                        <text id="Post-Go-Live" font-family="Graphik-Bold, Graphik" font-size="10" font-weight="bold" line-spacing="12" fill="#000000">
                            <tspan x="705.528416" y="187.911051">Post Go-Live</tspan>
                        </text>
                        <text id="Post-Go-Live-Copy" font-family="Graphik-Bold, Graphik" font-size="10" font-weight="bold" line-spacing="12" fill="#000000">
                            <tspan x="703.62757" y="270.481132">Post Go-Live</tspan>
                        </text>
                        <text id="Project-team-Kick-Of" font-family="Graphik-Medium, Graphik" font-size="12" font-weight="500" line-spacing="12" fill="#000000">
                            <tspan x="150.844992" y="158.908356">Project team Kick-</tspan>
                            <tspan x="194.428992" y="170.908356">Off /Skill &amp; </tspan>
                            <tspan x="147.016992" y="182.908356">Capability Building</tspan>
                        </text>
                        <text id="Document-change-impa" font-family="Graphik-Medium, Graphik" font-size="12" font-weight="500" line-spacing="12" fill="#000000">
                            <tspan x="98.1744522" y="232.615903">Document change impacts, </tspan>
                            <tspan x="131.978452" y="244.615903">create persona based </tspan>
                            <tspan x="179.342452" y="256.615903">change plans</tspan>
                        </text>
                        <text id="Global-communication" font-family="Graphik-Medium, Graphik" font-size="12" font-weight="500" line-spacing="12" fill="#000000">
                            <tspan x="128.269838" y="301.076819">Global  communications </tspan>
                            <tspan x="158.869838" y="313.076819">Campaign Kick-Off</tspan>
                        </text>
                        <text id="Validation-sessions" font-family="Graphik-Medium, Graphik" font-size="12" font-weight="500" line-spacing="12" fill="#000000">
                            <tspan x="394.095526" y="306">Validation sessions </tspan>
                            <tspan x="394.095526" y="318">with leaders</tspan>
                        </text>
                        <text id="Training-launch" font-family="Graphik-Medium, Graphik" font-size="12" font-weight="500" line-spacing="12" fill="#000000">
                            <tspan x="525.0591" y="286.994609">Training </tspan>
                            <tspan x="533.5071" y="298.994609">launch</tspan>
                        </text>
                        <text id="Adoption-survey" font-family="Graphik-Medium, Graphik" font-size="12" font-weight="500" line-spacing="12" fill="#000000">
                            <tspan x="413.351874" y="246.196765">Adoption </tspan>
                            <tspan x="413.351874" y="258.196765">survey</tspan>
                        </text>
                        <text id="Super-user-launch" font-family="Graphik-Medium, Graphik" font-size="12" font-weight="500" line-spacing="12" fill="#000000">
                            <tspan x="534.342926" y="160.80593">Super </tspan>
                            <tspan x="543.630926" y="172.80593">user </tspan>
                            <tspan x="529.878926" y="184.80593">launch</tspan>
                        </text>
                        <text id="Go-live-comms-begin" font-family="Graphik-Medium, Graphik" font-size="12" font-weight="500" line-spacing="12" fill="#000000">
                            <tspan x="605.85792" y="222.477089">Go-live </tspan>
                            <tspan x="605.85792" y="234.477089">comms </tspan>
                            <tspan x="605.85792" y="246.477089">begin</tspan>
                        </text>
                        <text id="Adoption-measurement" font-family="Graphik-Medium, Graphik" font-size="12" font-weight="500" line-spacing="12" fill="#000000">
                            <tspan x="705.30532" y="203.501348">Adoption </tspan>
                            <tspan x="705.30532" y="215.501348">measurement</tspan>
                        </text>
                        <text id="Practice-labs,-drop-" font-family="Graphik-Medium, Graphik" font-size="12" font-weight="500" line-spacing="12" fill="#000000">
                            <tspan x="703.107013" y="286.994609">Practice labs, </tspan>
                            <tspan x="703.107013" y="298.994609">drop-by-</tspan>
                            <tspan x="703.107013" y="310.994609">coaching</tspan>
                        </text>
                        <text id="Change-network-proce" font-family="Graphik-Medium, Graphik" font-size="12" font-weight="500" line-spacing="12" fill="#000000">
                            <tspan x="380.874888" y="133.291105">Change network </tspan>
                            <tspan x="374.850888" y="145.291105">process &amp; system </tspan>
                            <tspan x="405.654888" y="157.291105">sneak peeks</tspan>
                        </text>
                        <text id="Manager-/-Employee-D" font-family="Graphik-Medium, Graphik" font-size="12" font-weight="500" line-spacing="12" fill="#000000">
                            <tspan x="517.452237" y="62.1320755">Manager / Employee </tspan>
                            <tspan x="517.452237" y="74.1320755">Discussion</tspan>
                        </text>
                        <text id="Kick-Off" font-family="Graphik-Medium, Graphik" font-size="12" font-weight="500" line-spacing="12" fill="#000000">
                            <tspan x="187.473398" y="73.0053908">Kick-Off</tspan>
                        </text>
                        <text id="Mobilization" font-family="Graphik-Bold, Graphik" font-size="10" font-weight="bold" line-spacing="12" fill="#000000">
                            <tspan x="186.556227" y="57.9272237">Mobilization</tspan>
                        </text>
                        <polygon id="Star" fill="#004CFF" points="638.20919 331.601078 614.466788 344.208305 619.001183 317.50577 599.793177 298.594929 626.337989 294.699082 638.20919 270.404313 650.080391 294.699082 676.625203 298.594929 657.417196 317.50577 661.951592 344.208305"></polygon>
                        <text id="Go-Live" font-family="Graphik-Bold, Graphik" font-size="14" font-weight="bold" fill="#FFFFFF">
                            <tspan x="627.870978" y="308.278976">Go </tspan>
                            <tspan x="623.306978" y="322.278976">Live</tspan>
                        </text>
                        <path d="M329.796857,220.118598 C343.969263,220.118598 355.458284,231.47409 355.458284,245.481778 C355.458284,255.987551 348.99571,265.001428 339.785401,268.851803 L339.713217,268.873917 L330.359778,284.636119 L321.256923,269.296225 L319.808252,268.851803 C310.598006,265.001428 304.135429,255.987551 304.135429,245.481778 C304.135429,231.47409 315.624451,220.118598 329.796857,220.118598 Z M329.796857,221.97255 C316.666531,221.97255 306.0223,232.431085 306.0223,245.332342 C306.0223,258.233599 316.666531,268.692134 329.796857,268.692134 C342.927183,268.692134 353.571414,258.233599 353.571414,245.332342 C353.571414,232.431085 342.927183,221.97255 329.796857,221.97255 Z M342.830771,246.815503 C343.198469,246.815503 343.382318,247.072201 343.382318,247.328907 L343.382318,255.543337 C343.382318,255.800043 343.198469,256.056741 342.830771,256.056741 L341.17613,256.056741 L341.17613,259.650552 C341.17613,259.821687 341.084209,260.078392 340.90036,260.163956 L340.624583,260.163956 C340.532662,260.163956 340.348813,260.163956 340.256885,260.078392 C335.732892,256.272186 335.490536,256.068282 335.477552,256.057359 L329.593656,256.056741 C329.317879,256.056741 329.042109,255.800043 329.042109,255.543337 L329.042109,247.328907 C329.042109,247.072201 329.317879,246.815503 329.593656,246.815503 L342.830771,246.815503 Z M342.279224,247.842311 L330.145203,247.842311 L330.145203,255.029933 L335.660666,255.029933 C335.844516,255.029933 335.936444,255.115504 336.028365,255.201068 C339.830362,258.337954 340.058482,258.526167 340.07217,258.53746 L340.073043,255.543337 C340.073043,255.286639 340.348813,255.029933 340.624583,255.029933 L342.279224,255.029933 L342.279224,247.842311 Z M338.306639,237.174954 C338.671431,237.174954 338.853831,237.436688 338.853831,237.698421 L338.853831,244.503514 C338.853831,244.765248 338.671431,245.026989 338.306639,245.026989 C338.033043,245.026989 337.759447,244.765248 337.759447,244.503514 L337.759447,238.221888 L318.060528,238.221888 L318.060528,249.738206 L320.796489,249.738206 C321.161281,249.738206 321.343681,249.99994 321.343681,250.261673 L321.343681,253.227996 C324.809234,249.912693 324.809234,249.912693 324.809234,249.912693 C324.90043,249.825446 325.08283,249.738206 325.174026,249.738206 L326.268411,249.738206 C326.633203,249.738206 326.815603,249.99994 326.815603,250.261673 C326.815603,250.523407 326.633203,250.78514 326.268411,250.78514 L325.447622,250.78514 C321.161281,254.798404 321.161281,254.798404 321.161281,254.798404 C321.070085,254.885644 320.978889,254.972891 320.796489,254.972891 L320.614089,254.972891 C320.431696,254.885644 320.249297,254.62391 320.249297,254.449424 L320.249297,250.78514 L317.513336,250.78514 C317.23974,250.78514 316.966143,250.523407 316.966143,250.261673 L316.966143,237.698421 C316.966143,237.436688 317.23974,237.174954 317.513336,237.174954 L338.306639,237.174954 Z" id="Combined-Shape" fill="#005555"></path>
                        <path d="M733.726724,113.854447 C746.84932,113.854447 757.487304,124.040992 757.487304,136.606716 C757.487304,146.031004 751.50344,154.116986 742.975375,157.571004 L742.908542,157.590836 L734.247948,171.730458 L725.819382,157.969667 L724.478018,157.571004 C715.95001,154.116986 709.966143,146.031004 709.966143,136.606716 C709.966143,124.040992 720.604127,113.854447 733.726724,113.854447 Z M733.726724,115.319663 C721.745214,115.319663 712.032281,124.831651 712.032281,136.565287 C712.032281,148.298923 721.745214,157.810911 733.726724,157.810911 C745.708234,157.810911 755.421167,148.298923 755.421167,136.565287 C755.421167,124.831651 745.708234,115.319663 733.726724,115.319663 Z M741.754026,132.169641 C741.967753,132.169641 742.18148,132.398581 742.18148,132.627521 L742.180659,146.088956 L742.423707,146.089188 C742.644554,146.089188 742.865408,146.27234 742.865408,146.455491 C742.865408,146.699692 742.644554,146.821795 742.423707,146.821795 L722.10536,146.821795 C721.810895,146.821795 721.663659,146.699692 721.663659,146.455491 C721.663659,146.27234 721.810895,146.089188 722.10536,146.089188 L723.030659,146.088956 L723.031514,142.120893 C723.031514,141.907221 723.173997,141.693541 723.458969,141.693541 L726.023696,141.693541 C726.237424,141.693541 726.451151,141.907221 726.451151,142.120893 L726.450659,146.088956 L727.818659,146.088956 L727.819006,137.031489 C727.819006,136.798388 727.989987,136.565287 728.331951,136.565287 L731.409624,136.565287 C731.666097,136.565287 731.92257,136.798388 731.92257,137.031489 L731.921659,146.088956 L733.289659,146.088956 L733.290425,139.210814 C733.290425,138.986966 733.432907,138.76311 733.717879,138.76311 L736.282607,138.76311 C736.496334,138.76311 736.710061,138.986966 736.710061,139.210814 L736.709659,146.088956 L738.761659,146.088956 L738.761844,132.627521 C738.761844,132.398581 738.904326,132.169641 739.189298,132.169641 L741.754026,132.169641 Z M725.596242,142.548253 L723.886423,142.548253 L723.886423,145.967084 L725.596242,145.967084 L725.596242,142.548253 Z M735.855152,139.658518 L734.145334,139.658518 L734.145334,145.926388 L735.855152,145.926388 L735.855152,139.658518 Z M741.326571,133.0854 L739.616753,133.0854 L739.616753,145.906036 L741.326571,145.906036 L741.326571,133.0854 Z M730.896679,137.497699 L728.844897,137.497699 L728.844897,145.889384 L730.896679,145.889384 L730.896679,137.497699 Z M740.471662,124.110956 C741.041599,124.110956 741.497553,124.843563 741.497553,125.576171 C741.497553,126.390179 741.041599,127.041387 740.471662,127.041387 C740.189346,127.041387 739.934998,126.881601 739.750181,126.621393 C736.575046,131.336813 736.575046,131.336813 736.575046,131.336813 C736.557344,131.381428 736.534428,131.412901 736.507833,131.435103 C736.635861,131.657752 736.710061,131.913696 736.710061,132.169641 C736.710061,132.983649 736.102125,133.634856 735.342207,133.634856 C734.850495,133.634856 734.422415,133.362205 734.181493,132.94922 L734.147223,132.885768 C734.132418,132.876227 734.122435,132.861162 734.120064,132.837375 C734.119792,132.831671 734.118109,132.828071 734.116438,132.824462 C731.907031,132.014759 731.164683,131.742583 730.915605,131.651261 C730.666747,131.969446 730.292129,132.169641 729.870788,132.169641 C729.602143,132.169641 729.352492,132.088256 729.14198,131.947065 C729.12092,131.966054 729.093835,131.983174 729.062152,131.998124 C726.65985,133.40972 725.75384,133.942093 725.412144,134.142874 C725.632917,134.411387 725.767223,134.755729 725.767223,135.100072 C725.767223,135.914079 725.159287,136.565287 724.399369,136.565287 C723.63945,136.565287 723.031514,135.914079 723.031514,135.100072 C723.031514,134.367464 723.63945,133.634856 724.399369,133.634856 C724.536477,133.634856 724.668638,133.658705 724.793173,133.702099 L724.873826,133.656269 C728.55275,131.534555 728.55275,131.534555 728.55275,131.534555 C728.591236,131.493696 728.639897,131.467243 728.693354,131.452338 C728.571859,131.234143 728.502933,130.978513 728.502933,130.704425 C728.502933,129.971818 729.110869,129.23921 729.870788,129.23921 C730.630706,129.23921 731.238642,129.971818 731.238642,130.704425 L731.232659,130.830956 L731.307099,130.859717 C732.908672,131.458902 733.658696,131.739503 734.009936,131.870909 C734.143905,131.249922 734.686473,130.704425 735.342207,130.704425 C735.571093,130.704425 735.786191,130.770888 735.975043,130.883794 C735.988586,130.830898 736.008689,130.779236 736.034212,130.73099 C739.399401,125.808688 739.399401,125.808688 739.399401,125.808688 C739.41485,125.779486 739.432284,125.754038 739.451322,125.732182 C739.447727,125.682102 739.445771,125.629486 739.445771,125.576171 C739.445771,124.843563 739.901725,124.110956 740.471662,124.110956 Z M724.399369,134.611664 C724.095404,134.611664 723.943415,134.855872 723.943415,135.100072 C723.943415,135.425672 724.095404,135.588479 724.399369,135.588479 C724.627342,135.588479 724.855323,135.425672 724.855323,135.100072 C724.855323,134.855872 724.627342,134.611664 724.399369,134.611664 Z M735.342207,131.681233 C735.038242,131.681233 734.886253,131.925441 734.886253,132.169641 C734.886253,132.495241 735.038242,132.658048 735.342207,132.658048 C735.57018,132.658048 735.798161,132.495241 735.798161,132.169641 C735.798161,131.925441 735.57018,131.681233 735.342207,131.681233 Z M729.870788,130.216018 C729.566823,130.216018 729.414834,130.460225 729.414834,130.704425 C729.414834,131.030025 729.566823,131.192833 729.870788,131.192833 C730.098761,131.192833 730.326742,131.030025 730.326742,130.704425 C730.326742,130.460225 730.098761,130.216018 729.870788,130.216018 Z M740.471662,125.087764 C740.243689,125.087764 740.129698,125.331971 740.129698,125.576171 C740.129698,125.901771 740.243689,126.064579 740.471662,126.064579 C740.642644,126.064579 740.813626,125.901771 740.813626,125.576171 C740.813626,125.331971 740.642644,125.087764 740.471662,125.087764 Z" id="Combined-Shape" fill="#005555"></path>
                        <g id="Group-5" transform="translate(128.307134, 23.719677)" fill="#005555">
                            <path d="M25.6614268,0 C39.8338329,0 51.3228537,10.3535394 51.3228537,23.125256 C51.3228537,32.7040434 44.86028,40.9225809 35.6499712,44.4332155 L35.5777871,44.4533777 L26.224348,58.8247978 L17.1214927,44.8384227 L15.6728221,44.4332155 C6.462576,40.9225809 -7.57165715e-07,32.7040434 -7.57165715e-07,23.125256 C-7.57165715e-07,10.3535394 11.4890208,0 25.6614268,0 Z M25.6614268,2.20592992 C12.3226851,2.20592992 1.5094957,11.5883969 1.5094957,23.1622642 C1.5094957,34.7361314 12.3226851,44.1185984 25.6614268,44.1185984 C39.0001686,44.1185984 49.813358,34.7361314 49.813358,23.1622642 C49.813358,11.5883969 39.0001686,2.20592992 25.6614268,2.20592992 Z M29.9742749,12.1734684 C30.8812403,12.5002695 31.6233009,13.2355795 31.7882057,13.8891892 C32.1180079,15.0330006 31.5408522,16.1768194 31.2110425,16.8304291 C31.6233009,17.1572303 31.7882057,17.5657391 31.7882057,18.1376485 C31.7882057,18.4644496 31.7057495,18.7912581 31.5408522,19.1180593 C31.458396,19.2814599 31.2934987,19.4448605 31.0461376,19.5265681 C30.963689,21.1605886 30.468982,21.9775989 30.0567236,22.3044001 L30.0567236,23.203118 C34.1792922,24.7554382 36.1581278,25.8992496 36.4879375,27.0430684 C36.9826446,28.5136884 36.9826446,31.7817294 36.9826446,31.8634297 C36.9826446,32.1902382 36.8177397,32.3536388 36.4879375,32.3536388 L34.0143949,32.3536388 C33.9256617,32.3536388 33.8369285,32.3326112 33.7596142,32.2905557 C33.684828,32.3329626 33.5867861,32.3536388 33.4671121,32.3536388 L15.591498,32.3536388 C15.3432313,32.3536388 15.094957,32.1954442 15.094957,31.8790551 C15.094957,31.7999578 15.1777151,28.6360734 15.591498,27.2123294 C16.0052885,26.02587 18.2397422,25.2349044 20.8879788,24.3648342 C21.3017618,24.2066396 21.7155523,24.1275423 22.0465847,23.9693477 L22.0465847,22.2292146 C21.2190037,21.8337282 20.0604053,20.8845606 20.0604053,19.0653302 L20.0604053,16.9297033 C19.812131,16.217835 19.4810986,14.873181 20.2259215,14.1613054 C20.4741883,13.9240135 20.8879788,13.7658262 21.3845199,13.7658262 C21.9348612,12.8641171 23.4561484,12.5334904 24.8131252,12.502682 L25.0258537,12.5002695 C25.7482805,12.5002695 26.5680293,12.6118899 27.2585501,12.8712181 C27.2241406,12.6700069 27.3168891,12.4583099 27.5007247,12.336869 C28.1603366,11.8466599 29.0673095,11.7649596 29.9742749,12.1734684 Z M25.0258537,13.4494371 C23.5362154,13.4494371 22.3776095,13.8449235 22.2120933,14.3985972 C22.1293428,14.7149864 21.8810685,14.873181 21.6327942,14.7940837 C21.3845199,14.7149864 21.053495,14.7149864 20.8879788,14.873181 C20.5569464,15.1895702 20.8879788,16.3760296 20.9707369,16.6924188 C21.039702,16.8901559 21.0511962,17.0329694 21.0531119,17.1208551 L21.053495,19.0653302 C21.053495,20.9636579 22.7086419,21.4382417 22.7086419,21.4382417 C22.9569162,21.517339 23.0396743,21.6755336 23.0396743,21.9128254 L23.0396743,24.2857369 C23.0396743,24.4439315 22.9569162,24.6812234 22.7914,24.7603207 C22.2120933,24.9185153 21.7155523,25.0767098 21.2190037,25.3139944 C19.2328319,25.9467727 16.832862,26.816843 16.5845877,27.5287186 C16.2535628,28.4778788 16.1708047,30.5344084 16.1708047,31.4044713 L32.9705635,31.4044713 C32.9705635,30.5344084 32.8878054,28.4778788 32.556773,27.5287186 C32.3085062,26.7377457 30.1568107,26.02587 28.0051151,25.3139944 C27.5085741,25.1558071 26.9292674,24.9185153 26.3499682,24.7603207 C26.184452,24.6812234 26.0189434,24.4439315 26.0189434,24.2857369 L26.0189434,21.9128254 C26.0189434,21.7809966 26.1338799,21.6491678 26.2200845,21.5631129 L26.2672101,21.517339 C26.2672101,21.517339 27.0120255,20.9636579 27.0120255,19.0653302 C27.0120255,18.8280383 27.2602998,18.5907465 27.5085741,18.5907465 C27.7292624,18.5907465 27.7537833,18.3407599 27.7565078,18.1741023 L27.7568484,18.1161627 C27.7568484,17.8788708 27.7568484,17.6415789 27.5085741,17.6415789 C27.2602998,17.6415789 27.0120255,17.4042871 27.0120255,17.1669952 C27.0120255,17.0088006 27.0947836,16.850606 27.2602998,16.6133215 C27.5085741,16.0596404 28.0051151,15.1895702 27.8395989,14.3985972 C27.6823657,13.8726072 26.5541731,13.4893812 25.2355295,13.4523736 L25.0258537,13.4494371 Z M27.9954393,13.1538792 C27.975546,13.173591 27.9532529,13.189736 27.929139,13.2026008 C28.3354247,13.4625154 28.6359314,13.804551 28.7499381,14.2404027 C29.0809629,15.2686675 28.5016638,16.2969323 28.2533895,16.9297033 C28.5844219,17.1669952 28.7499381,17.5624816 28.7499381,18.1161627 C28.7499381,18.4325519 28.66718,18.748941 28.5016638,19.0653302 C28.4189057,19.2235248 28.2533895,19.3817194 28.0051151,19.4608167 C27.922357,21.0427552 27.425816,21.8337282 27.0120255,22.1501173 L27.0120255,23.9693477 C27.5085741,24.1275423 27.922357,24.2857369 28.3361476,24.4439315 C30.9843842,25.3139944 33.0533216,26.02587 33.4671121,27.2123294 C33.8477392,28.3037106 33.9365939,30.4176156 33.9573364,31.3807203 L34.0143949,31.373228 L35.9932305,31.373228 C35.9932305,30.4745101 35.9107743,28.3502878 35.5809722,27.3698696 C35.3336186,26.5528593 33.2723268,25.4090479 29.3971117,24.0201282 C29.2322068,23.9384279 29.0673095,23.6933197 29.0673095,23.5299191 L29.0673095,22.0592992 C29.0673095,21.923132 29.1818216,21.7869649 29.2677099,21.6980737 L29.314663,21.6507904 C29.314663,21.6507904 30.0567236,21.0788883 30.0567236,19.1180593 C30.0567236,18.9546587 30.1391722,18.8729584 30.2216284,18.7912581 C30.3040771,18.7095505 30.468982,18.6278502 30.5514306,18.6278502 C30.6338868,18.6278502 30.7163355,18.6278502 30.7163355,18.5461499 C30.7822944,18.4807897 30.7954862,18.3631413 30.7981245,18.2350352 L30.7987841,18.1376485 C30.7987841,17.8925402 30.7987841,17.6474394 30.5514306,17.6474394 C30.3040771,17.6474394 30.0567236,17.4023385 30.0567236,17.1572303 C30.0567236,16.9938297 30.1391722,16.8304291 30.3040771,16.5036206 C30.5514306,16.0134188 31.0461376,14.9513003 30.8812403,14.1342901 C30.7987841,13.8891892 30.3040771,13.3172798 29.5620166,13.0721789 C29.1497582,12.9087784 28.572595,12.8270707 27.9954393,13.1538792 Z" id="Combined-Shape"></path>
                        </g>
                        <path d="M146.365175,102.469003 C146.365175,98.8010142 149.343824,95.8274933 153.018138,95.8274933 C156.692452,95.8274933 159.6711,98.8010142 159.6711,102.469003 C159.6711,106.136991 156.692452,109.110512 153.018138,109.110512 C149.343824,109.110512 146.365175,106.136991 146.365175,102.469003 Z" id="Fill-5" fill="#005555"></path>
                    </g>
                </g>
                <path d="M278,162.719677 L254.098505,102" id="Path-5" stroke="#8901C5" stroke-width="2" stroke-linecap="round"></path>
                <path d="M295,318.5 L103,273" id="Path-6" stroke="#8901C5" stroke-width="2" stroke-linecap="round"></path>
                <path d="M284,399 C173.333333,422.381851 118,434.072776 118,434.072776" id="Path-7" stroke="#8901C5" stroke-width="2" stroke-linecap="round"></path>
                <path d="M558.599758,475 L455.556227,535" id="Path-8" stroke="#8901C5" stroke-width="2" stroke-linecap="round"></path>
                <path d="M737.1711,457.792453 L758.064087,535" id="Path-9" stroke="#8901C5" stroke-width="2" stroke-linecap="round"></path>
                <path d="M959.389706,416.994609 C985.129902,404.023657 998,397.538181 998,397.538181" id="Path-10" stroke="#8901C5" stroke-width="2" stroke-linecap="round"></path>
                <path d="M928.083394,306.035337 L994.187802,230" id="Path-11" stroke="#8901C5" stroke-width="2" stroke-linecap="round"></path>
                <path d="M601,218.698113 L560,95" id="Path-12" stroke="#8901C5" stroke-width="2" stroke-linecap="round"></path>
                <path d="M718,155 L797,59.9990123" id="Path-13" stroke="#8901C5" stroke-width="2" stroke-linecap="round"></path>
                <text id="Change-network-membe" font-family="Graphik-Semibold, Graphik" font-size="15" font-weight="600" line-spacing="15" letter-spacing="-0.000916666667" fill="#000000">
                    <tspan x="458" y="31">Change network members </tspan>
                    <tspan x="458" y="46">across brands and offices </tspan>
                    <tspan x="458" y="61">receive sneak peeks &amp; help </tspan>
                    <tspan x="458" y="76">prepare their local colleagues</tspan>
                </text>
                <text id="Business-leaders-inv" font-family="Graphik-Semibold, Graphik" font-size="15" font-weight="600" line-spacing="15" letter-spacing="-0.000916666667" fill="#000000">
                    <tspan x="167" y="51">Business leaders involved </tspan>
                    <tspan x="167" y="66">“from Day 1” to shape the </tspan>
                    <tspan x="167" y="81">vision &amp; the case for change</tspan>
                </text>
                <text id="Project-team-members" font-family="Graphik-Semibold, Graphik" font-size="15" font-weight="600" line-spacing="15" letter-spacing="-0.000916666667" fill="#000000">
                    <tspan x="0" y="212">Project team </tspan>
                    <tspan x="0" y="227">members </tspan>
                    <tspan x="0" y="242">equipped as </tspan>
                    <tspan x="0" y="257">ambassadors </tspan>
                    <tspan x="0" y="272">of change </tspan>
                    <tspan x="0" y="287">and serve as </tspan>
                    <tspan x="0" y="302">liaisons to the </tspan>
                    <tspan x="0" y="317">business</tspan>
                </text>
                <text id="Associates-engaged-v" font-family="Graphik-Semibold, Graphik" font-size="15" font-weight="600" line-spacing="15" letter-spacing="-0.000916666667" fill="#000000">
                    <tspan x="9" y="423">Associates </tspan>
                    <tspan x="9" y="438">engaged via </tspan>
                    <tspan x="9" y="453">personalised </tspan>
                    <tspan x="9" y="468">change </tspan>
                    <tspan x="9" y="483">journeys </tspan>
                    <tspan x="9" y="498">tailored to </tspan>
                    <tspan x="9" y="513">their needs &amp; </tspan>
                    <tspan x="9" y="528">preferences</tspan>
                </text>
                <text id="Leaders-“brought-alo" font-family="Graphik-Semibold, Graphik" font-size="15" font-weight="600" line-spacing="15" letter-spacing="-0.000916666667" fill="#000000">
                    <tspan x="341" y="559">Leaders “brought along” the </tspan>
                    <tspan x="341" y="574">journey of key design </tspan>
                    <tspan x="341" y="589">decisions &amp; future processes</tspan>
                </text>
                <text id="Team-managers-enable" font-family="Graphik-Semibold, Graphik" font-size="15" font-weight="600" line-spacing="15" letter-spacing="-0.000916666667" fill="#000000">
                    <tspan x="758" y="20">Team managers enabled to </tspan>
                    <tspan x="758" y="35">help their teams through the </tspan>
                    <tspan x="758" y="50">change in a personalized way</tspan>
                </text>
                <text id="Data-based-approach" font-family="Graphik-Semibold, Graphik" font-size="15" font-weight="600" line-spacing="15" letter-spacing="-0.000916666667" fill="#000000">
                    <tspan x="995" y="113">Data-based </tspan>
                    <tspan x="995" y="128">approach to </tspan>
                    <tspan x="995" y="143">measure </tspan>
                    <tspan x="995" y="158">readiness and </tspan>
                    <tspan x="995" y="173">adoption of </tspan>
                    <tspan x="995" y="188">new tools, </tspan>
                    <tspan x="995" y="203">processes, </tspan>
                    <tspan x="995" y="218">and behaviors</tspan>
                </text>
                <text id="Users-supported-by-s" font-family="Graphik-Semibold, Graphik" font-size="15" font-weight="600" line-spacing="15" letter-spacing="-0.000916666667" fill="#000000">
                    <tspan x="1011" y="371">Users </tspan>
                    <tspan x="1011" y="386">supported </tspan>
                    <tspan x="1011" y="401">by super </tspan>
                    <tspan x="1011" y="416">users during </tspan>
                    <tspan x="1011" y="431">go-live by &amp; </tspan>
                    <tspan x="1011" y="446">coached on </tspan>
                    <tspan x="1011" y="461">new ways of </tspan>
                    <tspan x="1011" y="476">working</tspan>
                </text>
                <text id="Teams-equipped-withn" font-family="Graphik-Semibold, Graphik" font-size="15" font-weight="600" line-spacing="15" letter-spacing="-0.000916666667" fill="#000000">
                    <tspan x="708" y="559">Teams equipped </tspan>
                    <tspan x="708" y="574">with new skills and </tspan>
                    <tspan x="708" y="589">capabilities as part of </tspan>
                    <tspan x="708" y="604">pre-go-live training</tspan>
                </text>
            </g>
        </g>
    </g>
</svg>