<svg width="1091" height="428" viewBox="0 0 1091 428" fill="none" xmlns="http://www.w3.org/2000/svg">
<g id="Group 9968">
<path id="Vector 15" d="M920 141C920 140.448 919.552 140 919 140C918.448 140 918 140.448 918 141H920ZM920 154V141H918V154H920Z" fill="#5A5A5A"/>
<path id="Vector 14" d="M164 154V141" stroke="#5A5A5A" stroke-width="2" stroke-linecap="round"/>
<g id="Group 9967">
<g id="Group 9899">
<rect id="Rectangle 1255" y="37" width="343" height="104" rx="6" fill="#F8F8F8"/>
<rect id="Rectangle 1256" x="374" y="37" width="343" height="104" rx="6" fill="#F8F8F8"/>
<rect id="Rectangle 1257" x="748" y="37" width="343" height="104" rx="6" fill="#F8F8F8"/>
<g id="Group 9889">
<g id="Group 9882">
<g id="Group 9880">
<g id="Group 9883">
<g id="Group 9884">
<g id="Group 9887">
<circle id="Ellipse 43" cx="539.58" cy="356.289" r="59.5802" fill="#F0F0F0"/>
</g>
<path id="Vector 4" d="M486.181 213.109V256.791C486.181 256.791 482.61 251.43 479.161 251.43C475.711 251.43 472.141 256.791 472.141 256.791V213.109C472.141 213.109 475.787 218.143 479.161 218.143C482.534 218.143 486.181 213.109 486.181 213.109Z" fill="#F0F0F0"/>
<path id="Vector 5" d="M605.341 213.109V256.791C605.341 256.791 601.771 251.43 598.321 251.43C594.872 251.43 591.301 256.791 591.301 256.791V213.109C591.301 213.109 594.948 218.143 598.321 218.143C601.695 218.143 605.341 213.109 605.341 213.109Z" fill="#F0F0F0"/>
</g>
</g>
</g>
<g id="Group 9885">
<circle id="Ellipse 42" cx="538.74" cy="234.949" r="59.5802" fill="#F0F0F0"/>
<g id="Group 361">
<circle id="Ellipse 40" r="41.3211" transform="matrix(1 0 0 -1 538.639 236.201)" fill="#C4C4C4"/>
<g id="Ellipse 42_2" filter="url(#filter0_d)">
<circle r="41.3211" transform="matrix(1 0 0 -1 538.639 236.201)" fill="white"/>
</g>
<circle id="Ellipse 41" r="49.2394" transform="matrix(1 0 0 -1 538.64 236.201)" stroke="#B5B5B5" stroke-width="2" stroke-linecap="round" stroke-dasharray="6 6"/>
<path id="Ellipse 43_2" d="M589.591 238.893C589.591 229.419 586.95 217.443 581.965 209.387C576.98 201.332 569.847 194.826 561.369 190.6C552.891 186.374 543.402 184.596 533.969 185.464C524.536 186.332 514.627 190.717 507.063 196.42L509.105 199.128C516.165 193.805 525.474 189.651 534.28 188.841C543.085 188.03 551.942 189.691 559.856 193.635C567.77 197.58 574.428 203.653 579.081 211.172C583.735 218.691 586.2 230.05 586.2 238.893H589.591Z" fill="#A100FF"/>
</g>
</g>
<g id="Group">
<path id="Compound Path" d="M531.214 244.045C529.668 242.387 528.637 240.315 528.249 238.081C527.861 235.847 528.132 233.549 529.029 231.466C529.926 229.384 531.41 227.608 533.3 226.356C535.189 225.103 537.403 224.428 539.671 224.413L539.819 224.413C542.83 224.512 545.691 225.752 547.822 227.883C549.952 230.013 551.193 232.874 551.291 235.886C551.335 238.913 550.2 241.839 548.127 244.045C546.653 245.606 545.853 247.684 545.901 249.831C546.124 249.866 546.326 249.981 546.472 250.153C546.617 250.326 546.695 250.545 546.692 250.77L546.692 255.814L546.594 255.814C546.386 256.949 545.788 257.976 544.903 258.717C544.018 259.457 542.901 259.865 541.747 259.869L537.594 259.869C536.44 259.865 535.323 259.457 534.438 258.717C533.553 257.976 532.955 256.949 532.747 255.814L532.649 255.814L532.649 250.77C532.646 250.532 532.729 250.3 532.884 250.119C533.038 249.937 533.253 249.817 533.489 249.781C533.522 248.72 533.337 247.664 532.946 246.677C532.555 245.691 531.966 244.795 531.214 244.045ZM546.692 242.66C548.43 240.839 549.372 238.402 549.313 235.886C549.216 233.399 548.184 231.04 546.424 229.28C544.664 227.52 542.306 226.489 539.819 226.391L539.671 226.391C537.109 226.404 534.656 227.431 532.849 229.247C531.042 231.064 530.028 233.521 530.028 236.083C530.023 238.546 530.961 240.917 532.649 242.71C533.574 243.636 534.301 244.74 534.785 245.956C535.27 247.171 535.502 248.473 535.467 249.781L538.682 249.781L538.682 243.501C538.028 243.278 537.46 242.859 537.053 242.302C536.646 241.745 536.42 241.076 536.407 240.386C536.407 239.52 536.751 238.69 537.363 238.078C537.975 237.466 538.805 237.122 539.671 237.122C540.536 237.122 541.366 237.466 541.978 238.078C542.59 238.69 542.934 239.52 542.934 240.386C542.921 241.076 542.695 241.745 542.288 242.302C541.881 242.859 541.313 243.278 540.66 243.501L540.66 249.781L543.923 249.781C543.888 247.138 544.881 244.585 546.692 242.66ZM539.671 241.671C540.012 241.671 540.339 241.536 540.58 241.295C540.821 241.054 540.956 240.727 540.956 240.386C540.956 240.045 540.821 239.718 540.58 239.476C540.339 239.235 540.012 239.1 539.671 239.1C539.33 239.1 539.003 239.235 538.761 239.476C538.52 239.718 538.385 240.045 538.385 240.386C538.385 240.727 538.52 241.054 538.761 241.295C539.002 241.536 539.33 241.671 539.671 241.671ZM537.594 257.891L541.747 257.891C542.377 257.889 542.989 257.686 543.496 257.313C544.002 256.939 544.377 256.415 544.566 255.814L534.775 255.814C534.964 256.415 535.339 256.939 535.845 257.313C536.352 257.686 536.964 257.889 537.594 257.891ZM544.714 253.836L544.714 251.759L534.627 251.759L534.627 253.836L544.714 253.836Z" fill="#A100FF"/>
<path id="Path" d="M538.681 220.309L538.681 215.859C538.681 215.596 538.786 215.345 538.971 215.159C539.157 214.974 539.408 214.87 539.67 214.87C539.933 214.87 540.184 214.974 540.37 215.159C540.555 215.345 540.659 215.596 540.659 215.859L540.659 220.309C540.659 220.571 540.555 220.823 540.37 221.009C540.184 221.194 539.933 221.298 539.67 221.298C539.408 221.298 539.157 221.194 538.971 221.009C538.786 220.823 538.681 220.571 538.681 220.309Z" fill="#A100FF"/>
<path id="Path_2" d="M519.989 232.771L524.439 232.771C524.702 232.771 524.953 232.875 525.139 233.061C525.324 233.246 525.428 233.498 525.428 233.76C525.428 234.022 525.324 234.274 525.139 234.459C524.953 234.645 524.702 234.749 524.439 234.749L519.989 234.749C519.727 234.749 519.475 234.645 519.29 234.459C519.104 234.274 519 234.022 519 233.76C519 233.498 519.104 233.246 519.29 233.061C519.475 232.875 519.727 232.771 519.989 232.771Z" fill="#A100FF"/>
<path id="Path_3" d="M554.901 234.749C554.639 234.749 554.387 234.645 554.202 234.459C554.016 234.274 553.912 234.022 553.912 233.76C553.912 233.498 554.016 233.246 554.202 233.061C554.387 232.875 554.639 232.771 554.901 232.771L559.352 232.771C559.614 232.771 559.865 232.875 560.051 233.061C560.236 233.246 560.341 233.498 560.341 233.76C560.341 234.022 560.236 234.274 560.051 234.459C559.865 234.645 559.614 234.749 559.352 234.749L554.901 234.749Z" fill="#A100FF"/>
<path id="Path_4" d="M553.912 221.792L550.797 224.957C550.598 225.111 550.356 225.197 550.104 225.204C549.837 225.204 549.577 225.118 549.363 224.957C549.198 224.755 549.108 224.501 549.108 224.24C549.108 223.979 549.198 223.726 549.363 223.523L552.528 220.408C552.718 220.265 552.954 220.196 553.191 220.212C553.429 220.229 553.652 220.331 553.82 220.5C553.989 220.668 554.091 220.891 554.107 221.129C554.124 221.366 554.055 221.602 553.912 221.792Z" fill="#A100FF"/>
<path id="Path_5" d="M525.429 220.408C525.517 220.312 525.624 220.236 525.743 220.183C525.862 220.131 525.991 220.104 526.121 220.104C526.251 220.104 526.38 220.131 526.499 220.183C526.618 220.236 526.725 220.312 526.813 220.408L529.978 223.524C530.143 223.726 530.233 223.98 530.233 224.241C530.233 224.502 530.143 224.755 529.978 224.958C529.764 225.118 529.504 225.205 529.236 225.205C528.985 225.198 528.743 225.111 528.544 224.958L525.429 221.793C525.333 221.705 525.256 221.598 525.204 221.479C525.151 221.36 525.124 221.231 525.124 221.101C525.124 220.97 525.151 220.842 525.204 220.723C525.256 220.603 525.333 220.496 525.429 220.408Z" fill="#A100FF"/>
</g>
<g id="Group 9886">
<circle id="Ellipse 41_2" cx="419.58" cy="234.949" r="59.5802" fill="#F8F8F8"/>
<g id="Group 9879">
<circle id="Ellipse 41_3" cx="419.337" cy="234.917" r="49.2394" stroke="#969696" stroke-width="2" stroke-linecap="round" stroke-dasharray="6 6"/>
<g id="Group 1006">
<circle id="Ellipse 40_2" cx="419.321" cy="234.917" r="41.3211" fill="#C4C4C4"/>
<g id="Ellipse 42_3" filter="url(#filter1_d)">
<circle cx="419.321" cy="234.917" r="41.3211" fill="white"/>
</g>
<path id="Ellipse 43_3" d="M470.274 232.316C470.274 241.789 467.633 253.675 462.648 261.731C457.662 269.786 450.53 276.292 442.052 280.518C433.574 284.744 424.085 286.522 414.652 285.654C405.219 284.786 395.31 280.401 387.746 274.698L389.787 271.99C396.848 277.313 406.157 281.467 414.963 282.277C423.768 283.088 432.625 281.427 440.539 277.483C448.453 273.538 455.111 267.465 459.764 259.946C464.418 252.427 466.883 241.159 466.883 232.316H470.274Z" fill="#7500C0"/>
</g>
</g>
</g>
<path id="Vector" d="M412.521 215.869C414.908 215.869 416.957 217.285 417.915 219.313C421.085 219.457 423.625 222.061 423.625 225.265C423.625 227.057 422.816 228.649 421.562 229.746C424.427 230.138 427.12 231.073 429.386 232.484C430.428 231.68 431.695 231.244 433.021 231.244C433.493 231.244 433.875 231.626 433.875 232.098C433.875 233.277 433.514 234.431 432.848 235.416C433.993 236.753 434.802 238.242 435.222 239.786L435.583 239.786C437.468 239.786 439 241.318 439 243.202C439 245.103 438.037 246.839 436.423 247.845L430.458 251.561L430.458 256.015C430.458 256.487 430.076 256.869 429.604 256.869L426.188 256.869C425.864 256.869 425.569 256.686 425.423 256.397L424.412 254.375C420.632 255.418 416.368 255.418 412.588 254.375L411.577 256.397C411.431 256.686 411.136 256.869 410.812 256.869L407.396 256.869C406.924 256.869 406.542 256.487 406.542 256.015L406.542 251.492C403.278 249.092 401.417 245.781 401.417 242.348C401.417 241.104 401.666 239.904 402.109 238.765C401.531 238.12 400.936 237.279 400.482 236.186C399.958 236.305 399.41 236.369 398.854 236.369C398.382 236.369 398 235.987 398 235.515C398 235.043 398.382 234.661 398.854 234.661C399.242 234.661 399.615 234.622 399.967 234.551C399.804 233.815 399.709 232.998 399.709 232.098C399.709 230.685 400.858 229.536 402.271 229.536C403.684 229.536 404.834 230.685 404.834 232.098C404.834 233.502 403.71 234.827 402.098 235.618C402.345 236.192 402.639 236.672 402.942 237.085C405.025 233.635 409.082 231.004 414.031 229.996C413.289 229.424 412.685 228.678 412.273 227.802C409.093 227.669 406.542 225.06 406.542 221.848C406.542 218.552 409.224 215.869 412.521 215.869ZM412.521 217.577C410.166 217.577 408.25 219.494 408.25 221.848C408.25 224.203 410.166 226.119 412.521 226.119C414.876 226.119 416.792 224.203 416.792 221.848C416.792 219.494 414.876 217.577 412.521 217.577ZM412.521 219.286C412.993 219.286 413.375 219.668 413.375 220.14L413.375 223.557C413.375 224.029 412.993 224.411 412.521 224.411C412.049 224.411 411.667 224.029 411.667 223.557L411.667 220.14C411.667 219.668 412.049 219.286 412.521 219.286ZM418.423 221.084C418.456 221.337 418.5 221.586 418.5 221.848C418.5 222.283 418.448 222.705 418.359 223.114C418.441 223.245 418.5 223.391 418.5 223.557L418.5 226.973C418.5 227.446 418.118 227.828 417.646 227.828C417.174 227.828 416.792 227.446 416.792 226.973L416.792 226.02C416.062 226.766 415.134 227.303 414.101 227.589C414.876 228.779 416.195 229.536 417.646 229.536C420.001 229.536 421.917 227.62 421.917 225.265C421.917 223.19 420.428 221.461 418.423 221.084ZM418.5 231.244C410.023 231.244 403.125 236.226 403.125 242.348C403.125 245.383 404.814 248.225 407.882 250.35C408.112 250.51 408.25 250.772 408.25 251.053L408.25 255.161L410.285 255.161L411.38 252.971C411.567 252.595 412.001 252.412 412.4 252.538C416.262 253.751 420.738 253.751 424.6 252.538C425.002 252.415 425.433 252.597 425.621 252.971L426.716 255.161L428.75 255.161L428.75 251.088C428.75 250.792 428.902 250.519 429.152 250.363L435.519 246.395C436.63 245.703 437.292 244.509 437.292 243.202C437.292 242.261 436.525 241.494 435.583 241.494L434.545 241.494C434.136 241.494 433.785 241.205 433.707 240.803C433.379 239.121 432.484 237.478 431.118 236.051C430.812 235.732 430.801 235.231 431.093 234.898C431.571 234.353 431.896 233.73 432.054 233.063C431.308 233.238 430.619 233.613 430.053 234.162C429.76 234.446 429.313 234.485 428.978 234.256C426.116 232.314 422.395 231.244 418.5 231.244L418.5 231.244ZM402.271 231.244C401.8 231.244 401.417 231.627 401.417 232.098C401.417 232.773 401.48 233.39 401.589 233.953C402.539 233.413 403.125 232.668 403.125 232.098C403.125 231.627 402.742 231.244 402.271 231.244ZM418.5 232.97C420.729 232.97 422.958 233.263 424.745 233.849C425.194 233.996 425.438 234.479 425.291 234.927C425.142 235.376 424.658 235.623 424.213 235.472C420.977 234.41 416.024 234.41 412.787 235.472C412.699 235.502 412.609 235.515 412.521 235.515C412.161 235.515 411.828 235.287 411.709 234.927C411.562 234.479 411.806 233.996 412.255 233.849C414.042 233.263 416.271 232.97 418.5 232.97ZM430.458 238.077C431.4 238.077 432.167 238.844 432.167 239.786C432.167 240.727 431.4 241.494 430.458 241.494C429.517 241.494 428.75 240.727 428.75 239.786C428.75 238.844 429.517 238.077 430.458 238.077Z" fill="#7500C0"/>
</g>
<g id="Group 9888">
<path id="Union" fill-rule="evenodd" clip-rule="evenodd" d="M561.238 287.036L517.557 287.036C517.557 287.036 522.59 290.682 522.59 294.056C522.59 297.429 517.557 301.076 517.557 301.076L561.238 301.076C561.238 301.076 555.878 297.505 555.878 294.056C555.878 290.606 561.238 287.036 561.238 287.036ZM657.901 294.529C690.806 294.529 717.481 267.854 717.481 234.949C717.481 202.044 690.806 175.369 657.901 175.369C624.995 175.369 598.32 202.044 598.32 234.949C598.32 267.854 624.995 294.529 657.901 294.529Z" fill="#F0F0F0"/>
<g id="Group 9877">
<g id="Group 362">
<circle id="Ellipse 40_3" cx="657.637" cy="237.134" r="41.3211" fill="#C4C4C4"/>
<g id="Ellipse 42_4" filter="url(#filter2_d)">
<circle cx="657.637" cy="237.134" r="41.3211" fill="white"/>
</g>
<circle id="Ellipse 41_4" cx="657.638" cy="237.134" r="49.2394" stroke="#969696" stroke-width="2" stroke-linecap="round" stroke-dasharray="6 6"/>
<path id="Ellipse 43_4" d="M708.59 234.446C708.59 243.919 705.949 255.893 700.963 263.948C695.978 272.003 688.846 278.509 680.368 282.735C671.889 286.961 662.401 288.74 652.968 287.872C643.534 287.003 633.626 282.618 626.062 276.916L628.103 274.208C635.164 279.531 644.473 283.684 653.278 284.495C662.084 285.305 670.941 283.645 678.855 279.7C686.769 275.756 693.426 269.683 698.08 262.164C702.733 254.644 705.198 243.288 705.198 234.446H708.59Z" fill="#7500C0"/>
</g>
<g id="Group_2">
<g id="Vector_2">
<mask id="path-31-inside-1" fill="white">
<path d="M646.242 232.97C645.402 232.209 644.878 231.087 644.878 229.871C644.878 228.414 645.608 227.136 646.704 226.408C646.709 226.318 646.73 226.227 646.77 226.142C647.242 225.136 648.375 223.814 649.863 223.071C649.024 222.31 648.5 221.189 648.5 219.973C648.5 217.71 650.258 215.869 652.42 215.869C654.581 215.869 656.339 217.71 656.339 219.973C656.339 221.189 655.815 222.312 654.974 223.073C655.801 223.509 656.724 224.413 657.46 225.319C658.048 224.495 658.957 223.623 660.062 223.071C659.222 222.31 658.699 221.189 658.699 219.973C658.698 217.71 660.455 215.869 662.617 215.869C664.779 215.869 666.537 217.71 666.537 219.973C666.537 221.19 666.013 222.312 665.172 223.073C666.236 223.634 667.466 224.972 668.241 226.09C668.306 226.185 668.336 226.291 668.351 226.399C669.454 227.126 670.19 228.409 670.19 229.871C670.19 231.087 669.666 232.21 668.826 232.97C670.306 233.759 672.422 236.299 672.888 237.884C673.259 239.178 672.95 242.753 672.916 243.09C672.916 244.706 671.755 246.03 670.263 246.232L670.097 249.653C670.097 250.923 669.151 251.957 667.989 251.957L666.28 251.957C666.277 251.957 666.274 251.959 666.271 251.959C666.267 251.959 666.264 251.957 666.261 251.957L664.553 251.957C663.551 251.957 662.714 251.189 662.501 250.182C662.357 250.218 662.21 250.243 662.062 250.259L661.867 254.311C661.867 255.722 660.817 256.869 659.526 256.869L655.542 256.869C654.252 256.869 653.202 255.722 653.203 254.347L653.006 250.259C652.856 250.243 652.708 250.218 652.563 250.181C652.344 251.197 651.512 251.958 650.515 251.958L648.807 251.958C648.804 251.958 648.801 251.96 648.798 251.96C648.795 251.96 648.791 251.958 648.788 251.958L647.079 251.958C645.917 251.958 644.972 250.924 644.972 249.69L644.805 246.233C643.312 246.032 642.152 244.713 642.155 243.157C642.118 242.754 641.81 239.179 642.182 237.881C642.646 236.297 644.765 233.755 646.242 232.97ZM654.323 224.254C654.068 224.131 653.61 224.035 653.068 223.989C652.754 223.961 652.506 223.69 652.486 223.35C652.466 223.011 652.68 222.708 652.988 222.638C654.194 222.366 655.07 221.245 655.07 219.973C655.07 218.464 653.881 217.236 652.42 217.236C650.958 217.236 649.769 218.464 649.769 219.973C649.769 221.245 650.644 222.366 651.85 222.638C652.158 222.708 652.372 223.011 652.352 223.35C652.333 223.69 652.084 223.961 651.77 223.989C651.228 224.034 650.771 224.131 650.511 224.256C649.747 224.614 649.06 225.195 648.56 225.78C648.639 225.775 648.717 225.767 648.797 225.767C650.958 225.767 652.716 227.608 652.716 229.871C652.716 231.087 652.193 232.21 651.352 232.97C652.254 233.447 653.272 234.48 654.034 235.466C654.287 235.285 654.532 235.127 654.759 235.017C653.739 234.157 653.097 232.838 653.097 231.405C653.097 229.052 654.78 227.107 656.953 226.807C656.146 225.672 655.034 224.586 654.323 224.254ZM664.519 224.254C664.265 224.131 663.808 224.034 663.266 223.989C662.951 223.961 662.703 223.69 662.683 223.35C662.663 223.011 662.878 222.708 663.186 222.638C664.392 222.366 665.268 221.246 665.268 219.974C665.268 218.464 664.078 217.236 662.617 217.236C661.155 217.236 659.966 218.464 659.966 219.973C659.966 221.245 660.842 222.366 662.048 222.638C662.356 222.708 662.57 223.011 662.55 223.35C662.53 223.69 662.282 223.961 661.968 223.989C661.426 224.034 660.97 224.131 660.709 224.256C659.469 224.837 658.51 225.926 658.123 226.715C658.114 226.745 658.108 226.777 658.094 226.805C660.276 227.095 661.971 229.045 661.971 231.405C661.971 232.84 661.328 234.157 660.308 235.018C660.534 235.127 660.779 235.285 661.034 235.466C661.796 234.48 662.817 233.444 663.716 232.971C662.875 232.21 662.351 231.088 662.351 229.872C662.351 227.609 664.109 225.768 666.271 225.768C666.286 225.768 666.301 225.77 666.316 225.77C665.68 225.063 665.006 224.481 664.519 224.254ZM664.552 250.591L665.636 250.591L665.636 245.268C665.636 244.891 665.919 244.585 666.27 244.585C666.621 244.585 666.904 244.891 666.904 245.268L666.904 250.591L667.988 250.591C668.451 250.591 668.828 250.17 668.828 249.618L669.324 239.368C669.342 238.99 669.645 238.693 669.99 238.721C670.34 238.741 670.609 239.062 670.591 239.439L670.329 244.838C671.085 244.629 671.648 243.919 671.65 243.024C671.778 241.606 671.899 239.066 671.677 238.292C671.303 237.019 669.341 234.698 668.174 234.151C667.918 234.028 667.461 233.932 666.92 233.886C666.605 233.859 666.357 233.587 666.336 233.248C666.317 232.909 666.53 232.606 666.839 232.536C668.045 232.264 668.92 231.143 668.92 229.871C668.92 228.362 667.731 227.134 666.269 227.134C664.807 227.134 663.618 228.362 663.618 229.871C663.618 231.143 664.494 232.264 665.7 232.536C666.009 232.605 666.223 232.909 666.203 233.248C666.183 233.588 665.934 233.859 665.62 233.886C665.078 233.932 664.622 234.028 664.361 234.154C663.74 234.444 662.803 235.321 662.037 236.301C663.315 237.516 664.697 239.344 665.092 240.714C665.52 242.19 665.16 246.31 665.121 246.709C665.121 247.859 664.587 248.93 663.709 249.598L663.711 249.653C663.712 250.17 664.089 250.591 664.552 250.591ZM653.232 241.759C653.578 241.73 653.879 242.029 653.898 242.406L654.469 254.311C654.469 254.968 654.95 255.502 655.541 255.502L656.899 255.502L656.899 248.159C656.899 247.781 657.183 247.475 657.534 247.475C657.884 247.475 658.168 247.781 658.168 248.159L658.168 255.502L659.526 255.502C660.117 255.502 660.598 254.968 660.599 254.276L661.169 242.405C661.187 242.029 661.491 241.729 661.835 241.758C662.185 241.777 662.454 242.099 662.436 242.475L662.129 248.859C662.349 248.814 662.562 248.746 662.76 248.631C663.434 248.238 663.854 247.501 663.857 246.642C664.007 244.992 664.147 242.035 663.882 241.121C663.559 240 662.131 238.084 660.765 236.934C660.4 236.626 660.06 236.393 659.785 236.262C659.468 236.114 658.925 235.998 658.294 235.946C657.979 235.92 657.73 235.648 657.71 235.309C657.69 234.969 657.904 234.665 658.214 234.596C659.655 234.273 660.702 232.931 660.702 231.405C660.702 229.599 659.28 228.13 657.533 228.13C655.785 228.13 654.364 229.599 654.364 231.405C654.364 232.931 655.41 234.273 656.852 234.596C657.161 234.665 657.376 234.969 657.356 235.309C657.336 235.648 657.086 235.92 656.772 235.946C656.141 235.999 655.598 236.114 655.286 236.26C655.007 236.393 654.666 236.627 654.3 236.935C652.934 238.084 651.507 240.001 651.183 241.122C650.919 242.034 651.059 244.991 651.212 246.708C651.212 247.501 651.631 248.238 652.307 248.63C652.505 248.746 652.718 248.813 652.937 248.858L652.631 242.474C652.613 242.099 652.882 241.778 653.232 241.759ZM643.419 243.09C643.419 243.93 643.981 244.631 644.736 244.838L644.476 239.439C644.458 239.062 644.727 238.741 645.076 238.721C645.424 238.694 645.724 238.991 645.743 239.368L646.239 249.653C646.239 250.17 646.615 250.591 647.078 250.591L648.162 250.591L648.162 245.268C648.162 244.891 648.446 244.585 648.797 244.585C649.147 244.585 649.431 244.891 649.431 245.268L649.431 250.591L650.514 250.591C650.977 250.591 651.354 250.17 651.355 249.624L651.356 249.598C650.477 248.931 649.945 247.867 649.947 246.776C649.905 246.311 649.545 242.19 649.973 240.716C650.368 239.345 651.751 237.516 653.028 236.301C652.262 235.321 651.325 234.444 650.699 234.152C650.443 234.029 649.985 233.932 649.445 233.887C649.13 233.86 648.881 233.588 648.861 233.249C648.842 232.909 649.056 232.606 649.364 232.536C650.571 232.264 651.446 231.144 651.446 229.872C651.446 228.363 650.257 227.135 648.795 227.135C647.333 227.135 646.144 228.363 646.144 229.872C646.144 231.144 647.019 232.264 648.225 232.537C648.533 232.607 648.748 232.91 648.728 233.249C648.708 233.589 648.459 233.86 648.145 233.887C647.604 233.932 647.147 234.029 646.886 234.154C645.724 234.698 643.762 237.019 643.389 238.288C643.169 239.066 643.289 241.606 643.419 243.09Z"/>
</mask>
<path d="M646.242 232.97C645.402 232.209 644.878 231.087 644.878 229.871C644.878 228.414 645.608 227.136 646.704 226.408C646.709 226.318 646.73 226.227 646.77 226.142C647.242 225.136 648.375 223.814 649.863 223.071C649.024 222.31 648.5 221.189 648.5 219.973C648.5 217.71 650.258 215.869 652.42 215.869C654.581 215.869 656.339 217.71 656.339 219.973C656.339 221.189 655.815 222.312 654.974 223.073C655.801 223.509 656.724 224.413 657.46 225.319C658.048 224.495 658.957 223.623 660.062 223.071C659.222 222.31 658.699 221.189 658.699 219.973C658.698 217.71 660.455 215.869 662.617 215.869C664.779 215.869 666.537 217.71 666.537 219.973C666.537 221.19 666.013 222.312 665.172 223.073C666.236 223.634 667.466 224.972 668.241 226.09C668.306 226.185 668.336 226.291 668.351 226.399C669.454 227.126 670.19 228.409 670.19 229.871C670.19 231.087 669.666 232.21 668.826 232.97C670.306 233.759 672.422 236.299 672.888 237.884C673.259 239.178 672.95 242.753 672.916 243.09C672.916 244.706 671.755 246.03 670.263 246.232L670.097 249.653C670.097 250.923 669.151 251.957 667.989 251.957L666.28 251.957C666.277 251.957 666.274 251.959 666.271 251.959C666.267 251.959 666.264 251.957 666.261 251.957L664.553 251.957C663.551 251.957 662.714 251.189 662.501 250.182C662.357 250.218 662.21 250.243 662.062 250.259L661.867 254.311C661.867 255.722 660.817 256.869 659.526 256.869L655.542 256.869C654.252 256.869 653.202 255.722 653.203 254.347L653.006 250.259C652.856 250.243 652.708 250.218 652.563 250.181C652.344 251.197 651.512 251.958 650.515 251.958L648.807 251.958C648.804 251.958 648.801 251.96 648.798 251.96C648.795 251.96 648.791 251.958 648.788 251.958L647.079 251.958C645.917 251.958 644.972 250.924 644.972 249.69L644.805 246.233C643.312 246.032 642.152 244.713 642.155 243.157C642.118 242.754 641.81 239.179 642.182 237.881C642.646 236.297 644.765 233.755 646.242 232.97ZM654.323 224.254C654.068 224.131 653.61 224.035 653.068 223.989C652.754 223.961 652.506 223.69 652.486 223.35C652.466 223.011 652.68 222.708 652.988 222.638C654.194 222.366 655.07 221.245 655.07 219.973C655.07 218.464 653.881 217.236 652.42 217.236C650.958 217.236 649.769 218.464 649.769 219.973C649.769 221.245 650.644 222.366 651.85 222.638C652.158 222.708 652.372 223.011 652.352 223.35C652.333 223.69 652.084 223.961 651.77 223.989C651.228 224.034 650.771 224.131 650.511 224.256C649.747 224.614 649.06 225.195 648.56 225.78C648.639 225.775 648.717 225.767 648.797 225.767C650.958 225.767 652.716 227.608 652.716 229.871C652.716 231.087 652.193 232.21 651.352 232.97C652.254 233.447 653.272 234.48 654.034 235.466C654.287 235.285 654.532 235.127 654.759 235.017C653.739 234.157 653.097 232.838 653.097 231.405C653.097 229.052 654.78 227.107 656.953 226.807C656.146 225.672 655.034 224.586 654.323 224.254ZM664.519 224.254C664.265 224.131 663.808 224.034 663.266 223.989C662.951 223.961 662.703 223.69 662.683 223.35C662.663 223.011 662.878 222.708 663.186 222.638C664.392 222.366 665.268 221.246 665.268 219.974C665.268 218.464 664.078 217.236 662.617 217.236C661.155 217.236 659.966 218.464 659.966 219.973C659.966 221.245 660.842 222.366 662.048 222.638C662.356 222.708 662.57 223.011 662.55 223.35C662.53 223.69 662.282 223.961 661.968 223.989C661.426 224.034 660.97 224.131 660.709 224.256C659.469 224.837 658.51 225.926 658.123 226.715C658.114 226.745 658.108 226.777 658.094 226.805C660.276 227.095 661.971 229.045 661.971 231.405C661.971 232.84 661.328 234.157 660.308 235.018C660.534 235.127 660.779 235.285 661.034 235.466C661.796 234.48 662.817 233.444 663.716 232.971C662.875 232.21 662.351 231.088 662.351 229.872C662.351 227.609 664.109 225.768 666.271 225.768C666.286 225.768 666.301 225.77 666.316 225.77C665.68 225.063 665.006 224.481 664.519 224.254ZM664.552 250.591L665.636 250.591L665.636 245.268C665.636 244.891 665.919 244.585 666.27 244.585C666.621 244.585 666.904 244.891 666.904 245.268L666.904 250.591L667.988 250.591C668.451 250.591 668.828 250.17 668.828 249.618L669.324 239.368C669.342 238.99 669.645 238.693 669.99 238.721C670.34 238.741 670.609 239.062 670.591 239.439L670.329 244.838C671.085 244.629 671.648 243.919 671.65 243.024C671.778 241.606 671.899 239.066 671.677 238.292C671.303 237.019 669.341 234.698 668.174 234.151C667.918 234.028 667.461 233.932 666.92 233.886C666.605 233.859 666.357 233.587 666.336 233.248C666.317 232.909 666.53 232.606 666.839 232.536C668.045 232.264 668.92 231.143 668.92 229.871C668.92 228.362 667.731 227.134 666.269 227.134C664.807 227.134 663.618 228.362 663.618 229.871C663.618 231.143 664.494 232.264 665.7 232.536C666.009 232.605 666.223 232.909 666.203 233.248C666.183 233.588 665.934 233.859 665.62 233.886C665.078 233.932 664.622 234.028 664.361 234.154C663.74 234.444 662.803 235.321 662.037 236.301C663.315 237.516 664.697 239.344 665.092 240.714C665.52 242.19 665.16 246.31 665.121 246.709C665.121 247.859 664.587 248.93 663.709 249.598L663.711 249.653C663.712 250.17 664.089 250.591 664.552 250.591ZM653.232 241.759C653.578 241.73 653.879 242.029 653.898 242.406L654.469 254.311C654.469 254.968 654.95 255.502 655.541 255.502L656.899 255.502L656.899 248.159C656.899 247.781 657.183 247.475 657.534 247.475C657.884 247.475 658.168 247.781 658.168 248.159L658.168 255.502L659.526 255.502C660.117 255.502 660.598 254.968 660.599 254.276L661.169 242.405C661.187 242.029 661.491 241.729 661.835 241.758C662.185 241.777 662.454 242.099 662.436 242.475L662.129 248.859C662.349 248.814 662.562 248.746 662.76 248.631C663.434 248.238 663.854 247.501 663.857 246.642C664.007 244.992 664.147 242.035 663.882 241.121C663.559 240 662.131 238.084 660.765 236.934C660.4 236.626 660.06 236.393 659.785 236.262C659.468 236.114 658.925 235.998 658.294 235.946C657.979 235.92 657.73 235.648 657.71 235.309C657.69 234.969 657.904 234.665 658.214 234.596C659.655 234.273 660.702 232.931 660.702 231.405C660.702 229.599 659.28 228.13 657.533 228.13C655.785 228.13 654.364 229.599 654.364 231.405C654.364 232.931 655.41 234.273 656.852 234.596C657.161 234.665 657.376 234.969 657.356 235.309C657.336 235.648 657.086 235.92 656.772 235.946C656.141 235.999 655.598 236.114 655.286 236.26C655.007 236.393 654.666 236.627 654.3 236.935C652.934 238.084 651.507 240.001 651.183 241.122C650.919 242.034 651.059 244.991 651.212 246.708C651.212 247.501 651.631 248.238 652.307 248.63C652.505 248.746 652.718 248.813 652.937 248.858L652.631 242.474C652.613 242.099 652.882 241.778 653.232 241.759ZM643.419 243.09C643.419 243.93 643.981 244.631 644.736 244.838L644.476 239.439C644.458 239.062 644.727 238.741 645.076 238.721C645.424 238.694 645.724 238.991 645.743 239.368L646.239 249.653C646.239 250.17 646.615 250.591 647.078 250.591L648.162 250.591L648.162 245.268C648.162 244.891 648.446 244.585 648.797 244.585C649.147 244.585 649.431 244.891 649.431 245.268L649.431 250.591L650.514 250.591C650.977 250.591 651.354 250.17 651.355 249.624L651.356 249.598C650.477 248.931 649.945 247.867 649.947 246.776C649.905 246.311 649.545 242.19 649.973 240.716C650.368 239.345 651.751 237.516 653.028 236.301C652.262 235.321 651.325 234.444 650.699 234.152C650.443 234.029 649.985 233.932 649.445 233.887C649.13 233.86 648.881 233.588 648.861 233.249C648.842 232.909 649.056 232.606 649.364 232.536C650.571 232.264 651.446 231.144 651.446 229.872C651.446 228.363 650.257 227.135 648.795 227.135C647.333 227.135 646.144 228.363 646.144 229.872C646.144 231.144 647.019 232.264 648.225 232.537C648.533 232.607 648.748 232.91 648.728 233.249C648.708 233.589 648.459 233.86 648.145 233.887C647.604 233.932 647.147 234.029 646.886 234.154C645.724 234.698 643.762 237.019 643.389 238.288C643.169 239.066 643.289 241.606 643.419 243.09Z" fill="#7500C0" stroke="#7500C0" stroke-width="2" mask="url(#path-31-inside-1)"/>
</g>
</g>
</g>
</g>
<g id="Group 9878">
<g id="Group 1007">
<circle id="Ellipse 40_4" r="41.3211" transform="matrix(0.685773 0.727815 0.727815 -0.685773 539.125 356.649)" fill="#C4C4C4"/>
<g id="Ellipse 42_5" filter="url(#filter3_d)">
<circle r="41.3211" transform="matrix(0.685773 0.727815 0.727815 -0.685773 539.125 356.649)" fill="white"/>
</g>
<circle id="Ellipse 41_5" r="49.2394" transform="matrix(0.685773 0.727815 0.727815 -0.685773 539.126 356.65)" stroke="#969696" stroke-width="2" stroke-linecap="round" stroke-dasharray="6 6"/>
<path id="Ellipse 43_5" d="M572.108 395.578C579.003 389.082 585.909 378.946 588.353 369.794C590.797 360.641 590.641 350.989 587.902 341.92C585.164 332.852 579.951 324.726 572.85 318.456C565.749 312.186 555.763 307.981 546.425 306.387L545.854 309.729C554.57 311.218 563.977 315.145 570.606 320.998C577.234 326.851 582.1 334.435 584.656 342.901C587.212 351.366 587.358 360.376 585.076 368.919C582.795 377.462 576.218 387.046 569.783 393.11L572.108 395.578Z" fill="#7500C0"/>
</g>
<g id="Group_3">
<path id="Vector_3" d="M555.447 380.869L559.004 380.869C560.11 380.869 561.009 379.958 561.009 378.837L561.009 365.815C561.009 364.692 560.11 363.782 559.004 363.782L554.47 363.782C553.919 363.782 553.388 364.016 553.01 364.421C552.626 364.834 552.429 365.398 552.472 365.967L553.45 378.989C553.528 380.043 554.405 380.869 555.447 380.869ZM559.004 365.49C559.167 365.49 559.3 365.636 559.3 365.813L559.3 378.835C559.3 379.015 559.167 379.16 559.004 379.16L555.445 379.16C555.293 379.16 555.163 379.03 555.151 378.863L554.174 365.841C554.164 365.709 554.225 365.622 554.261 365.584C554.302 365.54 554.371 365.49 554.47 365.49L559.004 365.49Z" fill="#7500C0"/>
<path id="Vector_4" d="M537.143 380.869C545.663 380.869 553.536 377.344 553.868 377.194L554.645 376.842L553.94 375.287L553.161 375.639C553.085 375.673 545.285 379.16 537.143 379.16C532.229 379.16 528.342 377.506 523.383 375.169C521.871 374.454 521.709 373.629 521.709 373.306C521.709 373.048 521.77 372.679 522.061 372.389C522.459 371.991 523.728 372.079 525.152 372.607C525.456 372.718 525.753 372.816 526.064 372.898C530.23 373.971 536.354 374.733 540.646 374.019L540.403 372.329C538.266 372.583 536.029 372.122 533.922 371.628C533.183 371.519 532.682 370.943 532.682 370.272C532.682 369.58 533.188 369.014 533.883 368.927C536.282 368.631 539.327 368.209 542.317 367.493C542.997 367.329 544.518 367.087 545.916 367.087C547.635 367.087 550.459 367.502 552.308 368.274L553.096 368.602L553.753 367.025L552.966 366.695C550.891 365.831 547.848 365.378 545.916 365.378C544.468 365.378 542.828 365.614 541.919 365.832C539.013 366.53 536.029 366.941 533.755 367.222C532.135 367.423 530.975 368.73 530.975 370.272C530.975 371.011 531.243 371.698 531.693 372.233C529.825 371.987 528.024 371.637 526.493 371.242C526.238 371.177 525.994 371.097 525.746 371.005C524.461 370.524 522.115 369.918 520.854 371.181C520.302 371.729 520 372.486 520 373.306C520 373.954 520.258 375.584 522.657 376.713C526.787 378.661 531.467 380.869 537.143 380.869Z" fill="#7500C0"/>
<path id="Vector_5" d="M529.96 363.302C530.138 363.259 534.333 362.225 537.623 360.745C545.162 357.359 543.973 341.328 543.92 340.646L542.946 339.869C532.501 341.388 528.453 348.195 527.747 349.545C524.909 354.97 528.834 362.55 529.001 362.869L529.96 363.302ZM542.264 341.712C542.399 345.101 542.44 356.708 536.923 359.187C534.529 360.262 531.537 361.116 530.223 361.468C529.405 359.655 527.255 354.17 529.261 350.338C529.878 349.157 533.331 343.356 542.264 341.712Z" fill="#7500C0"/>
<path id="Vector_6" d="M526.835 372.325L528.544 372.325L528.544 371.471C528.544 361.097 536.79 351.626 536.874 351.532L537.437 350.891L536.158 349.76L535.592 350.401C535.235 350.806 526.835 360.44 526.835 371.471L526.835 372.325Z" fill="#7500C0"/>
</g>
</g>
</g>
<text id="Green Logistics Strategy" fill="#A100FF" xml:space="preserve" font-weight="600" font-family="Graphik" font-size="20" letter-spacing="0px"><tspan x="425" y="16.44">Green Logistics Strategy&#10;</tspan></text>
<text id="Economic" fill="#7500C0" xml:space="preserve" font-weight="600" font-family="Graphik" font-size="16" letter-spacing="0px"><tspan x="91" y="218.152">Economic</tspan></text>
<text id="Social" fill="#7500C0" xml:space="preserve" font-weight="600" font-family="Graphik" font-size="16" letter-spacing="0px"><tspan x="791" y="367.152">Social</tspan></text>
<g id="Group 9748">
<text id="Green Logistics Strategy_2" fill="#460073" xml:space="preserve" font-weight="600" font-family="Graphik" font-size="16" letter-spacing="0px"><tspan x="73" y="57.152">Green Logistics Strategy&#10;</tspan></text>
<text id="Sustainable Transportation" fill="#460073" xml:space="preserve" font-weight="600" font-family="Graphik" font-size="16" letter-spacing="0px"><tspan x="435" y="57.152">Sustainable Transportation&#13;&#10;</tspan></text>
<text id="Green Logistics Strategy_3" fill="#460073" xml:space="preserve" font-weight="600" font-family="Graphik" font-size="16" letter-spacing="0px"><tspan x="820" y="57.152">Green Logistics Strategy&#10;</tspan></text>
<g id="Group 9743">
<g id="Group 9733">
<g id="Frame 50">
<circle id="Ellipse 118" cx="28" cy="76" r="3" fill="black"/>
</g>
<text id="New delivery models" fill="black" xml:space="preserve" font-weight="600" font-family="Graphik" font-size="12" letter-spacing="0px"><tspan x="39" y="79.816">New delivery models&#13;</tspan></text>
</g>
<g id="Group 9734">
<g id="Frame 50_2">
<circle id="Ellipse 118_2" cx="28" cy="95" r="3" fill="black"/>
</g>
<text id="Green Warehouse Management" fill="black" xml:space="preserve" font-weight="600" font-family="Graphik" font-size="12" letter-spacing="0px"><tspan x="39" y="97.816">Green Warehouse </tspan><tspan x="39" y="113.816">Management&#13;</tspan></text>
</g>
</g>
<g id="Group 9744">
<g id="Group 9733_2">
<g id="Frame 50_3" clip-path="url(#clip0)">
<circle id="Ellipse 118_3" cx="763.087" cy="76" r="3" fill="black"/>
</g>
<text id="Include take-back programs in Returns Management system to increase recycling and minimize waste." fill="black" xml:space="preserve" font-weight="600" font-family="Graphik" font-size="12" letter-spacing="0px"><tspan x="774.408" y="79.816">Include take-back programs in Returns Management </tspan><tspan x="774.408" y="95.816">system to increase recycling and minimize waste.&#13;&#10;</tspan></text>
</g>
<g id="Group 9734_2">
<g id="Frame 50_4" clip-path="url(#clip1)">
<circle id="Ellipse 118_4" cx="763.087" cy="110" r="3" fill="black"/>
</g>
<text id="Green Warehouse Management_2" fill="black" xml:space="preserve" font-weight="600" font-family="Graphik" font-size="12" letter-spacing="0px"><tspan x="774" y="113.816">Green Warehouse Management&#13;</tspan></text>
</g>
</g>
<g id="Group 9745">
<g id="Group 9733_3">
<g id="Frame 50_5" clip-path="url(#clip2)">
<circle id="Ellipse 118_5" cx="389.087" cy="77" r="3" fill="black"/>
</g>
<text id="Route optimization to minimize distance travelled" fill="black" xml:space="preserve" font-weight="600" font-family="Graphik" font-size="12" letter-spacing="0px"><tspan x="400" y="80.816">Route optimization to minimize distance travelled&#10;</tspan><tspan x="400" y="96.816">&#10;</tspan></text>
</g>
<g id="Group 9734_3">
<g id="Frame 50_6" clip-path="url(#clip3)">
<circle id="Ellipse 118_6" cx="389.087" cy="94" r="3" fill="black"/>
</g>
<g id="Frame 51" clip-path="url(#clip4)">
<circle id="Ellipse 118_7" cx="389.087" cy="124" r="3" fill="black"/>
</g>
<text id="Load &#38; vehicle optimization to minimize no. of shipments" fill="black" xml:space="preserve" font-weight="600" font-family="Graphik" font-size="12" letter-spacing="0px"><tspan x="400" y="97.816">Load &#38; vehicle optimization to minimize no. </tspan><tspan x="400" y="113.816">of shipments&#13;&#10;</tspan></text>
<text id="Green sourcing of service providers" fill="black" xml:space="preserve" font-weight="600" font-family="Graphik" font-size="12" letter-spacing="0px"><tspan x="400" y="127.816">Green sourcing of service providers&#13;&#10;</tspan></text>
</g>
</g>
</g>
<path id="Line 39" d="M164 153C163.448 153 163 153.448 163 154C163 154.552 163.448 155 164 155V153ZM919 155C919.552 155 920 154.552 920 154C920 153.448 919.552 153 919 153V155ZM164 155H919V153H164V155Z" fill="#5A5A5A"/>
<path id="Arrow 3" d="M539.293 174.707C539.683 175.098 540.317 175.098 540.707 174.707L547.071 168.343C547.462 167.953 547.462 167.319 547.071 166.929C546.681 166.538 546.047 166.538 545.657 166.929L540 172.586L534.343 166.929C533.953 166.538 533.319 166.538 532.929 166.929C532.538 167.319 532.538 167.953 532.929 168.343L539.293 174.707ZM539 153.5L539 174L541 174L541 153.5L539 153.5Z" fill="#5A5A5A"/>
<g id="Group 9743_2">
<g id="Group 9733_4">
<g id="Frame 50_7">
<circle id="Ellipse 118_8" cx="96" cy="231" r="3" fill="black"/>
</g>
<text id="Lower fuel costs" fill="black" xml:space="preserve" font-weight="600" font-family="Graphik" font-size="12" letter-spacing="0px"><tspan x="107" y="234.816">Lower fuel costs&#13;</tspan></text>
</g>
<g id="Group 9735">
<g id="Frame 50_8">
<circle id="Ellipse 118_9" cx="96" cy="282" r="3" fill="black"/>
</g>
<text id="Access to new market" fill="black" xml:space="preserve" font-weight="600" font-family="Graphik" font-size="12" letter-spacing="0px"><tspan x="107" y="284.816">Access to new market</tspan></text>
</g>
<g id="Group 9734_4">
<g id="Frame 50_9">
<circle id="Ellipse 118_10" cx="96" cy="249" r="3" fill="black"/>
</g>
<text id="Access to subsidies and tax benefits" fill="black" xml:space="preserve" font-weight="600" font-family="Graphik" font-size="12" letter-spacing="0px"><tspan x="107" y="251.816">Access to subsidies and tax </tspan><tspan x="107" y="267.816">benefits&#13;</tspan></text>
</g>
</g>
<g id="Group 9747">
<g id="Group 9733_5">
<g id="Frame 50_10">
<circle id="Ellipse 118_11" cx="796" cy="382" r="3" fill="black"/>
</g>
<text id="Enhanced brand image" fill="black" xml:space="preserve" font-weight="600" font-family="Graphik" font-size="12" letter-spacing="0px"><tspan x="807" y="385.816">Enhanced brand image&#13;</tspan></text>
</g>
<g id="Group 9735_2">
<g id="Frame 50_11">
<circle id="Ellipse 118_12" cx="796" cy="417" r="3" fill="black"/>
</g>
<text id="Improved employee health and safety" fill="black" xml:space="preserve" font-weight="600" font-family="Graphik" font-size="12" letter-spacing="0px"><tspan x="807" y="419.816">Improved employee health and safety&#13;</tspan></text>
</g>
<g id="Group 9734_5">
<g id="Frame 50_12">
<circle id="Ellipse 118_13" cx="796" cy="400" r="3" fill="black"/>
</g>
<text id="Improved risk mitigation" fill="black" xml:space="preserve" font-weight="600" font-family="Graphik" font-size="12" letter-spacing="0px"><tspan x="807" y="402.816">Improved risk mitigation&#13;</tspan></text>
</g>
</g>
<circle id="Ellipse 202" cx="377" cy="212" r="4" fill="#969696"/>
<circle id="Ellipse 204" cx="703" cy="213" r="4" fill="#969696"/>
<circle id="Ellipse 208" cx="595" cy="362" r="4" fill="#969696"/>
<line id="Line 40" x1="369" y1="212" x2="289" y2="212" stroke="#969696" stroke-width="2" stroke-linecap="round" stroke-dasharray="6 6"/>
<g id="Group 9965">
<g id="Group 9964">
<circle id="Ellipse 206" cx="786" cy="213" r="5" fill="#7500C0"/>
<text id="Environmental" fill="#7500C0" xml:space="preserve" font-weight="600" font-family="Graphik" font-size="16" letter-spacing="0px"><tspan x="804" y="218.152">Environmental</tspan></text>
<g id="Group 9746">
<g id="Group 9733_6">
<g id="Frame 50_13">
<circle id="Ellipse 118_14" cx="809" cy="233" r="3" fill="black"/>
</g>
<text id="Lower carbon footprint" fill="black" xml:space="preserve" font-weight="600" font-family="Graphik" font-size="12" letter-spacing="0px"><tspan x="820" y="236.816">Lower carbon footprint&#13;</tspan></text>
</g>
<g id="Group 9735_3">
<g id="Frame 50_14">
<circle id="Ellipse 118_15" cx="809" cy="268" r="3" fill="black"/>
</g>
<text id="Increased regulatory compliance" fill="black" xml:space="preserve" font-weight="600" font-family="Graphik" font-size="12" letter-spacing="0px"><tspan x="820" y="270.816">Increased regulatory compliance&#13;</tspan></text>
</g>
<g id="Group 9734_6">
<g id="Frame 50_15">
<circle id="Ellipse 118_16" cx="809" cy="251" r="3" fill="black"/>
</g>
<text id="Improved resource efficiency" fill="black" xml:space="preserve" font-weight="600" font-family="Graphik" font-size="12" letter-spacing="0px"><tspan x="820" y="253.816">Improved resource efficiency&#13;</tspan></text>
</g>
</g>
<line id="Line 45" x1="780" y1="213" x2="700" y2="213" stroke="#969696" stroke-width="2" stroke-linecap="round" stroke-dasharray="6 6"/>
</g>
</g>
<line id="Line 41" x1="773" y1="362" x2="603" y2="362" stroke="#969696" stroke-width="2" stroke-linecap="round" stroke-dasharray="6 6"/>
<circle id="Ellipse 205" cx="288" cy="212" r="5" fill="#7500C0"/>
<path id="Ellipse 207" d="M782 361C782 363.761 779.761 366 777 366C774.239 366 772 363.761 772 361C772 358.239 774.239 356 777 356C779.761 356 782 358.239 782 361Z" fill="#7500C0"/>
</g>
</g>
</g>
<defs>
<filter id="filter0_d" x="487.318" y="184.88" width="102.642" height="102.642" filterUnits="userSpaceOnUse" color-interpolation-filters="sRGB">
<feFlood flood-opacity="0" result="BackgroundImageFix"/>
<feColorMatrix in="SourceAlpha" type="matrix" values="0 0 0 0 0 0 0 0 0 0 0 0 0 0 0 0 0 0 127 0"/>
<feOffset/>
<feGaussianBlur stdDeviation="5"/>
<feColorMatrix type="matrix" values="0 0 0 0 0 0 0 0 0 0 0 0 0 0 0 0 0 0 0.25 0"/>
<feBlend mode="normal" in2="BackgroundImageFix" result="effect1_dropShadow"/>
<feBlend mode="normal" in="SourceGraphic" in2="effect1_dropShadow" result="shape"/>
</filter>
<filter id="filter1_d" x="368" y="183.596" width="102.642" height="102.642" filterUnits="userSpaceOnUse" color-interpolation-filters="sRGB">
<feFlood flood-opacity="0" result="BackgroundImageFix"/>
<feColorMatrix in="SourceAlpha" type="matrix" values="0 0 0 0 0 0 0 0 0 0 0 0 0 0 0 0 0 0 127 0"/>
<feOffset/>
<feGaussianBlur stdDeviation="5"/>
<feColorMatrix type="matrix" values="0 0 0 0 0 0 0 0 0 0 0 0 0 0 0 0 0 0 0.25 0"/>
<feBlend mode="normal" in2="BackgroundImageFix" result="effect1_dropShadow"/>
<feBlend mode="normal" in="SourceGraphic" in2="effect1_dropShadow" result="shape"/>
</filter>
<filter id="filter2_d" x="606.316" y="185.813" width="102.642" height="102.642" filterUnits="userSpaceOnUse" color-interpolation-filters="sRGB">
<feFlood flood-opacity="0" result="BackgroundImageFix"/>
<feColorMatrix in="SourceAlpha" type="matrix" values="0 0 0 0 0 0 0 0 0 0 0 0 0 0 0 0 0 0 127 0"/>
<feOffset/>
<feGaussianBlur stdDeviation="5"/>
<feColorMatrix type="matrix" values="0 0 0 0 0 0 0 0 0 0 0 0 0 0 0 0 0 0 0.25 0"/>
<feBlend mode="normal" in2="BackgroundImageFix" result="effect1_dropShadow"/>
<feBlend mode="normal" in="SourceGraphic" in2="effect1_dropShadow" result="shape"/>
</filter>
<filter id="filter3_d" x="470.714" y="288.238" width="136.822" height="136.822" filterUnits="userSpaceOnUse" color-interpolation-filters="sRGB">
<feFlood flood-opacity="0" result="BackgroundImageFix"/>
<feColorMatrix in="SourceAlpha" type="matrix" values="0 0 0 0 0 0 0 0 0 0 0 0 0 0 0 0 0 0 127 0"/>
<feOffset/>
<feGaussianBlur stdDeviation="5"/>
<feColorMatrix type="matrix" values="0 0 0 0 0 0 0 0 0 0 0 0 0 0 0 0 0 0 0.25 0"/>
<feBlend mode="normal" in2="BackgroundImageFix" result="effect1_dropShadow"/>
<feBlend mode="normal" in="SourceGraphic" in2="effect1_dropShadow" result="shape"/>
</filter>
<clipPath id="clip0">
<rect width="6.17476" height="13" fill="white" transform="translate(760 66)"/>
</clipPath>
<clipPath id="clip1">
<rect width="6.17476" height="13" fill="white" transform="translate(760 100)"/>
</clipPath>
<clipPath id="clip2">
<rect width="6.17476" height="13" fill="white" transform="translate(386 67)"/>
</clipPath>
<clipPath id="clip3">
<rect width="6.17476" height="13" fill="white" transform="translate(386 84)"/>
</clipPath>
<clipPath id="clip4">
<rect width="6.17476" height="13" fill="white" transform="translate(386 114)"/>
</clipPath>
</defs>
</svg>
