<svg width="1094" height="404" viewBox="0 0 1094 404" fill="none" xmlns="http://www.w3.org/2000/svg">
<g id="Slide 4">
<rect id="Rectangle 539" x="0.5" y="28.5" width="691" height="375" fill="white" stroke="#454545"/>
<g id="Group 3612">
<g id="Group 3601">
<g id="Group 3600">
<text id="2021Q3" transform="translate(661 307.734) rotate(-90)" fill="black" xml:space="preserve" font-weight="500" font-family="Graphik" font-size="12" letter-spacing="0px"><tspan x="0" y="13.28">2021Q3</tspan></text>
<text id="2021Q1" transform="translate(642 304.535) rotate(-90)" fill="black" xml:space="preserve" font-weight="500" font-family="Graphik" font-size="12" letter-spacing="0px"><tspan x="0" y="13.28">2021Q1</tspan></text>
<text id="2020Q3" transform="translate(623 310.936) rotate(-90)" fill="black" xml:space="preserve" font-weight="500" font-family="Graphik" font-size="12" letter-spacing="0px"><tspan x="0" y="13.28">2020Q3</tspan></text>
<text id="2020Q1" transform="translate(604 308.801) rotate(-90)" fill="black" xml:space="preserve" font-weight="500" font-family="Graphik" font-size="12" letter-spacing="0px"><tspan x="0" y="13.28">2020Q1</tspan></text>
<text id="2019Q3" transform="translate(585 307.734) rotate(-90)" fill="black" xml:space="preserve" font-weight="500" font-family="Graphik" font-size="12" letter-spacing="0px"><tspan x="0" y="13.28">2019Q3</tspan></text>
<text id="2019Q1" transform="translate(566 305.6) rotate(-90)" fill="black" xml:space="preserve" font-weight="500" font-family="Graphik" font-size="12" letter-spacing="0px"><tspan x="0" y="13.28">2019Q1</tspan></text>
<text id="2018Q3" transform="translate(547 307.734) rotate(-90)" fill="black" xml:space="preserve" font-weight="500" font-family="Graphik" font-size="12" letter-spacing="0px"><tspan x="0" y="13.28">2018Q3</tspan></text>
<text id="2018Q1" transform="translate(528 305.6) rotate(-90)" fill="black" xml:space="preserve" font-weight="500" font-family="Graphik" font-size="12" letter-spacing="0px"><tspan x="0" y="13.28">2018Q1</tspan></text>
<text id="2017Q3" transform="translate(509 306.668) rotate(-90)" fill="black" xml:space="preserve" font-weight="500" font-family="Graphik" font-size="12" letter-spacing="0px"><tspan x="0" y="13.28">2017Q3</tspan></text>
<text id="2017Q1" transform="translate(490 304.535) rotate(-90)" fill="black" xml:space="preserve" font-weight="500" font-family="Graphik" font-size="12" letter-spacing="0px"><tspan x="0" y="13.28">2017Q1</tspan></text>
<text id="2016Q3" transform="translate(471 307.734) rotate(-90)" fill="black" xml:space="preserve" font-weight="500" font-family="Graphik" font-size="12" letter-spacing="0px"><tspan x="0" y="13.28">2016Q3</tspan></text>
<text id="2016Q1" transform="translate(452 305.6) rotate(-90)" fill="black" xml:space="preserve" font-weight="500" font-family="Graphik" font-size="12" letter-spacing="0px"><tspan x="0" y="13.28">2016Q1</tspan></text>
<text id="2015Q3" transform="translate(433 307.734) rotate(-90)" fill="black" xml:space="preserve" font-weight="500" font-family="Graphik" font-size="12" letter-spacing="0px"><tspan x="0" y="13.28">2015Q3</tspan></text>
<text id="2015Q1" transform="translate(414 305.6) rotate(-90)" fill="black" xml:space="preserve" font-weight="500" font-family="Graphik" font-size="12" letter-spacing="0px"><tspan x="0" y="13.28">2015Q1</tspan></text>
<text id="2014Q2" transform="translate(395 307.734) rotate(-90)" fill="black" xml:space="preserve" font-weight="500" font-family="Graphik" font-size="12" letter-spacing="0px"><tspan x="0" y="13.28">2014Q2</tspan></text>
<text id="2014Q1" transform="translate(376 305.6) rotate(-90)" fill="black" xml:space="preserve" font-weight="500" font-family="Graphik" font-size="12" letter-spacing="0px"><tspan x="0" y="13.28">2014Q1</tspan></text>
<text id="2013Q3" transform="translate(357 307.734) rotate(-90)" fill="black" xml:space="preserve" font-weight="500" font-family="Graphik" font-size="12" letter-spacing="0px"><tspan x="0" y="13.28">2013Q3</tspan></text>
<text id="2013Q1" transform="translate(338 305.6) rotate(-90)" fill="black" xml:space="preserve" font-weight="500" font-family="Graphik" font-size="12" letter-spacing="0px"><tspan x="0" y="13.28">2013Q1</tspan></text>
<text id="2012Q3" transform="translate(319 307.734) rotate(-90)" fill="black" xml:space="preserve" font-weight="500" font-family="Graphik" font-size="12" letter-spacing="0px"><tspan x="0" y="13.28">2012Q3</tspan></text>
<text id="2012Q1" transform="translate(300 304.535) rotate(-90)" fill="black" xml:space="preserve" font-weight="500" font-family="Graphik" font-size="12" letter-spacing="0px"><tspan x="0" y="13.28">2012Q1</tspan></text>
<text id="2011Q3" transform="translate(281 305.6) rotate(-90)" fill="black" xml:space="preserve" font-weight="500" font-family="Graphik" font-size="12" letter-spacing="0px"><tspan x="0" y="13.28">2011Q3</tspan></text>
<text id="2011Q1" transform="translate(262 302.4) rotate(-90)" fill="black" xml:space="preserve" font-weight="500" font-family="Graphik" font-size="12" letter-spacing="0px"><tspan x="0" y="13.28">2011Q1</tspan></text>
<text id="2010Q3" transform="translate(243 308.801) rotate(-90)" fill="black" xml:space="preserve" font-weight="500" font-family="Graphik" font-size="12" letter-spacing="0px"><tspan x="0" y="13.28">2010Q3</tspan></text>
<text id="2010Q1" transform="translate(224 306.668) rotate(-90)" fill="black" xml:space="preserve" font-weight="500" font-family="Graphik" font-size="12" letter-spacing="0px"><tspan x="0" y="13.28">2010Q1</tspan></text>
<text id="2009Q3" transform="translate(205 312) rotate(-90)" fill="black" xml:space="preserve" font-weight="500" font-family="Graphik" font-size="12" letter-spacing="0px"><tspan x="0" y="13.28">2009Q3</tspan></text>
<text id="2009Q1" transform="translate(186 308.801) rotate(-90)" fill="black" xml:space="preserve" font-weight="500" font-family="Graphik" font-size="12" letter-spacing="0px"><tspan x="0" y="13.28">2009Q1</tspan></text>
<text id="2008Q3" transform="translate(167 312) rotate(-90)" fill="black" xml:space="preserve" font-weight="500" font-family="Graphik" font-size="12" letter-spacing="0px"><tspan x="0" y="13.28">2008Q3</tspan></text>
<text id="2008Q1" transform="translate(148 308.801) rotate(-90)" fill="black" xml:space="preserve" font-weight="500" font-family="Graphik" font-size="12" letter-spacing="0px"><tspan x="0" y="13.28">2008Q1</tspan></text>
<text id="2007Q3" transform="translate(129 309.869) rotate(-90)" fill="black" xml:space="preserve" font-weight="500" font-family="Graphik" font-size="12" letter-spacing="0px"><tspan x="0" y="13.28">2007Q3</tspan></text>
<text id="2007Q1" transform="translate(110 307.734) rotate(-90)" fill="black" xml:space="preserve" font-weight="500" font-family="Graphik" font-size="12" letter-spacing="0px"><tspan x="0" y="13.28">2007Q1</tspan></text>
<text id="2006Q3" transform="translate(91 312) rotate(-90)" fill="black" xml:space="preserve" font-weight="500" font-family="Graphik" font-size="12" letter-spacing="0px"><tspan x="0" y="13.28">2006Q3</tspan></text>
<text id="2006Q1" transform="translate(72 308.801) rotate(-90)" fill="black" xml:space="preserve" font-weight="500" font-family="Graphik" font-size="12" letter-spacing="0px"><tspan x="0" y="13.28">2006Q1</tspan></text>
<text id="2005Q3" transform="translate(53 310.936) rotate(-90)" fill="black" xml:space="preserve" font-weight="500" font-family="Graphik" font-size="12" letter-spacing="0px"><tspan x="0" y="13.28">2005Q3</tspan></text>
<text id="2005Q1" transform="translate(34 308.801) rotate(-90)" fill="black" xml:space="preserve" font-weight="500" font-family="Graphik" font-size="12" letter-spacing="0px"><tspan x="0" y="13.28">2005Q1</tspan></text>
</g>
<text id="130" fill="black" xml:space="preserve" font-weight="500" font-family="Graphik" font-size="12" letter-spacing="0px"><tspan x="12" y="64.5085">130</tspan></text>
<text id="120" fill="black" xml:space="preserve" font-weight="500" font-family="Graphik" font-size="12" letter-spacing="0px"><tspan x="12" y="92.3288">120</tspan></text>
<text id="110" fill="black" xml:space="preserve" font-weight="500" font-family="Graphik" font-size="12" letter-spacing="0px"><tspan x="12" y="120.145">110</tspan></text>
<text id="100" fill="black" xml:space="preserve" font-weight="500" font-family="Graphik" font-size="12" letter-spacing="0px"><tspan x="12" y="147.966">100</tspan></text>
<text id="90" fill="black" xml:space="preserve" font-weight="500" font-family="Graphik" font-size="12" letter-spacing="0px"><tspan x="12" y="175.784">90</tspan></text>
<text id="80" fill="black" xml:space="preserve" font-weight="500" font-family="Graphik" font-size="12" letter-spacing="0px"><tspan x="12" y="203.602">80</tspan></text>
<text id="70" fill="black" xml:space="preserve" font-weight="500" font-family="Graphik" font-size="12" letter-spacing="0px"><tspan x="12" y="231.421">70</tspan></text>
<text id="60" fill="black" xml:space="preserve" font-weight="500" font-family="Graphik" font-size="12" letter-spacing="0px"><tspan x="12" y="259.239">60</tspan></text>
</g>
<g id="Group 3618">
<g id="Group 3616">
<line id="Line 10" x1="43" y1="228.73" x2="677" y2="228.73" stroke="#BEBEBE"/>
<line id="Line 12" x1="42" y1="171.232" x2="677" y2="171.232" stroke="#BEBEBE"/>
<line id="Line 13" x1="42" y1="142.902" x2="677" y2="142.902" stroke="#BEBEBE"/>
<line id="Line 14" x1="42" y1="114.57" x2="676" y2="114.57" stroke="#BEBEBE"/>
<line id="Line 15" x1="43" y1="86.2402" x2="677" y2="86.2402" stroke="#BEBEBE"/>
<line id="Line 16" x1="42" y1="57.9082" x2="677" y2="57.9082" stroke="#BEBEBE"/>
<rect id="Rectangle 507" x="43" y="228.91" width="634" height="27.8186" fill="#EBEBEB"/>
<rect id="Rectangle 508" x="43" y="200.193" width="634" height="27.8186" fill="#F8F8F8"/>
<rect id="Rectangle 509" x="43" y="171.477" width="634" height="27.8186" fill="#EBEBEB"/>
<rect id="Rectangle 510" x="43" y="143.658" width="634" height="26.9212" fill="#F8F8F8"/>
<rect id="Rectangle 511" x="43" y="114.941" width="634" height="27.8186" fill="#EBEBEB"/>
<rect id="Rectangle 512" x="43" y="87.125" width="634" height="26.9212" fill="#F8F8F8"/>
<rect id="Rectangle 513" x="43" y="58.4082" width="634" height="27.8186" fill="#EBEBEB"/>
</g>
<g id="Group 3617">
<line id="Line 11" x1="42" y1="199.318" x2="677" y2="199.318" stroke="#BEBEBE"/>
<path id="Line 3" d="M43.8729 224.66L51.9995 219.647L63.9995 216.314L72.9995 207.981L91.4995 198.399L102 198.399L111.5 190.899L126 184.65L136.999 183.816L154.499 175.9L175.499 175.9L195.5 220.481L205 220.481L240 182.15L250.5 180.067L265 170.067L279 170.067L288 165.068L309 165.068L316 159.651L339 161.318L351.5 155.485L369 155.485L381.5 151.319L392.5 151.319L412 142.569L425.5 145.902L438 142.569L447.5 137.986L461 142.569L477.5 137.986L489.5 133.403L499.5 127.987L520 117.988L530.5 115.488L539.5 115.488L549 111.321L560 111.321L572.5 110.071L581.5 112.571L590.5 111.321L603.5 115.488L608.5 120.904" stroke="#A100FF" stroke-width="3" stroke-linecap="round"/>
<path id="Line 4" d="M608.731 120.554L618.499 171.733L639.501 155.902L655 90.4885L672.5 86.7389L673.5 86.7389" stroke="#009654" stroke-width="3" stroke-linecap="round"/>
<path id="Line 5" d="M599 113.82L610 129.236L618.5 248.811L638.5 232.562L675.98 113.82" stroke="#004CFF" stroke-width="3" stroke-linecap="round"/>
<line id="Line 7" x1="1.5" y1="-1.5" x2="37.2991" y2="-1.5" transform="matrix(0.798988 -0.601348 0.734994 0.678073 642 155.9)" stroke="#009654" stroke-width="3" stroke-linecap="round" stroke-dasharray="4 4"/>
<path id="Line 6" d="M266 170.898L425.122 139.638L535.5 117.569L558.5 112.986L598 103.82L673 86.7375" stroke="#FFAE02" stroke-width="3" stroke-linecap="round" stroke-dasharray="6 6"/>
</g>
</g>
<line id="Line 9" x1="42.5" y1="257.625" x2="42.5" y2="57.5104" stroke="black"/>
</g>
<g id="Group 3614">
<rect id="Rectangle 520" x="700.5" y="28.5" width="393" height="178.475" fill="white" stroke="#454545"/>
<text id="Total global logistics market size forecast CAGR% (2019-24)" fill="#460073" xml:space="preserve" font-weight="500" font-family="Graphik" font-size="14" letter-spacing="0px"><tspan x="732.297" y="49.4412">Total global logistics market size forecast CAGR% </tspan><tspan x="860.307" y="67.4412">(2019-24) &#13;&#10;</tspan></text>
<g id="Group 3605">
<path id="Rectangle 520_2" d="M855 91.7129H1052.62C1055.59 91.7129 1058 94.1235 1058 97.0971C1058 100.071 1055.59 102.481 1052.62 102.481H855V91.7129Z" fill="#F9EEFF"/>
<path id="Rectangle 522" d="M855 106.969H1052.62C1055.59 106.969 1058 109.379 1058 112.353C1058 115.327 1055.59 117.737 1052.62 117.737H855V106.969Z" fill="#F9EEFF"/>
<path id="Rectangle 523" d="M855 122.225H1052.62C1055.59 122.225 1058 124.635 1058 127.609C1058 130.582 1055.59 132.993 1052.62 132.993H855V122.225Z" fill="#F9EEFF"/>
<path id="Rectangle 524" d="M855 137.48H1052.62C1055.59 137.48 1058 139.891 1058 142.865C1058 145.838 1055.59 148.249 1052.62 148.249H855V137.48Z" fill="#F9EEFF"/>
<path id="Rectangle 525" d="M855 152.734H1052.62C1055.59 152.734 1058 155.145 1058 158.119C1058 161.092 1055.59 163.503 1052.62 163.503H855V152.734Z" fill="#F9EEFF"/>
<path id="Rectangle 521" d="M855 76.457H1052.62C1055.59 76.457 1058 78.8676 1058 81.8413C1058 84.8149 1055.59 87.2255 1052.62 87.2255H855V76.457Z" fill="#F9EEFF"/>
<text id="Total" fill="#5A5A5A" xml:space="preserve" font-weight="500" font-family="Graphik" font-size="12" letter-spacing="0px"><tspan x="818" y="87.9441">Total</tspan></text>
<text id="4.5" fill="black" xml:space="preserve" font-weight="500" font-family="Graphik" font-size="12" letter-spacing="0px"><tspan x="1067" y="87.9441">4.5</tspan></text>
<text id="8.4" fill="black" xml:space="preserve" font-weight="500" font-family="Graphik" font-size="12" letter-spacing="0px"><tspan x="1067" y="103.2">8.4</tspan></text>
<text id="5.4" fill="black" xml:space="preserve" font-weight="500" font-family="Graphik" font-size="12" letter-spacing="0px"><tspan x="1067" y="118.454">5.4</tspan></text>
<text id="4.8" fill="black" xml:space="preserve" font-weight="500" font-family="Graphik" font-size="12" letter-spacing="0px"><tspan x="1067" y="133.71">4.8</tspan></text>
<text id="4" fill="black" xml:space="preserve" font-weight="500" font-family="Graphik" font-size="12" letter-spacing="0px"><tspan x="1067" y="148.966">4</tspan></text>
<text id="0" fill="black" xml:space="preserve" font-weight="500" font-family="Graphik" font-size="12" letter-spacing="0px"><tspan x="851" y="183.962">0</tspan></text>
<text id="2" fill="black" xml:space="preserve" font-weight="500" font-family="Graphik" font-size="12" letter-spacing="0px"><tspan x="889" y="183.962">2</tspan></text>
<text id="4_2" fill="black" xml:space="preserve" font-weight="500" font-family="Graphik" font-size="12" letter-spacing="0px"><tspan x="930" y="183.962">4</tspan></text>
<text id="6" fill="black" xml:space="preserve" font-weight="500" font-family="Graphik" font-size="12" letter-spacing="0px"><tspan x="967" y="183.962">6</tspan></text>
<text id="8" fill="black" xml:space="preserve" font-weight="500" font-family="Graphik" font-size="12" letter-spacing="0px"><tspan x="1008" y="183.962">8</tspan></text>
<text id="10" fill="black" xml:space="preserve" font-weight="500" font-family="Graphik" font-size="12" letter-spacing="0px"><tspan x="1045" y="183.962">10</tspan></text>
<text id="3.6" fill="black" xml:space="preserve" font-weight="500" font-family="Graphik" font-size="12" letter-spacing="0px"><tspan x="1067" y="164.221">3.6</tspan></text>
<text id="Domestic Express" fill="#5A5A5A" xml:space="preserve" font-weight="500" font-family="Graphik" font-size="12" letter-spacing="0px"><tspan x="746" y="103.2">Domestic Express</tspan></text>
<text id="International Express" fill="#5A5A5A" xml:space="preserve" font-weight="500" font-family="Graphik" font-size="12" letter-spacing="0px"><tspan x="728" y="118.454">International Express</tspan></text>
<text id="Contract Logistics" fill="#5A5A5A" xml:space="preserve" font-weight="500" font-family="Graphik" font-size="12" letter-spacing="0px"><tspan x="743" y="133.71">Contract Logistics</tspan></text>
<text id="Sea Freight (Forwarding)" fill="#5A5A5A" xml:space="preserve" font-weight="500" font-family="Graphik" font-size="12" letter-spacing="0px"><tspan x="708" y="148.966">Sea Freight (Forwarding)</tspan></text>
<text id="Fir Freight (Forwarding)" fill="#5A5A5A" xml:space="preserve" font-weight="500" font-family="Graphik" font-size="12" letter-spacing="0px"><tspan x="714" y="164.221">Air Freight (Forwarding)</tspan></text>
<path id="Rectangle 514" d="M855 76.457H937.616C940.589 76.457 943 78.8676 943 81.8413C943 84.8149 940.589 87.2255 937.616 87.2255H855V76.457Z" fill="#CD78FF"/>
<path id="Rectangle 515" d="M855 91.7129H1012.62C1015.59 91.7129 1018 94.1235 1018 97.0971C1018 100.071 1015.59 102.481 1012.62 102.481H855V91.7129Z" fill="#C052FF"/>
<path id="Rectangle 516" d="M855 106.969H954.616C957.589 106.969 960 109.379 960 112.353C960 115.327 957.589 117.737 954.616 117.737H855V106.969Z" fill="#A50BFF"/>
<path id="Rectangle 517" d="M855 122.225H943.616C946.589 122.225 949 124.635 949 127.609C949 130.582 946.589 132.993 943.616 132.993H855V122.225Z" fill="#8000D1"/>
<path id="Rectangle 518" d="M855 137.48H926.616C929.589 137.48 932 139.891 932 142.865C932 145.838 929.589 148.249 926.616 148.249H855V137.48Z" fill="#580091"/>
<path id="Rectangle 519" d="M855 152.734H919.616C922.589 152.734 925 155.145 925 158.119C925 161.092 922.589 163.503 919.616 163.503H855V152.734Z" fill="#470373"/>
<line id="Line 17" x1="855.5" y1="72.8691" x2="855.5" y2="167.093" stroke="#969696"/>
</g>
</g>
<g id="Group 3615">
<rect id="Rectangle 521_2" x="700.5" y="215.154" width="393" height="188.346" fill="white" stroke="#454545"/>
<text id="Total global logistics market size" fill="#460073" xml:space="preserve" font-weight="500" font-family="Graphik" font-size="14" letter-spacing="0px"><tspan x="781.826" y="236.096">Total global logistics market size &#13;</tspan></text>
<text id="4.5% CAGR (2019-24)" fill="#5A5A5A" xml:space="preserve" font-weight="500" font-family="Graphik" font-size="12" letter-spacing="0px"><tspan x="831.248" y="253.163">4.5% CAGR (2019-24)&#13;&#10;</tspan></text>
<g id="Group 3611">
<g id="Group 3608">
<rect id="Rectangle 529" x="753" y="307.082" width="22" height="55.6372" fill="#CD78FF"/>
<rect id="Rectangle 531" x="805.5" y="303.494" width="22" height="59.2267" fill="#C052FF"/>
<rect id="Rectangle 532" x="858.5" y="300.803" width="22" height="61.9189" fill="#A50BFF"/>
<rect id="Rectangle 533" x="911" y="297.213" width="22" height="65.5084" fill="#8000D1"/>
<rect id="Rectangle 534" x="965" y="294.521" width="22" height="68.2005" fill="#580090"/>
<rect id="Rectangle 535" x="1018" y="290.93" width="22" height="71.79" fill="#470373"/>
<line id="Line 21" x1="741" y1="362.221" x2="1052" y2="362.221" stroke="#969696"/>
<line id="Line 19" y1="-0.5" x2="311.57" y2="-0.5" transform="matrix(0.998169 -0.0604835 0.0750342 0.997181 741 308.879)" stroke="#454545" stroke-dasharray="2 2"/>
</g>
<g id="Group 3610">
<text id="5,692.7" fill="black" xml:space="preserve" font-weight="500" font-family="Graphik" font-size="12" letter-spacing="0px"><tspan x="744.26" y="276.391">5,692.7</tspan></text>
<text id="6,231.0" fill="black" xml:space="preserve" font-weight="500" font-family="Graphik" font-size="12" letter-spacing="0px"><tspan x="796.072" y="276.391">6,231.0</tspan></text>
<text id="6,511.4" fill="black" xml:space="preserve" font-weight="500" font-family="Graphik" font-size="12" letter-spacing="0px"><tspan x="851.479" y="276.391">6,511.4</tspan></text>
<text id="6,804.4" fill="black" xml:space="preserve" font-weight="500" font-family="Graphik" font-size="12" letter-spacing="0px"><tspan x="901.078" y="276.391">6,804.4</tspan></text>
<text id="7,110.6" fill="black" xml:space="preserve" font-weight="500" font-family="Graphik" font-size="12" letter-spacing="0px"><tspan x="958.457" y="276.391">7,110.6</tspan></text>
<text id="7,430.6" fill="black" xml:space="preserve" font-weight="500" font-family="Graphik" font-size="12" letter-spacing="0px"><tspan x="1009.27" y="276.391">7,430.6</tspan></text>
</g>
<g id="Group 3609">
<text id="2019" fill="black" xml:space="preserve" font-weight="500" font-family="Graphik" font-size="12" letter-spacing="0px"><tspan x="749.209" y="381.384">2019</tspan></text>
<text id="2020" fill="black" xml:space="preserve" font-weight="500" font-family="Graphik" font-size="12" letter-spacing="0px"><tspan x="800.391" y="381.384">2020</tspan></text>
<text id="2021" fill="black" xml:space="preserve" font-weight="500" font-family="Graphik" font-size="12" letter-spacing="0px"><tspan x="856.055" y="381.384">2021</tspan></text>
<text id="2022" fill="black" xml:space="preserve" font-weight="500" font-family="Graphik" font-size="12" letter-spacing="0px"><tspan x="908.053" y="381.384">2022</tspan></text>
<text id="2023" fill="black" xml:space="preserve" font-weight="500" font-family="Graphik" font-size="12" letter-spacing="0px"><tspan x="961.33" y="381.384">2023</tspan></text>
<text id="2024" fill="black" xml:space="preserve" font-weight="500" font-family="Graphik" font-size="12" letter-spacing="0px"><tspan x="1013.32" y="381.384">2024</tspan></text>
</g>
</g>
</g>
<g id="Group 3619">
<text id="Merchandise trade volume" fill="black" xml:space="preserve" font-weight="500" font-family="Graphik" font-size="12" font-style="italic" letter-spacing="0px"><tspan x="101" y="327.62">Merchandise trade volume</tspan></text>
<rect id="Rectangle 536" x="79" y="316.059" width="14" height="12.5632" rx="6.28162" fill="#A100FF"/>
</g>
<g id="Group 3623">
<text id="Pessimistic scenario" fill="black" xml:space="preserve" font-weight="500" font-family="Graphik" font-size="12" font-style="italic" letter-spacing="0px"><tspan x="334" y="327.62">Pessimistic scenario</tspan></text>
<rect id="Rectangle 537" x="312" y="316.059" width="14" height="12.5632" rx="6.28162" fill="#004CFF"/>
</g>
<g id="Group 3620">
<text id="Optimistic scenario" fill="black" xml:space="preserve" font-weight="500" font-family="Graphik" font-size="12" font-style="italic" letter-spacing="0px"><tspan x="529" y="327.62">Optimistic scenario</tspan></text>
<rect id="Rectangle 538" x="507" y="316.059" width="14" height="12.5632" rx="6.28162" fill="#009654"/>
</g>
<g id="Group 3622">
<text id="Pre-pandemic trend" fill="black" xml:space="preserve" font-weight="500" font-family="Graphik" font-size="12" font-style="italic" letter-spacing="0px"><tspan x="402" y="349.155">Pre-pandemic trend</tspan></text>
<line id="Line 23" x1="381.5" y1="343.271" x2="392.5" y2="343.271" stroke="#FFAE02" stroke-width="3" stroke-linecap="round" stroke-dasharray="6 6"/>
</g>
<g id="Group 3621">
<text id="Weaker recovery" fill="black" xml:space="preserve" font-weight="500" font-family="Graphik" font-size="12" font-style="italic" letter-spacing="0px"><tspan x="224" y="349.155">Weaker recovery</tspan></text>
<line id="Line 24" x1="203.5" y1="345.068" x2="214.5" y2="345.068" stroke="#009654" stroke-width="3" stroke-linecap="round" stroke-dasharray="6 6"/>
</g>
<text id="Source: WTO" fill="#5A5A5A" xml:space="preserve" font-weight="500" font-family="Graphik" font-size="12" font-style="italic" letter-spacing="0px"><tspan x="602.176" y="398.436">Source: WTO</tspan></text>
<text id="The WTO&#39;s forecast showed two pathways: an optimistic scenario where world trade fell 13% in 2020, and a pessimistic one where trade fell 32%" fill="black" xml:space="preserve" font-weight="500" font-family="Graphik" font-size="16" letter-spacing="0px"><tspan x="43" y="374.376">The WTO&#39;s forecast showed two pathways: an optimistic scenario where world trade </tspan><tspan x="43" y="394.376">fell 13% in 2020, and a pessimistic one where trade fell 32%&#13;&#10;</tspan></text>
<text id="Source: Transport Intelligence" fill="#5A5A5A" xml:space="preserve" font-weight="500" font-family="Graphik" font-size="12" font-style="italic" letter-spacing="0px"><tspan x="915.102" y="395.436">Source: Transport Intelligence </tspan></text>
<text id="Source: Transport Intelligence_2" fill="#5A5A5A" xml:space="preserve" font-weight="500" font-family="Graphik" font-size="12" font-style="italic" letter-spacing="0px"><tspan x="915.102" y="200.706">Source: Transport Intelligence </tspan></text>
<line id="Line 25" x1="677.5" y1="59.4082" x2="677.5" y2="258.625" stroke="#BEBEBE"/>
<line id="Line 8" x1="42" y1="258.125" x2="678" y2="258.125" stroke="black"/>
<line id="Line 26" x1="43" y1="355.939" x2="677" y2="355.94" stroke="#B5B5B5"/>
<text id="World trade volume 2005Qmerchandise1&#226;&#128;&#145;2021Q4" fill="#460073" xml:space="preserve" font-weight="500" font-family="Graphik" font-size="14" letter-spacing="0px"><tspan x="184.787" y="15.16">World merchandise trade volume 2005Q1&#x2011;2021Q4&#13;&#10;</tspan></text>
</g>
</svg>
