<svg width="970" height="455" viewBox="0 0 970 455" fill="none" xmlns="http://www.w3.org/2000/svg">
<g id="Frame 9142">
<g id="text-box">
<g id="box1">
<g id="Rectangle 753" filter="url(#filter0_dd)">
<rect x="3" y="2" width="280" height="120" fill="white"/>
</g>
<text id="Strategy" fill="#018FFF"  font-family="Graphik" font-size="16" font-weight="600" letter-spacing="0px"><tspan x="11" y="25.152">STRATEGY</tspan></text>
<g id="Frame 15" clip-path="url(#clip0)">
<g id="Key Activity Bullets">
<text id="&#226;&#128;&#162;" fill="black"  font-family="Graphik" font-size="16.0287" letter-spacing="0px"><tspan x="11" y="47.4013">&#x2022;</tspan></text>
<text id="Text" fill="black"  font-family="Graphik" font-size="14" letter-spacing="0px"><tspan x="23" y="47.952">How will you monetize your </tspan><tspan x="23" y="65.952">software?&#13;</tspan></text>
</g>
<g id="Key Activity Bullets_2">
<text id="&#226;&#128;&#162;_2" fill="black"  font-family="Graphik" font-size="16.0287" letter-spacing="0px"><tspan x="11" y="87.4013">&#x2022;</tspan></text>
<text id="Text_2" fill="black"  font-family="Graphik" font-size="14" letter-spacing="0px"><tspan x="23" y="85.452">What will be your new operating </tspan><tspan x="23" y="103.452">model?&#13;</tspan></text>
</g>
</g>
</g>
<g id="box2">
<g id="Rectangle 754" filter="url(#filter1_dd)">
<rect x="345" y="2" width="280" height="120" fill="white"/>
</g>
<text id="Financial" fill="#018FFF"  font-family="Graphik" font-size="16" font-weight="600" letter-spacing="0px"><tspan x="356" y="25.152">FINANCIAL</tspan></text>
<g id="Frame 15_2">
<g id="Key Activity Bullets_3">
<text id="&#226;&#128;&#162;_3" fill="black"  font-family="Graphik" font-size="16.0287" letter-spacing="0px"><tspan x="356" y="47.4013">&#x2022;</tspan></text>
<text id="Text_3" fill="black"  font-family="Graphik" font-size="14" letter-spacing="0px"><tspan x="368" y="45.452">How much investment is required?&#13;</tspan></text>
</g>
<g id="Key Activity Bullets_4">
<text id="&#226;&#128;&#162;_4" fill="black"  font-family="Graphik" font-size="16.0287" letter-spacing="0px"><tspan x="356" y="70.4013">&#x2022;</tspan></text>
<text id="Text_4" fill="black"  font-family="Graphik" font-size="14" letter-spacing="0px"><tspan x="368" y="68.452">Are you prepared for tighter cost </tspan><tspan x="368" y="86.452">management due to reduced </tspan><tspan x="368" y="104.452">cash flow?</tspan></text>
</g>
</g>
</g>
<g id="box3">
<g id="Rectangle 755" filter="url(#filter2_dd)">
<rect x="687" y="2" width="280" height="120" fill="white"/>
</g>
<text id="Organization &#38; Culture" fill="#018FFF"  font-family="Graphik" font-size="16" font-weight="600" letter-spacing="0px"><tspan x="701" y="25.152">ORGANIZATION &#38; CULTURE</tspan></text>
<g id="Frame 15_3">
<g id="Key Activity Bullets_5" clip-path="url(#clip1)">
<text id="&#226;&#128;&#162;_5" fill="black"  font-family="Graphik" font-size="16.0287" letter-spacing="0px"><tspan x="701" y="46.4013">&#x2022;</tspan></text>
<text id="Text_5" fill="black"  font-family="Graphik" font-size="14" letter-spacing="0px"><tspan x="713" y="42.452">Do you have the right people, with </tspan><tspan x="713" y="60.452">the requisite expertise in SaaS?&#13;</tspan></text>
</g>
<g id="Key Activity Bullets_6">
<text id="&#226;&#128;&#162;_6" fill="black"  font-family="Graphik" font-size="16.0287" letter-spacing="0px"><tspan x="701" y="81.4013">&#x2022;</tspan></text>
<text id="Text_6" fill="black"  font-family="Graphik" font-size="14" letter-spacing="0px"><tspan x="713" y="79.452">Are you implementing </tspan><tspan x="713" y="97.452">SaaS-specific org structures like </tspan><tspan x="713" y="115.452">Customer Success</tspan></text>
</g>
</g>
</g>
<g id="box6">
<g id="Rectangle 758" filter="url(#filter3_dd)">
<rect x="687" y="164" width="280" height="120" fill="white"/>
</g>
<text id="Quote to Cash" fill="#018FFF"  font-family="Graphik" font-size="16" font-weight="600" letter-spacing="0px"><tspan x="701" y="187.152">QUOTE TO CASH</tspan></text>
<g id="Frame 15_4" clip-path="url(#clip2)">
<g id="Key Activity Bullets_7">
<text id="&#226;&#128;&#162;_7" fill="black"  font-family="Graphik" font-size="16.0287" letter-spacing="0px"><tspan x="701" y="204.401">&#x2022;</tspan></text>
<text id="Text_7" fill="black"  font-family="Graphik" font-size="14" letter-spacing="0px"><tspan x="713" y="206.452">Can you adequately quote and </tspan><tspan x="713" y="224.452">process orders for complex </tspan><tspan x="713" y="242.452">subscription models?&#13;</tspan></text>
</g>
<g id="Key Activity Bullets_8">
<text id="&#226;&#128;&#162;_8" fill="black"  font-family="Graphik" font-size="16.0287" letter-spacing="0px"><tspan x="701" y="262.401">&#x2022;</tspan></text>
<text id="Text_8" fill="black"  font-family="Graphik" font-size="14" letter-spacing="0px"><tspan x="713" y="260.452">Are engineering and operations </tspan><tspan x="713" y="278.452">systems aligned for entitlement?</tspan></text>
</g>
</g>
</g>
<g id="box9">
<g id="Rectangle 761" filter="url(#filter4_dd)">
<rect x="687" y="326" width="280" height="125" fill="white"/>
</g>
<text id="Platform" fill="#018FFF"  font-family="Graphik" font-size="16" font-weight="600" letter-spacing="0px"><tspan x="701" y="348.152">PLATFORM</tspan></text>
<g id="Frame 15_5" clip-path="url(#clip3)">
<g id="Key Activity Bullets_9">
<text id="&#226;&#128;&#162;_9" fill="black"  font-family="Graphik" font-size="16.0287" letter-spacing="0px"><tspan x="702" y="365.401">&#x2022;</tspan></text>
<text id="Text_9" fill="black"  font-family="Graphik" font-size="14" letter-spacing="0px"><tspan x="714" y="365.452">Are you looking to stand up your </tspan><tspan x="714" y="383.452">own multi-tenant infrastructure or </tspan><tspan x="714" y="401.452">leverage the cloud?&#13;</tspan></text>
</g>
<g id="Key Activity Bullets_10">
<text id="&#226;&#128;&#162;_10" fill="black"  font-family="Graphik" font-size="16.0287" letter-spacing="0px"><tspan x="702" y="423.401">&#x2022;</tspan></text>
<text id="Text_10" fill="black"  font-family="Graphik" font-size="14" letter-spacing="0px"><tspan x="714" y="421.452">Are your operations currently </tspan><tspan x="714" y="439.452">leveraging SaaS technology?</tspan></text>
</g>
</g>
</g>
<g id="box5">
<g id="Rectangle 757" filter="url(#filter5_dd)">
<rect x="346" y="164" width="280" height="120" fill="white"/>
</g>
<text id="Sales &#38; Marketing" fill="#018FFF"  font-family="Graphik" font-size="16" font-weight="600" letter-spacing="0px"><tspan x="356" y="187.152">SALES &#38; MARKETING</tspan></text>
<g id="Frame 15_6">
<g id="Key Activity Bullets_11" clip-path="url(#clip4)">
<text id="&#226;&#128;&#162;_11" fill="black"  font-family="Graphik" font-size="16.0287" letter-spacing="0px"><tspan x="360" y="209.401">&#x2022;</tspan></text>
<text id="Text_11" fill="black"  font-family="Graphik" font-size="14" letter-spacing="0px"><tspan x="372" y="209.952">How will you manage your </tspan><tspan x="372" y="227.952">channel relationships </tspan><tspan x="372" y="245.952">differently?&#13;</tspan></text>
</g>
<g id="Key Activity Bullets_12" clip-path="url(#clip5)">
<text id="&#226;&#128;&#162;_12" fill="black"  font-family="Graphik" font-size="16.0287" letter-spacing="0px"><tspan x="360" y="249.401">&#x2022;</tspan></text>
<text id="Text_12" fill="black"  font-family="Graphik" font-size="14" letter-spacing="0px"><tspan x="372" y="247.452">Are your sales processes aligned with </tspan><tspan x="372" y="265.452">a &#x201c;land and expand&#x201d; selling model?</tspan></text>
</g>
</g>
</g>
<g id="box8 ">
<g id="Rectangle 760" filter="url(#filter6_dd)">
<rect x="346" y="326" width="280" height="125" fill="white"/>
</g>
<text id="Customer Success" fill="#018FFF"  font-family="Graphik" font-size="16" font-weight="600" letter-spacing="0px"><tspan x="356" y="348.152">CUSTOMER SUCCESS</tspan></text>
<g id="Frame 15_7">
<g id="Key Activity Bullets_13">
<text id="&#226;&#128;&#162;_13" fill="black"  font-family="Graphik" font-size="16.0287" letter-spacing="0px"><tspan x="357" y="366.401">&#x2022;</tspan></text>
<text id="Text_13" fill="black"  font-family="Graphik" font-size="14" letter-spacing="0px"><tspan x="369" y="367.452">How do you re-architect your renewals </tspan><tspan x="369" y="385.452">organization to manage the ongoing </tspan><tspan x="369" y="403.452">customer relationship?&#13;</tspan></text>
</g>
<g id="Key Activity Bullets_14">
<text id="&#226;&#128;&#162;_14" fill="black"  font-family="Graphik" font-size="16.0287" letter-spacing="0px"><tspan x="357" y="426.401">&#x2022;</tspan></text>
<text id="Text_14" fill="black"  font-family="Graphik" font-size="14" letter-spacing="0px"><tspan x="369" y="424.452">Do I need a dedicated customer </tspan><tspan x="369" y="442.452">engagement team?</tspan></text>
</g>
</g>
</g>
<g id="box3_2">
<g id="Rectangle 756" filter="url(#filter7_dd)">
<rect x="3" y="164" width="280" height="120" fill="white"/>
</g>
<text id="Product Engineering" fill="#018FFF"  font-family="Graphik" font-size="16" font-weight="600" letter-spacing="0px"><tspan x="11" y="187.152">PRODUCT ENGINEERING</tspan></text>
<g id="Frame 15_8" clip-path="url(#clip6)">
<g id="Key Activity Bullets_15">
<text id="&#226;&#128;&#162;_15" fill="black"  font-family="Graphik" font-size="16.0287" letter-spacing="0px"><tspan x="11" y="209.401">&#x2022;</tspan></text>
<text id="Text_15" fill="black"  font-family="Graphik" font-size="14" letter-spacing="0px"><tspan x="23" y="209.952">Will the code base need to be </tspan><tspan x="23" y="227.952">refactored or entirely rebuilt?</tspan></text>
</g>
<g id="Key Activity Bullets_16">
<text id="&#226;&#128;&#162;_16" fill="black"  font-family="Graphik" font-size="16.0287" letter-spacing="0px"><tspan x="11" y="249.401">&#x2022;</tspan></text>
<text id="Text_16" fill="black"  font-family="Graphik" font-size="14" letter-spacing="0px"><tspan x="23" y="247.452">How are you engineering for </tspan><tspan x="23" y="265.452">scale and liability?</tspan></text>
</g>
</g>
</g>
<g id="box6_2">
<g id="Rectangle 759" filter="url(#filter8_dd)">
<rect x="3" y="326" width="280" height="125" fill="white"/>
</g>
<text id="accounting" fill="#018FFF"  font-family="Graphik" font-size="16" font-weight="600" letter-spacing="0px"><tspan x="11" y="348.152">ACCOUNTING</tspan></text>
<g id="Frame 16">
<g id="Key Activity Bullets_17">
<text id="&#226;&#128;&#162;_17" fill="black"  font-family="Graphik" font-size="16.0287" letter-spacing="0px"><tspan x="11" y="367.401">&#x2022;</tspan></text>
<text id="Text_17" fill="black"  font-family="Graphik" font-size="14" letter-spacing="0px"><tspan x="23" y="367.952">Are you prepared to reliably </tspan><tspan x="23" y="385.952">recognize recurring revenue?&#13;</tspan></text>
</g>
<g id="Key Activity Bullets_18">
<text id="&#226;&#128;&#162;_18" fill="black"  font-family="Graphik" font-size="16.0287" letter-spacing="0px"><tspan x="11" y="407.401">&#x2022;</tspan></text>
<text id="Text_18" fill="black"  font-family="Graphik" font-size="14" letter-spacing="0px"><tspan x="23" y="405.452">How will you manage billing based </tspan><tspan x="23" y="423.452">on monthly plans and usage?</tspan></text>
</g>
</g>
</g>
<g id="arrow">
<path id="Vector 24" d="M101.293 19.2929C100.902 19.6834 100.902 20.3166 101.293 20.7071L107.657 27.0711C108.047 27.4616 108.681 27.4616 109.071 27.0711C109.462 26.6805 109.462 26.0474 109.071 25.6569L103.414 20L109.071 14.3431C109.462 13.9526 109.462 13.3195 109.071 12.9289C108.681 12.5384 108.047 12.5384 107.657 12.9289L101.293 19.2929ZM351.707 20.7071C352.098 20.3166 352.098 19.6834 351.707 19.2929L345.343 12.9289C344.953 12.5384 344.319 12.5384 343.929 12.9289C343.538 13.3195 343.538 13.9526 343.929 14.3431L349.586 20L343.929 25.6569C343.538 26.0474 343.538 26.6805 343.929 27.0711C344.319 27.4616 344.953 27.4616 345.343 27.0711L351.707 20.7071ZM102 21H104.008V19H102V21ZM108.024 21H112.04V19H108.024V21ZM116.056 21H120.073V19H116.056V21ZM124.089 21H128.105V19H124.089V21ZM132.121 21H136.137V19H132.121V21ZM140.153 21H144.169V19H140.153V21ZM148.185 21H152.202V19H148.185V21ZM156.218 21H160.234V19H156.218V21ZM164.25 21H168.266V19H164.25V21ZM172.282 21H176.298V19H172.282V21ZM180.315 21H184.331V19H180.315V21ZM188.347 21H192.363V19H188.347V21ZM196.379 21H200.395V19H196.379V21ZM204.411 21H208.427V19H204.411V21ZM212.444 21H216.46V19H212.444V21ZM220.476 21H224.492V19H220.476V21ZM228.508 21H232.524V19H228.508V21ZM236.54 21H240.556V19H236.54V21ZM244.573 21H248.589V19H244.573V21ZM252.605 21H256.621V19H252.605V21ZM260.637 21H264.653V19H260.637V21ZM268.669 21H272.685V19H268.669V21ZM276.702 21H280.718V19H276.702V21ZM284.734 21H288.75V19H284.734V21ZM292.766 21H296.782V19H292.766V21ZM300.798 21H304.814V19H300.798V21ZM308.831 21H312.847V19H308.831V21ZM316.863 21H320.879V19H316.863V21ZM324.895 21H328.911V19H324.895V21ZM332.927 21H336.944V19H332.927V21ZM340.96 21H344.976V19H340.96V21ZM348.992 21H351V19H348.992V21Z" fill="#018FFF"/>
<path id="Vector 26" d="M131.293 342.293C130.902 342.683 130.902 343.317 131.293 343.707L137.657 350.071C138.047 350.462 138.681 350.462 139.071 350.071C139.462 349.681 139.462 349.047 139.071 348.657L133.414 343L139.071 337.343C139.462 336.953 139.462 336.319 139.071 335.929C138.681 335.538 138.047 335.538 137.657 335.929L131.293 342.293ZM348.207 343.707C348.598 343.317 348.598 342.683 348.207 342.293L341.843 335.929C341.453 335.538 340.819 335.538 340.429 335.929C340.038 336.319 340.038 336.953 340.429 337.343L346.086 343L340.429 348.657C340.038 349.047 340.038 349.681 340.429 350.071C340.819 350.462 341.453 350.462 341.843 350.071L348.207 343.707ZM541.293 342.293C540.902 342.683 540.902 343.317 541.293 343.707L547.657 350.071C548.047 350.462 548.681 350.462 549.071 350.071C549.462 349.681 549.462 349.047 549.071 348.657L543.414 343L549.071 337.343C549.462 336.953 549.462 336.319 549.071 335.929C548.681 335.538 548.047 335.538 547.657 335.929L541.293 342.293ZM698.207 343.707C698.598 343.317 698.598 342.683 698.207 342.293L691.843 335.929C691.453 335.538 690.819 335.538 690.429 335.929C690.038 336.319 690.038 336.953 690.429 337.343L696.086 343L690.429 348.657C690.038 349.047 690.038 349.681 690.429 350.071C690.819 350.462 691.453 350.462 691.843 350.071L698.207 343.707ZM132 344H133.995V342H132V344ZM137.986 344H141.977V342H137.986V344ZM145.968 344H149.958V342H145.968V344ZM153.949 344H157.94V342H153.949V344ZM161.931 344H165.921V342H161.931V344ZM169.912 344H173.903V342H169.912V344ZM177.894 344H181.884V342H177.894V344ZM185.875 344H189.866V342H185.875V344ZM193.856 344H197.847V342H193.856V344ZM201.838 344H205.829V342H201.838V344ZM209.819 344H213.81V342H209.819V344ZM217.801 344H221.792V342H217.801V344ZM225.782 344H229.773V342H225.782V344ZM233.764 344H237.755V342H233.764V344ZM241.745 344H245.736V342H241.745V344ZM249.727 344H253.718V342H249.727V344ZM257.708 344H261.699V342H257.708V344ZM265.69 344H269.681V342H265.69V344ZM273.671 344H277.662V342H273.671V344ZM281.653 344H285.643V342H281.653V344ZM289.634 344H293.625V342H289.634V344ZM297.616 344H301.606V342H297.616V344ZM305.597 344H309.588V342H305.597V344ZM313.579 344H317.569V342H313.579V344ZM321.56 344H325.551V342H321.56V344ZM329.542 344H333.532V342H329.542V344ZM337.523 344H341.514V342H337.523V344ZM345.505 344H347.5V342H345.505V344ZM542 344H544.046V342H542V344ZM548.138 344H552.23V342H548.138V344ZM556.322 344H560.414V342H556.322V344ZM564.507 344H568.599V342H564.507V344ZM572.691 344H576.783V342H572.691V344ZM580.875 344H584.967V342H580.875V344ZM589.059 344H593.151V342H589.059V344ZM597.243 344H601.336V342H597.243V344ZM605.428 344H609.52V342H605.428V344ZM613.612 344H617.704V342H613.612V344ZM621.796 344H625.888V342H621.796V344ZM629.98 344H634.072V342H629.98V344ZM638.164 344H642.257V342H638.164V344ZM646.349 344H650.441V342H646.349V344ZM654.533 344H658.625V342H654.533V344ZM662.717 344H666.809V342H662.717V344ZM670.901 344H674.993V342H670.901V344ZM679.085 344H683.178V342H679.085V344ZM687.27 344H691.362V342H687.27V344ZM695.454 344H697.5V342H695.454V344Z" fill="#018FFF"/>
<path id="Vector 25" d="M306 272.5L305.004 272.41L304.989 272.574L305.028 272.734L306 272.5ZM354.707 328.207C355.098 327.817 355.098 327.183 354.707 326.793L348.343 320.429C347.953 320.038 347.319 320.038 346.929 320.429C346.538 320.819 346.538 321.453 346.929 321.843L352.586 327.5L346.929 333.157C346.538 333.547 346.538 334.181 346.929 334.571C347.319 334.962 347.953 334.962 348.343 334.571L354.707 328.207ZM214.873 188.992C215.516 189.074 216.172 189.164 216.839 189.261L217.128 187.282C216.449 187.183 215.782 187.092 215.127 187.008L214.873 188.992ZM220.814 189.907C222.1 190.136 223.419 190.391 224.766 190.672L225.175 188.715C223.808 188.43 222.47 188.171 221.165 187.938L220.814 189.907ZM228.684 191.546C229.965 191.85 231.265 192.176 232.582 192.526L233.095 190.593C231.761 190.239 230.444 189.908 229.146 189.6L228.684 191.546ZM236.455 193.609C237.726 193.982 239.008 194.376 240.298 194.792L240.912 192.889C239.605 192.467 238.306 192.068 237.018 191.69L236.455 193.609ZM244.11 196.077C245.364 196.518 246.623 196.98 247.885 197.463L248.6 195.595C247.321 195.105 246.045 194.637 244.774 194.19L244.11 196.077ZM251.62 198.952C252.851 199.463 254.082 199.995 255.309 200.547L256.129 198.723C254.884 198.162 253.635 197.623 252.386 197.105L251.62 198.952ZM258.948 202.249C260.148 202.833 261.342 203.438 262.529 204.063L263.461 202.294C262.255 201.658 261.042 201.044 259.823 200.451L258.948 202.249ZM266.048 205.992C267.209 206.655 268.359 207.338 269.497 208.042L270.549 206.341C269.391 205.624 268.22 204.929 267.039 204.255L266.048 205.992ZM272.867 210.215C273.976 210.96 275.071 211.727 276.148 212.516L277.329 210.902C276.23 210.097 275.114 209.315 273.983 208.555L272.867 210.215ZM279.328 214.95C280.371 215.784 281.394 216.641 282.395 217.52L283.715 216.017C282.69 215.117 281.643 214.241 280.578 213.388L279.328 214.95ZM285.335 220.23C286.293 221.157 287.226 222.107 288.133 223.081L289.597 221.718C288.666 220.718 287.708 219.743 286.726 218.793L285.335 220.23ZM290.773 226.075C291.624 227.096 292.447 228.142 293.238 229.211L294.845 228.022C294.031 226.92 293.185 225.845 292.309 224.794L290.773 226.075ZM295.51 232.486C296.232 233.598 296.92 234.733 297.573 235.894L299.316 234.913C298.642 233.715 297.932 232.543 297.187 231.397L295.51 232.486ZM299.411 239.424C299.981 240.613 300.515 241.827 301.009 243.066L302.867 242.323C302.355 241.043 301.803 239.788 301.214 238.559L299.411 239.424ZM302.36 246.805C302.764 248.055 303.13 249.329 303.455 250.627L305.395 250.141C305.059 248.8 304.681 247.482 304.263 246.19L302.36 246.805ZM304.293 254.517C304.527 255.807 304.722 257.121 304.876 258.458L306.863 258.229C306.704 256.85 306.503 255.493 306.261 254.16L304.293 254.517ZM305.209 262.438C305.277 263.744 305.308 265.07 305.298 266.418L307.298 266.432C307.308 265.045 307.277 263.679 307.206 262.334L305.209 262.438ZM305.159 270.393C305.117 271.06 305.065 271.733 305.004 272.41L306.996 272.59C307.059 271.895 307.112 271.204 307.155 270.518L305.159 270.393ZM305.028 272.734C305.183 273.378 305.342 274.015 305.505 274.647L307.441 274.146C307.281 273.526 307.125 272.899 306.972 272.266L305.028 272.734ZM306.549 278.419C306.925 279.691 307.317 280.936 307.726 282.154L309.622 281.518C309.221 280.323 308.836 279.101 308.467 277.853L306.549 278.419ZM309.041 285.842C309.51 287.083 309.997 288.295 310.498 289.476L312.339 288.694C311.848 287.538 311.372 286.351 310.911 285.135L309.041 285.842ZM312.107 293.056C312.679 294.26 313.267 295.431 313.87 296.568L315.637 295.631C315.048 294.52 314.473 293.376 313.913 292.198L312.107 293.056ZM315.788 299.994C316.465 301.14 317.157 302.249 317.862 303.32L319.533 302.22C318.846 301.176 318.171 300.095 317.51 298.976L315.788 299.994ZM320.111 306.556C320.902 307.634 321.706 308.669 322.519 309.661L324.066 308.393C323.275 307.429 322.494 306.422 321.723 305.373L320.111 306.556ZM325.102 312.638C326.01 313.626 326.927 314.564 327.849 315.453L329.238 314.014C328.345 313.153 327.456 312.243 326.575 311.284L325.102 312.638ZM330.778 318.105C331.81 318.981 332.844 319.797 333.875 320.556L335.06 318.945C334.067 318.214 333.069 317.426 332.071 316.58L330.778 318.105ZM337.145 322.779C338.305 323.505 339.455 324.158 340.589 324.741L341.504 322.962C340.421 322.406 339.319 321.78 338.205 321.084L337.145 322.779ZM344.211 326.39C345.511 326.905 346.778 327.324 348.001 327.648L348.514 325.715C347.371 325.412 346.179 325.019 344.948 324.531L344.211 326.39ZM351.969 328.392C352.668 328.464 353.346 328.5 354 328.5V326.5C353.42 326.5 352.81 326.468 352.175 326.402L351.969 328.392Z" fill="#018FFF"/>
<path id="Vector 28" d="M827.707 125.793C827.317 125.402 826.683 125.402 826.293 125.793L819.929 132.157C819.538 132.547 819.538 133.181 819.929 133.571C820.319 133.962 820.953 133.962 821.343 133.571L827 127.914L832.657 133.571C833.047 133.962 833.681 133.962 834.071 133.571C834.462 133.181 834.462 132.547 834.071 132.157L827.707 125.793ZM826.293 157.707C826.683 158.098 827.317 158.098 827.707 157.707L834.071 151.343C834.462 150.953 834.462 150.319 834.071 149.929C833.681 149.538 833.047 149.538 832.657 149.929L827 155.586L821.343 149.929C820.953 149.538 820.319 149.538 819.929 149.929C819.538 150.319 819.538 150.953 819.929 151.343L826.293 157.707ZM826 126.5V128.406H828V126.5H826ZM826 132.219V136.031H828V132.219H826ZM826 139.844V143.656H828V139.844H826ZM826 147.469V151.281H828V147.469H826ZM826 155.094V157H828V155.094H826Z" fill="#018FFF"/>
<path id="Vector 29" d="M485.707 125.793C485.317 125.402 484.683 125.402 484.293 125.793L477.929 132.157C477.538 132.547 477.538 133.181 477.929 133.571C478.319 133.962 478.953 133.962 479.343 133.571L485 127.914L490.657 133.571C491.047 133.962 491.681 133.962 492.071 133.571C492.462 133.181 492.462 132.547 492.071 132.157L485.707 125.793ZM484.293 157.707C484.683 158.098 485.317 158.098 485.707 157.707L492.071 151.343C492.462 150.953 492.462 150.319 492.071 149.929C491.681 149.538 491.047 149.538 490.657 149.929L485 155.586L479.343 149.929C478.953 149.538 478.319 149.538 477.929 149.929C477.538 150.319 477.538 150.953 477.929 151.343L484.293 157.707ZM484 126.5V128.406H486V126.5H484ZM484 132.219V136.031H486V132.219H484ZM484 139.844V143.656H486V139.844H484ZM484 147.469V151.281H486V147.469H484ZM484 155.094V157H486V155.094H484Z" fill="#018FFF"/>
<path id="Vector 30" d="M485.707 289.793C485.317 289.402 484.683 289.402 484.293 289.793L477.929 296.157C477.538 296.547 477.538 297.181 477.929 297.571C478.319 297.962 478.953 297.962 479.343 297.571L485 291.914L490.657 297.571C491.047 297.962 491.681 297.962 492.071 297.571C492.462 297.181 492.462 296.547 492.071 296.157L485.707 289.793ZM484.293 321.707C484.683 322.098 485.317 322.098 485.707 321.707L492.071 315.343C492.462 314.953 492.462 314.319 492.071 313.929C491.681 313.538 491.047 313.538 490.657 313.929L485 319.586L479.343 313.929C478.953 313.538 478.319 313.538 477.929 313.929C477.538 314.319 477.538 314.953 477.929 315.343L484.293 321.707ZM484 290.5V292.406H486V290.5H484ZM484 296.219V300.031H486V296.219H484ZM484 303.844V307.656H486V303.844H484ZM484 311.469V315.281H486V311.469H484ZM484 319.094V321H486V319.094H484Z" fill="#018FFF"/>
<path id="Vector 31" d="M458.737 19.3533C458.38 19.7745 458.432 20.4056 458.853 20.7628L465.718 26.5834C466.139 26.9406 466.77 26.8887 467.127 26.4675C467.484 26.0462 467.432 25.4152 467.011 25.058L460.909 19.8841L466.083 13.7824C466.441 13.3612 466.389 12.7301 465.967 12.373C465.546 12.0158 464.915 12.0677 464.558 12.4889L458.737 19.3533ZM652 56.5001L652.82 55.9283L652 56.5001ZM700.904 176.915C701.409 176.692 701.638 176.102 701.415 175.596L697.782 167.362C697.559 166.857 696.969 166.628 696.464 166.851C695.958 167.074 695.729 167.664 695.952 168.169L699.181 175.489L691.862 178.718C691.357 178.941 691.128 179.531 691.351 180.036C691.574 180.542 692.164 180.771 692.669 180.548L700.904 176.915ZM459.582 20.9967C460.228 20.9435 460.884 20.8911 461.548 20.8397L461.394 18.8457C460.726 18.8974 460.068 18.95 459.418 19.0034L459.582 20.9967ZM465.58 20.5461C466.894 20.4564 468.237 20.3702 469.607 20.2881L469.488 18.2917C468.112 18.3741 466.763 18.4606 465.444 18.5508L465.58 20.5461ZM473.607 20.0643C474.927 19.9955 476.27 19.9305 477.634 19.8696L477.545 17.8716C476.176 17.9327 474.828 17.9979 473.503 18.067L473.607 20.0643ZM481.682 19.7037C482.999 19.6544 484.333 19.6091 485.683 19.568L485.622 17.5689C484.268 17.6102 482.929 17.6556 481.608 17.7051L481.682 19.7037ZM489.715 19.459C491.047 19.4276 492.393 19.4003 493.752 19.3774L493.718 17.3777C492.355 17.4007 491.005 17.428 489.668 17.4596L489.715 19.459ZM497.766 19.3233C499.103 19.3098 500.451 19.3006 501.808 19.296L501.802 17.296C500.44 17.3006 499.087 17.3098 497.746 17.3234L497.766 19.3233ZM505.827 19.2958C507.162 19.3002 508.506 19.3091 509.857 19.3227L509.877 17.3229C508.522 17.3092 507.173 17.3002 505.834 17.2958L505.827 19.2958ZM513.889 19.3773C515.224 19.4 516.564 19.4273 517.911 19.4595L517.958 17.4601C516.608 17.4278 515.262 17.4003 513.923 17.3776L513.889 19.3773ZM521.948 19.5706C523.282 19.612 524.621 19.6584 525.963 19.7099L526.04 17.7113C524.693 17.6597 523.349 17.6131 522.01 17.5715L521.948 19.5706ZM529.992 19.8793C531.33 19.9406 532.67 20.007 534.012 20.0788L534.119 18.0816C532.771 18.0096 531.426 17.9429 530.084 17.8814L529.992 19.8793ZM538.034 20.3098C539.372 20.3919 540.712 20.4796 542.052 20.5729L542.191 18.5777C540.845 18.484 539.5 18.396 538.156 18.3135L538.034 20.3098ZM546.068 20.8694C547.406 20.9739 548.743 21.0842 550.08 21.2005L550.253 19.208C548.911 19.0912 547.567 18.9805 546.224 18.8755L546.068 20.8694ZM554.091 21.5677C555.427 21.6963 556.761 21.831 558.093 21.972L558.303 19.9831C556.965 19.8414 555.624 19.7061 554.282 19.5769L554.091 21.5677ZM562.097 22.4161C563.432 22.571 564.763 22.7324 566.09 22.9006L566.341 20.9165C565.007 20.7474 563.669 20.5851 562.328 20.4295L562.097 22.4161ZM570.081 23.4287C571.414 23.6127 572.742 23.8037 574.064 24.002L574.361 22.0241C573.031 21.8246 571.695 21.6325 570.354 21.4475L570.081 23.4287ZM578.035 24.6224C579.366 24.839 580.69 25.0632 582.006 25.2952L582.354 23.3256C581.028 23.092 579.695 22.8663 578.356 22.6484L578.035 24.6224ZM585.947 26.0181C587.276 26.2715 588.595 26.5333 589.905 26.8037L590.309 24.845C588.989 24.5725 587.66 24.3087 586.322 24.0535L585.947 26.0181ZM593.828 27.6463C595.145 27.9403 596.45 28.2435 597.743 28.556L598.213 26.6119C596.908 26.2966 595.592 25.9909 594.264 25.6944L593.828 27.6463ZM601.643 29.5372C602.942 29.8772 604.227 30.2272 605.497 30.5875L606.043 28.6634C604.759 28.2993 603.461 27.9457 602.15 27.6024L601.643 29.5372ZM609.364 31.7309C610.654 32.1282 611.926 32.5369 613.18 32.9572L613.816 31.061C612.546 30.6352 611.258 30.2215 609.953 29.8195L609.364 31.7309ZM616.949 34.2767C618.224 34.7425 619.477 35.2214 620.707 35.7136L621.45 33.8567C620.2 33.3568 618.929 32.8707 617.636 32.3982L616.949 34.2767ZM624.393 37.2596C625.624 37.8004 626.827 38.3557 628.003 38.926L628.876 37.1265C627.677 36.5448 626.45 35.979 625.198 35.4287L624.393 37.2596ZM631.576 40.7524C632.766 41.3937 633.922 42.0522 635.043 42.7283L636.076 41.0156C634.926 40.3221 633.742 39.6476 632.525 38.9918L631.576 40.7524ZM638.387 44.8697C639.496 45.6246 640.563 46.3995 641.586 47.1947L642.813 45.6157C641.755 44.7933 640.654 43.9938 639.513 43.2165L638.387 44.8697ZM644.634 49.7425C645.63 50.6406 646.574 51.5624 647.462 52.5082L648.92 51.139C647.992 50.1506 647.008 49.1902 645.973 48.2568L644.634 49.7425ZM650.023 55.5C650.424 56.0173 650.81 56.5412 651.18 57.0718L652.82 55.9283C652.431 55.3691 652.025 54.8178 651.603 54.2742L650.023 55.5ZM651.18 57.0718C651.571 57.6339 651.957 58.1974 652.337 58.7622L653.997 57.6455C653.61 57.0717 653.218 56.4993 652.82 55.9283L651.18 57.0718ZM654.555 62.1743C655.282 63.3324 655.987 64.4954 656.67 65.6625L658.396 64.6527C657.703 63.4679 656.988 62.2871 656.249 61.111L654.555 62.1743ZM658.677 69.2169C659.33 70.4169 659.963 71.6203 660.575 72.8264L662.358 71.9216C661.738 70.6984 661.096 69.4776 660.433 68.26L658.677 69.2169ZM662.366 76.4869C662.95 77.7231 663.514 78.9611 664.058 80.2002L665.889 79.3957C665.338 78.1404 664.767 76.8859 664.175 75.6329L662.366 76.4869ZM665.653 83.9629C666.171 85.2297 666.67 86.4968 667.152 87.7631L669.021 87.052C668.534 85.7709 668.029 84.4886 667.504 83.2061L665.653 83.9629ZM668.559 91.5967C669.016 92.8865 669.455 94.1746 669.88 95.4599L671.779 94.8332C671.35 93.5347 670.906 92.233 670.444 90.9291L668.559 91.5967ZM671.121 99.3552C671.525 100.668 671.914 101.976 672.289 103.279L674.211 102.726C673.833 101.412 673.44 100.091 673.033 98.7668L671.121 99.3552ZM673.388 107.223C673.746 108.55 674.091 109.871 674.424 111.184L676.363 110.692C676.027 109.37 675.68 108.04 675.319 106.702L673.388 107.223ZM675.406 115.159C675.728 116.498 676.039 117.828 676.341 119.147L678.29 118.7C677.987 117.375 677.674 116.039 677.351 114.692L675.406 115.159ZM677.238 123.143C677.535 124.492 677.824 125.828 678.107 127.149L680.063 126.731C679.779 125.406 679.489 124.067 679.191 122.713L677.238 123.143ZM678.961 131.169C679.248 132.527 679.53 133.869 679.81 135.191L681.767 134.777C681.487 133.455 681.205 132.115 680.918 130.755L678.961 131.169ZM680.67 139.214C680.966 140.578 681.261 141.918 681.559 143.233L683.51 142.791C683.213 141.484 682.919 140.15 682.625 138.79L680.67 139.214ZM682.499 147.244C682.832 148.614 683.171 149.952 683.52 151.254L685.452 150.736C685.107 149.451 684.772 148.129 684.442 146.772L682.499 147.244ZM684.661 155.246C685.077 156.611 685.511 157.929 685.967 159.197L687.849 158.52C687.406 157.287 686.982 156 686.573 154.662L684.661 155.246ZM687.504 163.07C688.088 164.399 688.71 165.659 689.377 166.841L691.119 165.859C690.489 164.742 689.896 163.543 689.335 162.265L687.504 163.07ZM691.701 170.39C692.594 171.556 693.561 172.611 694.613 173.544L695.94 172.047C694.993 171.208 694.112 170.249 693.288 169.173L691.701 170.39ZM698.158 176.023C698.794 176.363 699.453 176.667 700.138 176.932L700.862 175.068C700.252 174.831 699.666 174.562 699.102 174.26L698.158 176.023Z" fill="#018FFF"/>
<path id="Vector 32" d="M531.312 182.774C530.911 183.155 530.894 183.788 531.275 184.188L537.471 190.716C537.851 191.116 538.484 191.133 538.885 190.753C539.285 190.372 539.302 189.739 538.921 189.339L533.414 183.537L539.216 178.029C539.616 177.649 539.633 177.016 539.253 176.615C538.873 176.215 538.24 176.198 537.839 176.578L531.312 182.774ZM531.974 184.499C532.622 184.516 533.285 184.525 533.964 184.524L533.964 182.524C533.301 182.525 532.655 182.516 532.026 182.5L531.974 184.499ZM538.001 184.432C539.3 184.375 540.642 184.292 542.021 184.183L541.864 182.189C540.506 182.296 539.188 182.378 537.913 182.434L538.001 184.432ZM546.012 183.807C547.312 183.666 548.639 183.504 549.989 183.322L549.721 181.34C548.388 181.52 547.078 181.68 545.796 181.819L546.012 183.807ZM553.952 182.739C555.252 182.532 556.569 182.307 557.901 182.066L557.543 180.098C556.226 180.337 554.923 180.559 553.638 180.763L553.952 182.739ZM561.827 181.31C563.121 181.047 564.426 180.769 565.738 180.475L565.3 178.523C564.001 178.814 562.71 179.09 561.429 179.35L561.827 181.31ZM569.632 179.561C570.921 179.245 572.214 178.915 573.51 178.57L572.995 176.638C571.712 176.979 570.432 177.306 569.156 177.618L569.632 179.561ZM577.368 177.503C578.647 177.135 579.927 176.754 581.204 176.358L580.613 174.448C579.349 174.839 578.082 175.217 576.815 175.581L577.368 177.503ZM585.017 175.135C586.283 174.714 587.546 174.279 588.802 173.831L588.129 171.947C586.887 172.39 585.639 172.82 584.386 173.237L585.017 175.135ZM592.557 172.442C593.809 171.963 595.051 171.47 596.283 170.963L595.522 169.114C594.306 169.614 593.079 170.101 591.842 170.574L592.557 172.442ZM599.971 169.391C601.202 168.847 602.418 168.289 603.618 167.717L602.758 165.912C601.575 166.475 600.376 167.025 599.163 167.561L599.971 169.391ZM607.215 165.935C608.415 165.317 609.596 164.684 610.754 164.036L609.777 162.291C608.64 162.927 607.48 163.549 606.299 164.157L607.215 165.935ZM614.224 162.008C615.383 161.3 616.513 160.577 617.613 159.837L616.498 158.177C615.423 158.9 614.317 159.608 613.182 160.301L614.224 162.008ZM620.903 157.508C621.998 156.69 623.055 155.854 624.071 155.001L622.784 153.47C621.8 154.297 620.773 155.109 619.706 155.906L620.903 157.508ZM627.083 152.295C628.076 151.34 629.016 150.364 629.898 149.367L628.401 148.041C627.556 148.995 626.653 149.933 625.696 150.854L627.083 152.295ZM632.456 146.196C633.273 145.077 634.017 143.934 634.682 142.766L632.944 141.776C632.319 142.874 631.616 143.955 630.841 145.017L632.456 146.196ZM636.482 139.078C637.005 137.796 637.433 136.489 637.758 135.155L635.814 134.682C635.514 135.915 635.117 137.129 634.63 138.323L636.482 139.078ZM638.417 131.076C638.472 130.39 638.5 129.697 638.5 129H636.5C636.5 129.644 636.474 130.282 636.423 130.916L638.417 131.076ZM638.5 129C638.5 128.32 638.503 127.642 638.509 126.966L636.509 126.948C636.503 127.63 636.5 128.314 636.5 129H638.5ZM638.579 122.934C638.615 121.575 638.663 120.225 638.722 118.883L636.724 118.795C636.664 120.148 636.616 121.51 636.58 122.882L638.579 122.934ZM638.939 114.845C639.024 113.494 639.121 112.152 639.23 110.821L637.237 110.658C637.127 112.002 637.029 113.355 636.943 114.719L638.939 114.845ZM639.6 106.794C639.738 105.442 639.888 104.101 640.05 102.772L638.065 102.53C637.901 103.872 637.749 105.226 637.61 106.592L639.6 106.794ZM640.581 98.7695C640.773 97.4291 640.978 96.1014 641.195 94.7868L639.222 94.4607C639.002 95.7896 638.795 97.1315 638.601 98.4858L640.581 98.7695ZM641.899 90.8026C642.15 89.4667 642.415 88.1453 642.693 86.8387L640.737 86.4228C640.456 87.7448 640.188 89.0815 639.933 90.4324L641.899 90.8026ZM643.58 82.9012C643.894 81.5819 644.221 80.2789 644.562 78.9928L642.629 78.4804C642.284 79.7831 641.952 81.1025 641.634 82.4381L643.58 82.9012ZM645.645 75.1138C646.029 73.8078 646.427 72.5208 646.838 71.2532L644.936 70.6357C644.518 71.9215 644.115 73.2264 643.726 74.5501L645.645 75.1138ZM648.141 67.4337C648.599 66.1539 649.071 64.8958 649.558 63.6601L647.697 62.927C647.203 64.1827 646.723 65.4605 646.258 66.7598L648.141 67.4337ZM651.096 59.9385C651.637 58.6921 652.192 57.471 652.762 56.2759L650.957 55.4147C650.376 56.6321 649.811 57.8751 649.261 59.1431L651.096 59.9385ZM654.563 52.681C655.195 51.4788 655.843 50.3063 656.506 49.1643L654.776 48.16C654.099 49.3269 653.437 50.524 652.792 51.7503L654.563 52.681ZM658.599 45.7387C659.334 44.5969 660.085 43.4903 660.852 42.4198L659.226 41.255C658.439 42.3534 657.669 43.4875 656.917 44.6564L658.599 45.7387ZM663.273 39.2268C664.121 38.1698 664.987 37.1546 665.869 36.1824L664.388 34.8386C663.478 35.8415 662.586 36.8873 661.713 37.9747L663.273 39.2268ZM668.648 33.3139C669.62 32.3767 670.609 31.4892 671.614 30.6527L670.335 29.1152C669.291 29.9841 668.265 30.9044 667.259 31.8745L668.648 33.3139ZM674.769 28.2346C675.866 27.4631 676.981 26.75 678.112 26.0965L677.111 24.3648C675.927 25.0488 674.763 25.7941 673.618 26.5985L674.769 28.2346ZM681.637 24.2784C682.847 23.7276 684.073 23.2428 685.316 22.8256L684.679 20.9296C683.37 21.3693 682.079 21.8795 680.808 22.4582L681.637 24.2784ZM689.122 21.7711C690.406 21.4895 691.705 21.278 693.019 21.1385L692.808 19.1497C691.42 19.297 690.049 19.5203 688.693 19.8175L689.122 21.7711ZM696.96 20.9377C697.618 20.94 698.279 20.96 698.943 20.998L699.057 19.0013C698.357 18.9613 697.661 18.9402 696.967 18.9377L696.96 20.9377Z" fill="#018FFF"/>
<path id="Vector 27" d="M827.707 291.793C827.317 291.402 826.683 291.402 826.293 291.793L819.929 298.157C819.538 298.547 819.538 299.181 819.929 299.571C820.319 299.962 820.953 299.962 821.343 299.571L827 293.914L832.657 299.571C833.047 299.962 833.681 299.962 834.071 299.571C834.462 299.181 834.462 298.547 834.071 298.157L827.707 291.793ZM826.293 323.707C826.683 324.098 827.317 324.098 827.707 323.707L834.071 317.343C834.462 316.953 834.462 316.319 834.071 315.929C833.681 315.538 833.047 315.538 832.657 315.929L827 321.586L821.343 315.929C820.953 315.538 820.319 315.538 819.929 315.929C819.538 316.319 819.538 316.953 819.929 317.343L826.293 323.707ZM826 292.5V294.406H828V292.5H826ZM826 298.219V302.031H828V298.219H826ZM826 305.844V309.656H828V305.844H826ZM826 313.469V317.281H828V313.469H826ZM826 321.094V323H828V321.094H826Z" fill="#018FFF"/>
</g>
</g>
</g>
<defs>
<filter id="filter0_dd" x="0" y="0" width="286" height="126" filterUnits="userSpaceOnUse" color-interpolation-filters="sRGB">
<feFlood flood-opacity="0" result="BackgroundImageFix"/>
<feColorMatrix in="SourceAlpha" type="matrix" values="0 0 0 0 0 0 0 0 0 0 0 0 0 0 0 0 0 0 127 0"/>
<feOffset dy="1"/>
<feGaussianBlur stdDeviation="1"/>
<feColorMatrix type="matrix" values="0 0 0 0 0 0 0 0 0 0 0 0 0 0 0 0 0 0 0.24 0"/>
<feBlend mode="normal" in2="BackgroundImageFix" result="effect1_dropShadow"/>
<feColorMatrix in="SourceAlpha" type="matrix" values="0 0 0 0 0 0 0 0 0 0 0 0 0 0 0 0 0 0 127 0"/>
<feOffset dy="1"/>
<feGaussianBlur stdDeviation="1.5"/>
<feColorMatrix type="matrix" values="0 0 0 0 0 0 0 0 0 0 0 0 0 0 0 0 0 0 0.12 0"/>
<feBlend mode="normal" in2="effect1_dropShadow" result="effect2_dropShadow"/>
<feBlend mode="normal" in="SourceGraphic" in2="effect2_dropShadow" result="shape"/>
</filter>
<filter id="filter1_dd" x="342" y="0" width="286" height="126" filterUnits="userSpaceOnUse" color-interpolation-filters="sRGB">
<feFlood flood-opacity="0" result="BackgroundImageFix"/>
<feColorMatrix in="SourceAlpha" type="matrix" values="0 0 0 0 0 0 0 0 0 0 0 0 0 0 0 0 0 0 127 0"/>
<feOffset dy="1"/>
<feGaussianBlur stdDeviation="1"/>
<feColorMatrix type="matrix" values="0 0 0 0 0 0 0 0 0 0 0 0 0 0 0 0 0 0 0.24 0"/>
<feBlend mode="normal" in2="BackgroundImageFix" result="effect1_dropShadow"/>
<feColorMatrix in="SourceAlpha" type="matrix" values="0 0 0 0 0 0 0 0 0 0 0 0 0 0 0 0 0 0 127 0"/>
<feOffset dy="1"/>
<feGaussianBlur stdDeviation="1.5"/>
<feColorMatrix type="matrix" values="0 0 0 0 0 0 0 0 0 0 0 0 0 0 0 0 0 0 0.12 0"/>
<feBlend mode="normal" in2="effect1_dropShadow" result="effect2_dropShadow"/>
<feBlend mode="normal" in="SourceGraphic" in2="effect2_dropShadow" result="shape"/>
</filter>
<filter id="filter2_dd" x="684" y="0" width="286" height="126" filterUnits="userSpaceOnUse" color-interpolation-filters="sRGB">
<feFlood flood-opacity="0" result="BackgroundImageFix"/>
<feColorMatrix in="SourceAlpha" type="matrix" values="0 0 0 0 0 0 0 0 0 0 0 0 0 0 0 0 0 0 127 0"/>
<feOffset dy="1"/>
<feGaussianBlur stdDeviation="1"/>
<feColorMatrix type="matrix" values="0 0 0 0 0 0 0 0 0 0 0 0 0 0 0 0 0 0 0.24 0"/>
<feBlend mode="normal" in2="BackgroundImageFix" result="effect1_dropShadow"/>
<feColorMatrix in="SourceAlpha" type="matrix" values="0 0 0 0 0 0 0 0 0 0 0 0 0 0 0 0 0 0 127 0"/>
<feOffset dy="1"/>
<feGaussianBlur stdDeviation="1.5"/>
<feColorMatrix type="matrix" values="0 0 0 0 0 0 0 0 0 0 0 0 0 0 0 0 0 0 0.12 0"/>
<feBlend mode="normal" in2="effect1_dropShadow" result="effect2_dropShadow"/>
<feBlend mode="normal" in="SourceGraphic" in2="effect2_dropShadow" result="shape"/>
</filter>
<filter id="filter3_dd" x="684" y="162" width="286" height="126" filterUnits="userSpaceOnUse" color-interpolation-filters="sRGB">
<feFlood flood-opacity="0" result="BackgroundImageFix"/>
<feColorMatrix in="SourceAlpha" type="matrix" values="0 0 0 0 0 0 0 0 0 0 0 0 0 0 0 0 0 0 127 0"/>
<feOffset dy="1"/>
<feGaussianBlur stdDeviation="1"/>
<feColorMatrix type="matrix" values="0 0 0 0 0 0 0 0 0 0 0 0 0 0 0 0 0 0 0.24 0"/>
<feBlend mode="normal" in2="BackgroundImageFix" result="effect1_dropShadow"/>
<feColorMatrix in="SourceAlpha" type="matrix" values="0 0 0 0 0 0 0 0 0 0 0 0 0 0 0 0 0 0 127 0"/>
<feOffset dy="1"/>
<feGaussianBlur stdDeviation="1.5"/>
<feColorMatrix type="matrix" values="0 0 0 0 0 0 0 0 0 0 0 0 0 0 0 0 0 0 0.12 0"/>
<feBlend mode="normal" in2="effect1_dropShadow" result="effect2_dropShadow"/>
<feBlend mode="normal" in="SourceGraphic" in2="effect2_dropShadow" result="shape"/>
</filter>
<filter id="filter4_dd" x="684" y="324" width="286" height="131" filterUnits="userSpaceOnUse" color-interpolation-filters="sRGB">
<feFlood flood-opacity="0" result="BackgroundImageFix"/>
<feColorMatrix in="SourceAlpha" type="matrix" values="0 0 0 0 0 0 0 0 0 0 0 0 0 0 0 0 0 0 127 0"/>
<feOffset dy="1"/>
<feGaussianBlur stdDeviation="1"/>
<feColorMatrix type="matrix" values="0 0 0 0 0 0 0 0 0 0 0 0 0 0 0 0 0 0 0.24 0"/>
<feBlend mode="normal" in2="BackgroundImageFix" result="effect1_dropShadow"/>
<feColorMatrix in="SourceAlpha" type="matrix" values="0 0 0 0 0 0 0 0 0 0 0 0 0 0 0 0 0 0 127 0"/>
<feOffset dy="1"/>
<feGaussianBlur stdDeviation="1.5"/>
<feColorMatrix type="matrix" values="0 0 0 0 0 0 0 0 0 0 0 0 0 0 0 0 0 0 0.12 0"/>
<feBlend mode="normal" in2="effect1_dropShadow" result="effect2_dropShadow"/>
<feBlend mode="normal" in="SourceGraphic" in2="effect2_dropShadow" result="shape"/>
</filter>
<filter id="filter5_dd" x="343" y="162" width="286" height="126" filterUnits="userSpaceOnUse" color-interpolation-filters="sRGB">
<feFlood flood-opacity="0" result="BackgroundImageFix"/>
<feColorMatrix in="SourceAlpha" type="matrix" values="0 0 0 0 0 0 0 0 0 0 0 0 0 0 0 0 0 0 127 0"/>
<feOffset dy="1"/>
<feGaussianBlur stdDeviation="1"/>
<feColorMatrix type="matrix" values="0 0 0 0 0 0 0 0 0 0 0 0 0 0 0 0 0 0 0.24 0"/>
<feBlend mode="normal" in2="BackgroundImageFix" result="effect1_dropShadow"/>
<feColorMatrix in="SourceAlpha" type="matrix" values="0 0 0 0 0 0 0 0 0 0 0 0 0 0 0 0 0 0 127 0"/>
<feOffset dy="1"/>
<feGaussianBlur stdDeviation="1.5"/>
<feColorMatrix type="matrix" values="0 0 0 0 0 0 0 0 0 0 0 0 0 0 0 0 0 0 0.12 0"/>
<feBlend mode="normal" in2="effect1_dropShadow" result="effect2_dropShadow"/>
<feBlend mode="normal" in="SourceGraphic" in2="effect2_dropShadow" result="shape"/>
</filter>
<filter id="filter6_dd" x="343" y="324" width="286" height="131" filterUnits="userSpaceOnUse" color-interpolation-filters="sRGB">
<feFlood flood-opacity="0" result="BackgroundImageFix"/>
<feColorMatrix in="SourceAlpha" type="matrix" values="0 0 0 0 0 0 0 0 0 0 0 0 0 0 0 0 0 0 127 0"/>
<feOffset dy="1"/>
<feGaussianBlur stdDeviation="1"/>
<feColorMatrix type="matrix" values="0 0 0 0 0 0 0 0 0 0 0 0 0 0 0 0 0 0 0.24 0"/>
<feBlend mode="normal" in2="BackgroundImageFix" result="effect1_dropShadow"/>
<feColorMatrix in="SourceAlpha" type="matrix" values="0 0 0 0 0 0 0 0 0 0 0 0 0 0 0 0 0 0 127 0"/>
<feOffset dy="1"/>
<feGaussianBlur stdDeviation="1.5"/>
<feColorMatrix type="matrix" values="0 0 0 0 0 0 0 0 0 0 0 0 0 0 0 0 0 0 0.12 0"/>
<feBlend mode="normal" in2="effect1_dropShadow" result="effect2_dropShadow"/>
<feBlend mode="normal" in="SourceGraphic" in2="effect2_dropShadow" result="shape"/>
</filter>
<filter id="filter7_dd" x="0" y="162" width="286" height="126" filterUnits="userSpaceOnUse" color-interpolation-filters="sRGB">
<feFlood flood-opacity="0" result="BackgroundImageFix"/>
<feColorMatrix in="SourceAlpha" type="matrix" values="0 0 0 0 0 0 0 0 0 0 0 0 0 0 0 0 0 0 127 0"/>
<feOffset dy="1"/>
<feGaussianBlur stdDeviation="1"/>
<feColorMatrix type="matrix" values="0 0 0 0 0 0 0 0 0 0 0 0 0 0 0 0 0 0 0.24 0"/>
<feBlend mode="normal" in2="BackgroundImageFix" result="effect1_dropShadow"/>
<feColorMatrix in="SourceAlpha" type="matrix" values="0 0 0 0 0 0 0 0 0 0 0 0 0 0 0 0 0 0 127 0"/>
<feOffset dy="1"/>
<feGaussianBlur stdDeviation="1.5"/>
<feColorMatrix type="matrix" values="0 0 0 0 0 0 0 0 0 0 0 0 0 0 0 0 0 0 0.12 0"/>
<feBlend mode="normal" in2="effect1_dropShadow" result="effect2_dropShadow"/>
<feBlend mode="normal" in="SourceGraphic" in2="effect2_dropShadow" result="shape"/>
</filter>
<filter id="filter8_dd" x="0" y="324" width="286" height="131" filterUnits="userSpaceOnUse" color-interpolation-filters="sRGB">
<feFlood flood-opacity="0" result="BackgroundImageFix"/>
<feColorMatrix in="SourceAlpha" type="matrix" values="0 0 0 0 0 0 0 0 0 0 0 0 0 0 0 0 0 0 127 0"/>
<feOffset dy="1"/>
<feGaussianBlur stdDeviation="1"/>
<feColorMatrix type="matrix" values="0 0 0 0 0 0 0 0 0 0 0 0 0 0 0 0 0 0 0.24 0"/>
<feBlend mode="normal" in2="BackgroundImageFix" result="effect1_dropShadow"/>
<feColorMatrix in="SourceAlpha" type="matrix" values="0 0 0 0 0 0 0 0 0 0 0 0 0 0 0 0 0 0 127 0"/>
<feOffset dy="1"/>
<feGaussianBlur stdDeviation="1.5"/>
<feColorMatrix type="matrix" values="0 0 0 0 0 0 0 0 0 0 0 0 0 0 0 0 0 0 0.12 0"/>
<feBlend mode="normal" in2="effect1_dropShadow" result="effect2_dropShadow"/>
<feBlend mode="normal" in="SourceGraphic" in2="effect2_dropShadow" result="shape"/>
</filter>
<clipPath id="clip0">
<rect width="231" height="76" fill="white" transform="translate(11 32)"/>
</clipPath>
<clipPath id="clip1">
<rect width="253" height="33" fill="white" transform="translate(701 31)"/>
</clipPath>
<clipPath id="clip2">
<rect width="245" height="95" fill="white" transform="translate(701 189)"/>
</clipPath>
<clipPath id="clip3">
<rect width="245" height="95" fill="white" transform="translate(702 350)"/>
</clipPath>
<clipPath id="clip4">
<rect width="220" height="38" fill="white" transform="translate(360 194)"/>
</clipPath>
<clipPath id="clip5">
<rect width="266" height="41" fill="white" transform="translate(360 234)"/>
</clipPath>
<clipPath id="clip6">
<rect width="231" height="76" fill="white" transform="translate(11 194)"/>
</clipPath>
</defs>
</svg>
